<mxfile host="app.diagrams.net" agent="Mozilla/5.0 (X11; Linux x86_64) AppleWebKit/537.36 (KHTML, like Gecko) Chrome/131.0.0.0 Safari/537.36" version="26.1.0">
  <diagram name="ページ1" id="-BNRxe2uH-DrA5zJrWFa">
    <mxGraphModel dx="1050" dy="602" grid="1" gridSize="10" guides="1" tooltips="1" connect="1" arrows="1" fold="1" page="1" pageScale="1" pageWidth="827" pageHeight="1169" math="0" shadow="0">
      <root>
        <mxCell id="0" />
        <mxCell id="1" parent="0" />
        <mxCell id="nDmqPj9EGdb8u2dLLt6z-2" value="" style="shape=image;verticalLabelPosition=bottom;labelBackgroundColor=default;verticalAlign=top;aspect=fixed;imageAspect=0;editableCssRules=.*;image=data:image/svg+xml,PHN2ZyB4bWxucz0iaHR0cDovL3d3dy53My5vcmcvMjAwMC9zdmciIHhtbG5zOnhsaW5rPSJodHRwOi8vd3d3LnczLm9yZy8xOTk5L3hsaW5rIiB2ZXJzaW9uPSIxLjEiIHZpZXdCb3g9IjAgMCA0NjAuNzk5OTg3NzkyOTY4NzUgMzQ1LjYwMDAwNjEwMzUxNTYiIGhlaWdodD0iMzQ1LjYwMDAwNjEwMzUxNTYiIHdpZHRoPSI0NjAuNzk5OTg3NzkyOTY4NzUiPiYjeGE7IDxtZXRhZGF0YT4mI3hhOyAgJiN4YTsgICAmI3hhOyAgICAmI3hhOyAgICAyMDI1LTAzLTEzVDE2OjI5OjAzLjk0NDE0MCYjeGE7ICAgIGltYWdlL3N2Zyt4bWwmI3hhOyAgICAmI3hhOyAgICAgJiN4YTsgICAgICBNYXRwbG90bGliIHYzLjkuMiwgaHR0cHM6Ly9tYXRwbG90bGliLm9yZy8mI3hhOyAgICAgJiN4YTsgICAgJiN4YTsgICAmI3hhOyAgJiN4YTsgPC9tZXRhZGF0YT4mI3hhOyA8ZGVmcz4mI3hhOyAgPHN0eWxlIHR5cGU9InRleHQvY3NzIj4qe3N0cm9rZS1saW5lam9pbjogcm91bmQ7IHN0cm9rZS1saW5lY2FwOiBidXR0fTwvc3R5bGU+JiN4YTsgPC9kZWZzPiYjeGE7IDxnIGlkPSJmaWd1cmVfMSI+JiN4YTsgIDxnIGlkPSJwYXRjaF8xIj4mI3hhOyAgIDxwYXRoIHN0eWxlPSJmaWxsOiAjZmZmZmZmIiBkPSJNIDAgMzQ1LjYgJiMxMDtMIDQ2MC44IDM0NS42ICYjMTA7TCA0NjAuOCAwICYjMTA7TCAwIDAgJiMxMDt6Ii8+JiN4YTsgIDwvZz4mI3hhOyAgPGcgaWQ9ImF4ZXNfMSI+JiN4YTsgICA8ZyBpZD0icGF0Y2hfMiI+JiN4YTsgICAgPHBhdGggc3R5bGU9ImZpbGw6ICNmZmZmZmYiIGQ9Ik0gNjMuMjEgMjkwLjQzNiAmIzEwO0wgNDUwIDI5MC40MzYgJiMxMDtMIDQ1MCAxMC44ICYjMTA7TCA2My4yMSAxMC44ICYjMTA7eiIvPiYjeGE7ICAgPC9nPiYjeGE7ICAgPGcgaWQ9Im1hdHBsb3RsaWIuYXhpc18xIj4mI3hhOyAgICA8ZyBpZD0ieHRpY2tfMSI+JiN4YTsgICAgIDxnIGlkPSJsaW5lMmRfMSI+JiN4YTsgICAgICA8ZGVmcz4mI3hhOyAgICAgICA8cGF0aCBzdHlsZT0ic3Ryb2tlOiAjMDAwMDAwIiBkPSJNIDAgMCAmIzEwO0wgMCAtMTAiIGlkPSJtOTM0YjliMWM5MSIvPiYjeGE7ICAgICAgPC9kZWZzPiYjeGE7ICAgICAgPGc+JiN4YTsgICAgICAgPHVzZSBzdHlsZT0ic3Ryb2tlOiAjMDAwMDAwIiB5PSIyOTAuNDM2IiB4PSIxNDQuNzIzNTk1IiB4bGluazpocmVmPSIjbTkzNGI5YjFjOTEiLz4mI3hhOyAgICAgIDwvZz4mI3hhOyAgICAgPC9nPiYjeGE7ICAgICA8ZyBpZD0idGV4dF8xIj4mI3hhOyAgICAgICYjeGE7ICAgICAgPGcgdHJhbnNmb3JtPSJ0cmFuc2xhdGUoMTM3LjI1MzU5NSAzMDcuNDM2KSBzY2FsZSgwLjE4IC0wLjE4KSI+JiN4YTsgICAgICAgPGRlZnM+JiN4YTsgICAgICAgIDxwYXRoIHRyYW5zZm9ybT0ic2NhbGUoMC4wMTU2MjUpIiBkPSJNIDMwNTkgNDg2MyAmIzEwO0wgMjk2OSA0Mzg0ICYjMTA7TCAyNDE5IDQzODQgJiMxMDtRIDIxMDYgNDM4NCAxOTY0IDQyNjEgJiMxMDtRIDE4MjIgNDEzOCAxNzUzIDM4MDkgJiMxMDtMIDE2OTEgMzUwMCAmIzEwO0wgMjYzOCAzNTAwICYjMTA7TCAyNTUzIDMwNTMgJiMxMDtMIDE2MDYgMzA1MyAmIzEwO0wgMTAxMyAwICYjMTA7TCA0MzQgMCAmIzEwO0wgMTAzMSAzMDUzICYjMTA7TCA0ODEgMzA1MyAmIzEwO0wgNTYzIDM1MDAgJiMxMDtMIDExMTMgMzUwMCAmIzEwO0wgMTE1OSAzNzQ0ICYjMTA7USAxMjc4IDQzNjMgMTU3NiA0NjEzICYjMTA7USAxODc1IDQ4NjMgMjUxNiA0ODYzICYjMTA7TCAzMDU5IDQ4NjMgJiMxMDt6IiBpZD0iRGVqYVZ1U2Fucy1PYmxpcXVlLTY2Ii8+JiN4YTsgICAgICAgIDxwYXRoIHRyYW5zZm9ybT0ic2NhbGUoMC4wMTU2MjUpIiBkPSJNIDIwMzQgNDI1MCAmIzEwO1EgMTU0NyA0MjUwIDEzMDEgMzc3MCAmIzEwO1EgMTA1NiAzMjkxIDEwNTYgMjMyOCAmIzEwO1EgMTA1NiAxMzY5IDEzMDEgODg5ICYjMTA7USAxNTQ3IDQwOSAyMDM0IDQwOSAmIzEwO1EgMjUyNSA0MDkgMjc3MCA4ODkgJiMxMDtRIDMwMTYgMTM2OSAzMDE2IDIzMjggJiMxMDtRIDMwMTYgMzI5MSAyNzcwIDM3NzAgJiMxMDtRIDI1MjUgNDI1MCAyMDM0IDQyNTAgJiMxMDt6JiMxMDtNIDIwMzQgNDc1MCAmIzEwO1EgMjgxOSA0NzUwIDMyMzMgNDEyOSAmIzEwO1EgMzY0NyAzNTA5IDM2NDcgMjMyOCAmIzEwO1EgMzY0NyAxMTUwIDMyMzMgNTI5ICYjMTA7USAyODE5IC05MSAyMDM0IC05MSAmIzEwO1EgMTI1MCAtOTEgODM2IDUyOSAmIzEwO1EgNDIyIDExNTAgNDIyIDIzMjggJiMxMDtRIDQyMiAzNTA5IDgzNiA0MTI5ICYjMTA7USAxMjUwIDQ3NTAgMjAzNCA0NzUwICYjMTA7eiIgaWQ9IkRlamFWdVNhbnMtMzAiLz4mI3hhOyAgICAgICA8L2RlZnM+JiN4YTsgICAgICAgPHVzZSB0cmFuc2Zvcm09InRyYW5zbGF0ZSgwIDAuMDE1NjI1KSIgeGxpbms6aHJlZj0iI0RlamFWdVNhbnMtT2JsaXF1ZS02NiIvPiYjeGE7ICAgICAgIDx1c2UgdHJhbnNmb3JtPSJ0cmFuc2xhdGUoMzUuMjA1MDc4IC0xNi4zOTA2MjUpIHNjYWxlKDAuNykiIHhsaW5rOmhyZWY9IiNEZWphVnVTYW5zLTMwIi8+JiN4YTsgICAgICA8L2c+JiN4YTsgICAgIDwvZz4mI3hhOyAgICA8L2c+JiN4YTsgICAgPGcgaWQ9Inh0aWNrXzIiPiYjeGE7ICAgICA8ZyBpZD0ibGluZTJkXzIiPiYjeGE7ICAgICAgPGc+JiN4YTsgICAgICAgPHVzZSBzdHlsZT0ic3Ryb2tlOiAjMDAwMDAwIiB5PSIyOTAuNDM2IiB4PSIxNzYuNjg5NzExIiB4bGluazpocmVmPSIjbTkzNGI5YjFjOTEiLz4mI3hhOyAgICAgIDwvZz4mI3hhOyAgICAgPC9nPiYjeGE7ICAgICA8ZyBpZD0idGV4dF8yIj4mI3hhOyAgICAgICYjeGE7ICAgICAgPGcgdHJhbnNmb3JtPSJ0cmFuc2xhdGUoMTY5LjIxOTcxMSAzMDcuNDE5MTI1KSBzY2FsZSgwLjE4IC0wLjE4KSI+JiN4YTsgICAgICAgPGRlZnM+JiN4YTsgICAgICAgIDxwYXRoIHRyYW5zZm9ybT0ic2NhbGUoMC4wMTU2MjUpIiBkPSJNIDc5NCA1MzEgJiMxMDtMIDE4MjUgNTMxICYjMTA7TCAxODI1IDQwOTEgJiMxMDtMIDcwMyAzODY2ICYjMTA7TCA3MDMgNDQ0MSAmIzEwO0wgMTgxOSA0NjY2ICYjMTA7TCAyNDUwIDQ2NjYgJiMxMDtMIDI0NTAgNTMxICYjMTA7TCAzNDgxIDUzMSAmIzEwO0wgMzQ4MSAwICYjMTA7TCA3OTQgMCAmIzEwO0wgNzk0IDUzMSAmIzEwO3oiIGlkPSJEZWphVnVTYW5zLTMxIi8+JiN4YTsgICAgICAgPC9kZWZzPiYjeGE7ICAgICAgIDx1c2UgdHJhbnNmb3JtPSJ0cmFuc2xhdGUoMCAwLjAxNTYyNSkiIHhsaW5rOmhyZWY9IiNEZWphVnVTYW5zLU9ibGlxdWUtNjYiLz4mI3hhOyAgICAgICA8dXNlIHRyYW5zZm9ybT0idHJhbnNsYXRlKDM1LjIwNTA3OCAtMTYuMzkwNjI1KSBzY2FsZSgwLjcpIiB4bGluazpocmVmPSIjRGVqYVZ1U2Fucy0zMSIvPiYjeGE7ICAgICAgPC9nPiYjeGE7ICAgICA8L2c+JiN4YTsgICAgPC9nPiYjeGE7ICAgIDxnIGlkPSJ4dGlja18zIj4mI3hhOyAgICAgPGcgaWQ9ImxpbmUyZF8zIj4mI3hhOyAgICAgIDxnPiYjeGE7ICAgICAgIDx1c2Ugc3R5bGU9InN0cm9rZTogIzAwMDAwMCIgeT0iMjkwLjQzNiIgeD0iMjA4LjY1NTgyNiIgeGxpbms6aHJlZj0iI205MzRiOWIxYzkxIi8+JiN4YTsgICAgICA8L2c+JiN4YTsgICAgIDwvZz4mI3hhOyAgICAgPGcgaWQ9InRleHRfMyI+JiN4YTsgICAgICAmI3hhOyAgICAgIDxnIHRyYW5zZm9ybT0idHJhbnNsYXRlKDIwMS4xODU4MjYgMzA3LjQxOTEyNSkgc2NhbGUoMC4xOCAtMC4xOCkiPiYjeGE7ICAgICAgIDxkZWZzPiYjeGE7ICAgICAgICA8cGF0aCB0cmFuc2Zvcm09InNjYWxlKDAuMDE1NjI1KSIgZD0iTSAxMjI4IDUzMSAmIzEwO0wgMzQzMSA1MzEgJiMxMDtMIDM0MzEgMCAmIzEwO0wgNDY5IDAgJiMxMDtMIDQ2OSA1MzEgJiMxMDtRIDgyOCA5MDMgMTQ0OCAxNTI5ICYjMTA7USAyMDY5IDIxNTYgMjIyOCAyMzM4ICYjMTA7USAyNTMxIDI2NzggMjY1MSAyOTE0ICYjMTA7USAyNzcyIDMxNTAgMjc3MiAzMzc4ICYjMTA7USAyNzcyIDM3NTAgMjUxMSAzOTg0ICYjMTA7USAyMjUwIDQyMTkgMTgzMSA0MjE5ICYjMTA7USAxNTM0IDQyMTkgMTIwNCA0MTE2ICYjMTA7USA4NzUgNDAxMyA1MDAgMzgwMyAmIzEwO0wgNTAwIDQ0NDEgJiMxMDtRIDg4MSA0NTk0IDEyMTIgNDY3MiAmIzEwO1EgMTU0NCA0NzUwIDE4MTkgNDc1MCAmIzEwO1EgMjU0NCA0NzUwIDI5NzUgNDM4NyAmIzEwO1EgMzQwNiA0MDI1IDM0MDYgMzQxOSAmIzEwO1EgMzQwNiAzMTMxIDMyOTggMjg3MyAmIzEwO1EgMzE5MSAyNjE2IDI5MDYgMjI2NiAmIzEwO1EgMjgyOCAyMTc1IDI0MDkgMTc0MiAmIzEwO1EgMTk5MSAxMzA5IDEyMjggNTMxICYjMTA7eiIgaWQ9IkRlamFWdVNhbnMtMzIiLz4mI3hhOyAgICAgICA8L2RlZnM+JiN4YTsgICAgICAgPHVzZSB0cmFuc2Zvcm09InRyYW5zbGF0ZSgwIDAuMDE1NjI1KSIgeGxpbms6aHJlZj0iI0RlamFWdVNhbnMtT2JsaXF1ZS02NiIvPiYjeGE7ICAgICAgIDx1c2UgdHJhbnNmb3JtPSJ0cmFuc2xhdGUoMzUuMjA1MDc4IC0xNi4zOTA2MjUpIHNjYWxlKDAuNykiIHhsaW5rOmhyZWY9IiNEZWphVnVTYW5zLTMyIi8+JiN4YTsgICAgICA8L2c+JiN4YTsgICAgIDwvZz4mI3hhOyAgICA8L2c+JiN4YTsgICAgPGcgaWQ9Inh0aWNrXzQiPiYjeGE7ICAgICA8ZyBpZD0ibGluZTJkXzQiPiYjeGE7ICAgICAgPGc+JiN4YTsgICAgICAgPHVzZSBzdHlsZT0ic3Ryb2tlOiAjMDAwMDAwIiB5PSIyOTAuNDM2IiB4PSIyNDAuNjIxOTQyIiB4bGluazpocmVmPSIjbTkzNGI5YjFjOTEiLz4mI3hhOyAgICAgIDwvZz4mI3hhOyAgICAgPC9nPiYjeGE7ICAgICA8ZyBpZD0idGV4dF80Ij4mI3hhOyAgICAgICYjeGE7ICAgICAgPGcgdHJhbnNmb3JtPSJ0cmFuc2xhdGUoMjMzLjE1MTk0MiAzMDcuNDM2KSBzY2FsZSgwLjE4IC0wLjE4KSI+JiN4YTsgICAgICAgPGRlZnM+JiN4YTsgICAgICAgIDxwYXRoIHRyYW5zZm9ybT0ic2NhbGUoMC4wMTU2MjUpIiBkPSJNIDI1OTcgMjUxNiAmIzEwO1EgMzA1MCAyNDE5IDMzMDQgMjExMiAmIzEwO1EgMzU1OSAxODA2IDM1NTkgMTM1NiAmIzEwO1EgMzU1OSA2NjYgMzA4NCAyODcgJiMxMDtRIDI2MDkgLTkxIDE3MzQgLTkxICYjMTA7USAxNDQxIC05MSAxMTMwIC0zMyAmIzEwO1EgODE5IDI1IDQ4OCAxNDEgJiMxMDtMIDQ4OCA3NTAgJiMxMDtRIDc1MCA1OTcgMTA2MiA1MTkgJiMxMDtRIDEzNzUgNDQxIDE3MTYgNDQxICYjMTA7USAyMzA5IDQ0MSAyNjIwIDY3NSAmIzEwO1EgMjkzMSA5MDkgMjkzMSAxMzU2ICYjMTA7USAyOTMxIDE3NjkgMjY0MiAyMDAxICYjMTA7USAyMzUzIDIyMzQgMTgzOCAyMjM0ICYjMTA7TCAxMjk0IDIyMzQgJiMxMDtMIDEyOTQgMjc1MyAmIzEwO0wgMTg2MyAyNzUzICYjMTA7USAyMzI4IDI3NTMgMjU3NSAyOTM5ICYjMTA7USAyODIyIDMxMjUgMjgyMiAzNDc1ICYjMTA7USAyODIyIDM4MzQgMjU2NyA0MDI2ICYjMTA7USAyMzEzIDQyMTkgMTgzOCA0MjE5ICYjMTA7USAxNTc4IDQyMTkgMTI4MSA0MTYyICYjMTA7USA5ODQgNDEwNiA2MjggMzk4OCAmIzEwO0wgNjI4IDQ1NTAgJiMxMDtRIDk4OCA0NjUwIDEzMDIgNDcwMCAmIzEwO1EgMTYxNiA0NzUwIDE4OTQgNDc1MCAmIzEwO1EgMjYxMyA0NzUwIDMwMzEgNDQyMyAmIzEwO1EgMzQ1MCA0MDk3IDM0NTAgMzU0MSAmIzEwO1EgMzQ1MCAzMTUzIDMyMjggMjg4NiAmIzEwO1EgMzAwNiAyNjE5IDI1OTcgMjUxNiAmIzEwO3oiIGlkPSJEZWphVnVTYW5zLTMzIi8+JiN4YTsgICAgICAgPC9kZWZzPiYjeGE7ICAgICAgIDx1c2UgdHJhbnNmb3JtPSJ0cmFuc2xhdGUoMCAwLjAxNTYyNSkiIHhsaW5rOmhyZWY9IiNEZWphVnVTYW5zLU9ibGlxdWUtNjYiLz4mI3hhOyAgICAgICA8dXNlIHRyYW5zZm9ybT0idHJhbnNsYXRlKDM1LjIwNTA3OCAtMTYuMzkwNjI1KSBzY2FsZSgwLjcpIiB4bGluazpocmVmPSIjRGVqYVZ1U2Fucy0zMyIvPiYjeGE7ICAgICAgPC9nPiYjeGE7ICAgICA8L2c+JiN4YTsgICAgPC9nPiYjeGE7ICAgIDxnIGlkPSJ4dGlja181Ij4mI3hhOyAgICAgPGcgaWQ9ImxpbmUyZF81Ij4mI3hhOyAgICAgIDxnPiYjeGE7ICAgICAgIDx1c2Ugc3R5bGU9InN0cm9rZTogIzAwMDAwMCIgeT0iMjkwLjQzNiIgeD0iMjcyLjU4ODA1OCIgeGxpbms6aHJlZj0iI205MzRiOWIxYzkxIi8+JiN4YTsgICAgICA8L2c+JiN4YTsgICAgIDwvZz4mI3hhOyAgICAgPGcgaWQ9InRleHRfNSI+JiN4YTsgICAgICAmI3hhOyAgICAgIDxnIHRyYW5zZm9ybT0idHJhbnNsYXRlKDI2NS4xMTgwNTggMzA3LjQxOTEyNSkgc2NhbGUoMC4xOCAtMC4xOCkiPiYjeGE7ICAgICAgIDxkZWZzPiYjeGE7ICAgICAgICA8cGF0aCB0cmFuc2Zvcm09InNjYWxlKDAuMDE1NjI1KSIgZD0iTSAyNDE5IDQxMTYgJiMxMDtMIDgyNSAxNjI1ICYjMTA7TCAyNDE5IDE2MjUgJiMxMDtMIDI0MTkgNDExNiAmIzEwO3omIzEwO00gMjI1MyA0NjY2ICYjMTA7TCAzMDQ3IDQ2NjYgJiMxMDtMIDMwNDcgMTYyNSAmIzEwO0wgMzcxMyAxNjI1ICYjMTA7TCAzNzEzIDExMDAgJiMxMDtMIDMwNDcgMTEwMCAmIzEwO0wgMzA0NyAwICYjMTA7TCAyNDE5IDAgJiMxMDtMIDI0MTkgMTEwMCAmIzEwO0wgMzEzIDExMDAgJiMxMDtMIDMxMyAxNzA5ICYjMTA7TCAyMjUzIDQ2NjYgJiMxMDt6IiBpZD0iRGVqYVZ1U2Fucy0zNCIvPiYjeGE7ICAgICAgIDwvZGVmcz4mI3hhOyAgICAgICA8dXNlIHRyYW5zZm9ybT0idHJhbnNsYXRlKDAgMC4wMTU2MjUpIiB4bGluazpocmVmPSIjRGVqYVZ1U2Fucy1PYmxpcXVlLTY2Ii8+JiN4YTsgICAgICAgPHVzZSB0cmFuc2Zvcm09InRyYW5zbGF0ZSgzNS4yMDUwNzggLTE2LjM5MDYyNSkgc2NhbGUoMC43KSIgeGxpbms6aHJlZj0iI0RlamFWdVNhbnMtMzQiLz4mI3hhOyAgICAgIDwvZz4mI3hhOyAgICAgPC9nPiYjeGE7ICAgIDwvZz4mI3hhOyAgICA8ZyBpZD0ieHRpY2tfNiI+JiN4YTsgICAgIDxnIGlkPSJsaW5lMmRfNiI+JiN4YTsgICAgICA8Zz4mI3hhOyAgICAgICA8dXNlIHN0eWxlPSJzdHJva2U6ICMwMDAwMDAiIHk9IjI5MC40MzYiIHg9IjMwNC41NTQxNzQiIHhsaW5rOmhyZWY9IiNtOTM0YjliMWM5MSIvPiYjeGE7ICAgICAgPC9nPiYjeGE7ICAgICA8L2c+JiN4YTsgICAgIDxnIGlkPSJ0ZXh0XzYiPiYjeGE7ICAgICAgJiN4YTsgICAgICA8ZyB0cmFuc2Zvcm09InRyYW5zbGF0ZSgyOTcuMDg0MTc0IDMwNy40MzYpIHNjYWxlKDAuMTggLTAuMTgpIj4mI3hhOyAgICAgICA8ZGVmcz4mI3hhOyAgICAgICAgPHBhdGggdHJhbnNmb3JtPSJzY2FsZSgwLjAxNTYyNSkiIGQ9Ik0gNjkxIDQ2NjYgJiMxMDtMIDMxNjkgNDY2NiAmIzEwO0wgMzE2OSA0MTM0ICYjMTA7TCAxMjY5IDQxMzQgJiMxMDtMIDEyNjkgMjk5MSAmIzEwO1EgMTQwNiAzMDM4IDE1NDMgMzA2MSAmIzEwO1EgMTY4MSAzMDg0IDE4MTkgMzA4NCAmIzEwO1EgMjYwMCAzMDg0IDMwNTYgMjY1NiAmIzEwO1EgMzUxMyAyMjI4IDM1MTMgMTQ5NyAmIzEwO1EgMzUxMyA3NDQgMzA0NCAzMjYgJiMxMDtRIDI1NzUgLTkxIDE3MjIgLTkxICYjMTA7USAxNDI4IC05MSAxMTIzIC00MSAmIzEwO1EgODE5IDkgNDk0IDEwOSAmIzEwO0wgNDk0IDc0NCAmIzEwO1EgNzc1IDU5MSAxMDc1IDUxNiAmIzEwO1EgMTM3NSA0NDEgMTcwOSA0NDEgJiMxMDtRIDIyNTAgNDQxIDI1NjUgNzI1ICYjMTA7USAyODgxIDEwMDkgMjg4MSAxNDk3ICYjMTA7USAyODgxIDE5ODQgMjU2NSAyMjY4ICYjMTA7USAyMjUwIDI1NTMgMTcwOSAyNTUzICYjMTA7USAxNDU2IDI1NTMgMTIwNCAyNDk3ICYjMTA7USA5NTMgMjQ0MSA2OTEgMjMyMiAmIzEwO0wgNjkxIDQ2NjYgJiMxMDt6IiBpZD0iRGVqYVZ1U2Fucy0zNSIvPiYjeGE7ICAgICAgIDwvZGVmcz4mI3hhOyAgICAgICA8dXNlIHRyYW5zZm9ybT0idHJhbnNsYXRlKDAgMC4wMTU2MjUpIiB4bGluazpocmVmPSIjRGVqYVZ1U2Fucy1PYmxpcXVlLTY2Ii8+JiN4YTsgICAgICAgPHVzZSB0cmFuc2Zvcm09InRyYW5zbGF0ZSgzNS4yMDUwNzggLTE2LjM5MDYyNSkgc2NhbGUoMC43KSIgeGxpbms6aHJlZj0iI0RlamFWdVNhbnMtMzUiLz4mI3hhOyAgICAgIDwvZz4mI3hhOyAgICAgPC9nPiYjeGE7ICAgIDwvZz4mI3hhOyAgICA8ZyBpZD0ieHRpY2tfNyI+JiN4YTsgICAgIDxnIGlkPSJsaW5lMmRfNyI+JiN4YTsgICAgICA8Zz4mI3hhOyAgICAgICA8dXNlIHN0eWxlPSJzdHJva2U6ICMwMDAwMDAiIHk9IjI5MC40MzYiIHg9IjMzNi41MjAyODkiIHhsaW5rOmhyZWY9IiNtOTM0YjliMWM5MSIvPiYjeGE7ICAgICAgPC9nPiYjeGE7ICAgICA8L2c+JiN4YTsgICAgIDxnIGlkPSJ0ZXh0XzciPiYjeGE7ICAgICAgJiN4YTsgICAgICA8ZyB0cmFuc2Zvcm09InRyYW5zbGF0ZSgzMjkuMDUwMjg5IDMwNy40MzYpIHNjYWxlKDAuMTggLTAuMTgpIj4mI3hhOyAgICAgICA8ZGVmcz4mI3hhOyAgICAgICAgPHBhdGggdHJhbnNmb3JtPSJzY2FsZSgwLjAxNTYyNSkiIGQ9Ik0gMjExMyAyNTg0ICYjMTA7USAxNjg4IDI1ODQgMTQzOSAyMjkzICYjMTA7USAxMTkxIDIwMDMgMTE5MSAxNDk3ICYjMTA7USAxMTkxIDk5NCAxNDM5IDcwMSAmIzEwO1EgMTY4OCA0MDkgMjExMyA0MDkgJiMxMDtRIDI1MzggNDA5IDI3ODYgNzAxICYjMTA7USAzMDM0IDk5NCAzMDM0IDE0OTcgJiMxMDtRIDMwMzQgMjAwMyAyNzg2IDIyOTMgJiMxMDtRIDI1MzggMjU4NCAyMTEzIDI1ODQgJiMxMDt6JiMxMDtNIDMzNjYgNDU2MyAmIzEwO0wgMzM2NiAzOTg4ICYjMTA7USAzMTI4IDQxMDAgMjg4NiA0MTU5ICYjMTA7USAyNjQ0IDQyMTkgMjQwNiA0MjE5ICYjMTA7USAxNzgxIDQyMTkgMTQ1MSAzNzk3ICYjMTA7USAxMTIyIDMzNzUgMTA3NSAyNTIyICYjMTA7USAxMjU5IDI3OTQgMTUzNyAyOTM5ICYjMTA7USAxODE2IDMwODQgMjE1MCAzMDg0ICYjMTA7USAyODUzIDMwODQgMzI2MSAyNjU3ICYjMTA7USAzNjY5IDIyMzEgMzY2OSAxNDk3ICYjMTA7USAzNjY5IDc3OCAzMjQ0IDM0MyAmIzEwO1EgMjgxOSAtOTEgMjExMyAtOTEgJiMxMDtRIDEzMDMgLTkxIDg3NSA1MjkgJiMxMDtRIDQ0NyAxMTUwIDQ0NyAyMzI4ICYjMTA7USA0NDcgMzQzNCA5NzIgNDA5MiAmIzEwO1EgMTQ5NyA0NzUwIDIzODEgNDc1MCAmIzEwO1EgMjYxOSA0NzUwIDI4NjEgNDcwMyAmIzEwO1EgMzEwMyA0NjU2IDMzNjYgNDU2MyAmIzEwO3oiIGlkPSJEZWphVnVTYW5zLTM2Ii8+JiN4YTsgICAgICAgPC9kZWZzPiYjeGE7ICAgICAgIDx1c2UgdHJhbnNmb3JtPSJ0cmFuc2xhdGUoMCAwLjAxNTYyNSkiIHhsaW5rOmhyZWY9IiNEZWphVnVTYW5zLU9ibGlxdWUtNjYiLz4mI3hhOyAgICAgICA8dXNlIHRyYW5zZm9ybT0idHJhbnNsYXRlKDM1LjIwNTA3OCAtMTYuMzkwNjI1KSBzY2FsZSgwLjcpIiB4bGluazpocmVmPSIjRGVqYVZ1U2Fucy0zNiIvPiYjeGE7ICAgICAgPC9nPiYjeGE7ICAgICA8L2c+JiN4YTsgICAgPC9nPiYjeGE7ICAgIDxnIGlkPSJ4dGlja184Ij4mI3hhOyAgICAgPGcgaWQ9ImxpbmUyZF84Ij4mI3hhOyAgICAgIDxnPiYjeGE7ICAgICAgIDx1c2Ugc3R5bGU9InN0cm9rZTogIzAwMDAwMCIgeT0iMjkwLjQzNiIgeD0iMzY4LjQ4NjQwNSIgeGxpbms6aHJlZj0iI205MzRiOWIxYzkxIi8+JiN4YTsgICAgICA8L2c+JiN4YTsgICAgIDwvZz4mI3hhOyAgICAgPGcgaWQ9InRleHRfOCI+JiN4YTsgICAgICAmI3hhOyAgICAgIDxnIHRyYW5zZm9ybT0idHJhbnNsYXRlKDM2MS4wMTY0MDUgMzA3LjQxOTEyNSkgc2NhbGUoMC4xOCAtMC4xOCkiPiYjeGE7ICAgICAgIDxkZWZzPiYjeGE7ICAgICAgICA8cGF0aCB0cmFuc2Zvcm09InNjYWxlKDAuMDE1NjI1KSIgZD0iTSA1MjUgNDY2NiAmIzEwO0wgMzUyNSA0NjY2ICYjMTA7TCAzNTI1IDQzOTcgJiMxMDtMIDE4MzEgMCAmIzEwO0wgMTE3MiAwICYjMTA7TCAyNzY2IDQxMzQgJiMxMDtMIDUyNSA0MTM0ICYjMTA7TCA1MjUgNDY2NiAmIzEwO3oiIGlkPSJEZWphVnVTYW5zLTM3Ii8+JiN4YTsgICAgICAgPC9kZWZzPiYjeGE7ICAgICAgIDx1c2UgdHJhbnNmb3JtPSJ0cmFuc2xhdGUoMCAwLjAxNTYyNSkiIHhsaW5rOmhyZWY9IiNEZWphVnVTYW5zLU9ibGlxdWUtNjYiLz4mI3hhOyAgICAgICA8dXNlIHRyYW5zZm9ybT0idHJhbnNsYXRlKDM1LjIwNTA3OCAtMTYuMzkwNjI1KSBzY2FsZSgwLjcpIiB4bGluazpocmVmPSIjRGVqYVZ1U2Fucy0zNyIvPiYjeGE7ICAgICAgPC9nPiYjeGE7ICAgICA8L2c+JiN4YTsgICAgPC9nPiYjeGE7ICAgIDxnIGlkPSJ0ZXh0XzkiPiYjeGE7ICAgICAmI3hhOyAgICAgPGcgdHJhbnNmb3JtPSJ0cmFuc2xhdGUoMjI5LjYwNSAzMjguMzM5MTI1KSBzY2FsZSgwLjE4IC0wLjE4KSI+JiN4YTsgICAgICA8ZGVmcz4mI3hhOyAgICAgICA8cGF0aCB0cmFuc2Zvcm09InNjYWxlKDAuMDE1NjI1KSIgZD0iTSA1NjM4IDQ5ODQgJiMxMDtMIDU2MzggMTkxICYjMTA7USA1NjM4IC03NSA1NTM0IC0xODggJiMxMDtRIDU0MDkgLTM0MSA0OTc1IC0zNDEgJiMxMDtRIDQ1ODEgLTM0MSAzOTY2IC0yOTQgJiMxMDtMIDM4NTkgMjA5ICYjMTA7USA0NDIyIDEzNCA0ODUwIDEzNCAmIzEwO1EgNTA2OSAxMzQgNTEzMSAyMjUgJiMxMDtRIDUxNjkgMjkxIDUxNjkgNDQxICYjMTA7TCA1MTY5IDQ1NzUgJiMxMDtMIDEzNzggNDU3NSAmIzEwO0wgMTM3OCAyNzUwICYjMTA7USAxMzc4IDE0MDAgMTI4OCA4MDAgJiMxMDtRIDExODQgNzggNzgxIC01MDAgJiMxMDtMIDM5MSAtMTE2ICYjMTA7USA3NDEgMzUwIDgzOCAxMTA2ICYjMTA7USA5MDkgMTY1MCA5MDkgMjY1NiAmIzEwO0wgOTA5IDQ5ODQgJiMxMDtMIDU2MzggNDk4NCAmIzEwO3omIzEwO00gMjQ2MyA3MDMgJiMxMDtMIDI0NjMgMjIyICYjMTA7TCAyMDIyIDIyMiAmIzEwO0wgMjAyMiAyMTE5ICYjMTA7TCA0NDQ3IDIxMTkgJiMxMDtMIDQ0NDcgNzAzICYjMTA7TCAyNDYzIDcwMyAmIzEwO3omIzEwO00gNDAwNiAxMDc1ICYjMTA7TCA0MDA2IDE3NDcgJiMxMDtMIDI0NjMgMTc0NyAmIzEwO0wgMjQ2MyAxMDc1ICYjMTA7TCA0MDA2IDEwNzUgJiMxMDt6JiMxMDtNIDM0NDQgMzgxNiAmIzEwO0wgNDc0NCAzODE2ICYjMTA7TCA0NzQ0IDM0MzggJiMxMDtMIDM0NDQgMzQzOCAmIzEwO0wgMzQ0NCAyOTEzICYjMTA7TCA0OTQxIDI5MTMgJiMxMDtMIDQ5NDEgMjUzNCAmIzEwO0wgMTYwNiAyNTM0ICYjMTA7TCAxNjA2IDI5MTMgJiMxMDtMIDMwMDAgMjkxMyAmIzEwO0wgMzAwMCAzNDM4ICYjMTA7TCAxODAzIDM0MzggJiMxMDtMIDE4MDMgMzgxNiAmIzEwO0wgMzAwMCAzODE2ICYjMTA7TCAzMDAwIDQzNDcgJiMxMDtMIDM0NDQgNDM0NyAmIzEwO0wgMzQ0NCAzODE2ICYjMTA7eiIgaWQ9IklQQWV4R290aGljLTU0NjgiLz4mI3hhOyAgICAgICA8cGF0aCB0cmFuc2Zvcm09InNjYWxlKDAuMDE1NjI1KSIgZD0iTSA0NjQxIDgzOCAmIzEwO1EgNTIxOSAzODEgNjA5NyAzOCAmIzEwO0wgNTc5MSAtMzg0ICYjMTA7USA0OTE5IC02IDQzMjUgNTEzICYjMTA7USAzNTkxIC0xNDQgMjc5NCAtNTAwICYjMTA7TCAyNDg4IC0xMDMgJiMxMDtRIDMzNTAgMTg4IDQwMDYgODI1ICYjMTA7USAzMzk3IDE0NzIgMzA1NiAyNDAwICYjMTA7TCAyNzU2IDI0MDAgJiMxMDtMIDI3NTYgMjM0NCAmIzEwO1EgMjc0NyAxMjYzIDI1MTMgNTYzICYjMTA7USAyMzQ0IDUzIDE5NjMgLTQ1MyAmIzEwO0wgMTYxMyAtMTIyICYjMTA7USAyMTEzIDUyNSAyMjM4IDEyODggJiMxMDtRIDIzMTYgMTc1NiAyMzE2IDI1MDMgJiMxMDtMIDIzMTYgNDM3OCAmIzEwO0wgMzg2NiA0Mzc4ICYjMTA7TCAzODY2IDUzMTMgJiMxMDtMIDQzMDYgNTMxMyAmIzEwO0wgNDMwNiA0Mzc4ICYjMTA7TCA1NzUzIDQzNzggJiMxMDtMIDYwMTYgNDE0MSAmIzEwO1EgNTgzOCAzNTk3IDU1MjIgMzA2NiAmIzEwO0wgNTEwMCAzMjM4ICYjMTA7USA1MzIyIDM1ODQgNTQ2NiAzOTY5ICYjMTA7TCA0MzA2IDM5NjkgJiMxMDtMIDQzMDYgMjc5NyAmIzEwO0wgNTQyNSAyNzk3ICYjMTA7TCA1Njg4IDI1NDcgJiMxMDtRIDUyMzEgMTQ2OSA0NjQxIDgzOCAmIzEwO3omIzEwO00gNDMwNiAxMTQxICYjMTA7USA0ODUwIDE3OTcgNTExMyAyNDAwICYjMTA7TCAzNTE5IDI0MDAgJiMxMDtRIDM4MzggMTYzOCA0MzA2IDExNDEgJiMxMDt6JiMxMDtNIDM4NjYgMzk2OSAmIzEwO0wgMjc1NiAzOTY5ICYjMTA7TCAyNzU2IDI3OTcgJiMxMDtMIDM4NjYgMjc5NyAmIzEwO0wgMzg2NiAzOTY5ICYjMTA7eiYjMTA7TSA0MDkgNiAmIzEwO1EgMTAxMyA3NjkgMTUyNSAxOTE5ICYjMTA7TCAxODU2IDE1NjMgJiMxMDtRIDEzODggNDYzIDc4OCAtMzkxICYjMTA7TCA0MDkgNiAmIzEwO3omIzEwO00gMTM0NCAyMzg4ICYjMTA7USA5MTkgMjg2OSAzODQgMzIzOCAmIzEwO0wgNjg0IDM1OTcgJiMxMDtRIDEyMjUgMzIzNCAxNjcyIDI3NTkgJiMxMDtMIDEzNDQgMjM4OCAmIzEwO3omIzEwO00gMTUyNSAzODY2ICYjMTA7USAxMDQ3IDQzODEgNTk3IDQ3MDMgJiMxMDtMIDkwMyA1MDYzICYjMTA7USAxMzg0IDQ3MzggMTg0NCA0MjUwICYjMTA7TCAxNTI1IDM4NjYgJiMxMDt6IiBpZD0iSVBBZXhHb3RoaWMtNmNlMiIvPiYjeGE7ICAgICAgIDxwYXRoIHRyYW5zZm9ybT0ic2NhbGUoMC4wMTU2MjUpIiBkPSJNIDI4NDcgMTU1MyAmIzEwO1EgMjc0MSAxMDA2IDI0MjUgNTM0ICYjMTA7USAyNjI1IDQ0MSAzMDkxIDIwMyAmIzEwO0wgMjgwOSAtMTg4ICYjMTA7USAyNTQxIDAgMjE0NCAyMDkgJiMxMDtRIDE1NjkgLTI5MSA3MDMgLTUwMCAmIzEwO0wgNDIyIC0xMjUgJiMxMDtRIDEyNjMgMTkgMTc0NyA0MDYgJiMxMDtRIDEyMjIgNjUwIDczNCA4MTYgJiMxMDtRIDk3NSAxMTcyIDExNDcgMTUwMyAmIzEwO0wgMTE3MiAxNTUzICYjMTA7TCAzNTkgMTU1MyAmIzEwO0wgMzU5IDE5MjUgJiMxMDtMIDEzNDQgMTkyNSAmIzEwO1EgMTQwNiAyMDY2IDE1NjkgMjQ3NSAmIzEwO0wgMTY5MSAyNDUwICYjMTA7TCAxNjkxIDMzNzIgJiMxMDtRIDEyNTAgMjczOCA1NTAgMjMwMyAmIzEwO0wgMjc1IDI2NjMgJiMxMDtRIDEwMTkgMzAxMyAxNTI4IDM2NDEgJiMxMDtMIDM3OCAzNjQxICYjMTA7TCAzNzggNDAwNiAmIzEwO0wgMTY5MSA0MDA2ICYjMTA7TCAxNjkxIDUzMTMgJiMxMDtMIDIxMTMgNTMxMyAmIzEwO0wgMjExMyA0MDA2ICYjMTA7TCAzMjk3IDQwMDYgJiMxMDtMIDMyOTcgMzY0MSAmIzEwO0wgMjExMyAzNjQxICYjMTA7TCAyMTEzIDM1MTMgJiMxMDtRIDI2NTkgMzI5MSAzMTc1IDI5NjMgJiMxMDtMIDI5NTYgMjU4NCAmIzEwO1EgMjU1MyAyOTIyIDIxMTMgMzE1OSAmIzEwO0wgMjExMyAyMzcyICYjMTA7TCAxOTY2IDIzNzIgJiMxMDtRIDE5MjggMjI4OCAxODcyIDIxNDEgJiMxMDtRIDE4MDYgMTk3NSAxNzg0IDE5MjUgJiMxMDtMIDMzNzggMTkyNSAmIzEwO0wgMzM3OCAxNTUzICYjMTA7TCAyODQ3IDE1NTMgJiMxMDt6JiMxMDtNIDI0MTkgMTU1MyAmIzEwO0wgMTYxMyAxNTUzICYjMTA7USAxNDc4IDEyNjkgMTMxMyA5OTcgJiMxMDtRIDE1NTkgOTA5IDIwNDcgNzAzICYjMTA7USAyMzEzIDEwNDcgMjQxOSAxNTUzICYjMTA7eiYjMTA7TSA0MzYzIDExNjMgJiMxMDtRIDM5NTMgMTc4MSAzNzM4IDI2MzggJiMxMDtRIDM1NzUgMjI4MSAzNDI4IDIwMTYgJiMxMDtMIDMxMDMgMjQwNiAmIzEwO1EgMzY3NSAzNDQ0IDM5MTYgNTI5MSAmIzEwO0wgNDM2MyA1MjAwICYjMTA7USA0Mjg0IDQ2NjYgNDE5NyA0MTk3ICYjMTA7TCA2MDA5IDQxOTcgJiMxMDtMIDYwMDkgMzc3NSAmIzEwO0wgNTUwMyAzNzc1ICYjMTA7USA1Mzk3IDIyNzUgNDg2OSAxMTkxICYjMTA7USA1NDE5IDUwMyA2MTQ0IDc1ICYjMTA7TCA1ODIyIC0zNzggJiMxMDtRIDUxODggMTA2IDQ2MzEgNzg4ICYjMTA7USA0MTEzIDM0IDMzNDEgLTQ2MyAmIzEwO0wgMzAzMSAtNzggJiMxMDtRIDM4ODggNDA2IDQzNjMgMTE2MyAmIzEwO3omIzEwO00gNDU4OCAxNTk0ICYjMTA7USA0OTM4IDIzODggNTA1OSAzNzc1ICYjMTA7TCA0MTAwIDM3NzUgJiMxMDtRIDQwNDEgMzUxOSAzOTcyIDMyODggJiMxMDtRIDM5ODEgMzI1MCAzOTkxIDMxOTQgJiMxMDtRIDQxNzUgMjI1NiA0NTg4IDE1OTQgJiMxMDt6JiMxMDtNIDEwMDMgNDExNiAmIzEwO1EgODc4IDQ1NDQgNjM4IDQ5MzQgJiMxMDtMIDEwNTMgNTA5NCAmIzEwO1EgMTI0NyA0Nzg4IDE0MzggNDI2OSAmIzEwO0wgMTAwMyA0MTE2ICYjMTA7eiYjMTA7TSAyMzE2IDQyNjkgJiMxMDtRIDI1NTAgNDY4OCAyNjg4IDUxMzEgJiMxMDtMIDMxMjggNDk5NyAmIzEwO1EgMjk2NiA0NTg4IDI2NzUgNDEyOCAmIzEwO0wgMjMxNiA0MjY5ICYjMTA7eiIgaWQ9IklQQWV4R290aGljLTY1NzAiLz4mI3hhOyAgICAgIDwvZGVmcz4mI3hhOyAgICAgIDx1c2UgeGxpbms6aHJlZj0iI0lQQWV4R290aGljLTU0NjgiLz4mI3hhOyAgICAgIDx1c2UgeD0iMTAwIiB4bGluazpocmVmPSIjSVBBZXhHb3RoaWMtNmNlMiIvPiYjeGE7ICAgICAgPHVzZSB4PSIyMDAiIHhsaW5rOmhyZWY9IiNJUEFleEdvdGhpYy02NTcwIi8+JiN4YTsgICAgIDwvZz4mI3hhOyAgICA8L2c+JiN4YTsgICA8L2c+JiN4YTsgICA8ZyBpZD0ibWF0cGxvdGxpYi5heGlzXzIiPiYjeGE7ICAgIDxnIGlkPSJ5dGlja18xIj4mI3hhOyAgICAgPGcgaWQ9ImxpbmUyZF85Ij4mI3hhOyAgICAgIDxkZWZzPiYjeGE7ICAgICAgIDxwYXRoIHN0eWxlPSJzdHJva2U6ICMwMDAwMDAiIGQ9Ik0gMCAwICYjMTA7TCAxMCAwIiBpZD0ibWJhY2NhZjJkZmEiLz4mI3hhOyAgICAgIDwvZGVmcz4mI3hhOyAgICAgIDxnPiYjeGE7ICAgICAgIDx1c2Ugc3R5bGU9InN0cm9rZTogIzAwMDAwMCIgeT0iMjc3LjcyNTI3MyIgeD0iNjMuMjEiIHhsaW5rOmhyZWY9IiNtYmFjY2FmMmRmYSIvPiYjeGE7ICAgICAgPC9nPiYjeGE7ICAgICA8L2c+JiN4YTsgICAgIDxnIGlkPSJ0ZXh0XzEwIj4mI3hhOyAgICAgICYjeGE7ICAgICAgPGcgdHJhbnNmb3JtPSJ0cmFuc2xhdGUoMzIuMjc5Njg4IDI4NC40NjY4MzUpIHNjYWxlKDAuMTggLTAuMTgpIj4mI3hhOyAgICAgICA8ZGVmcz4mI3hhOyAgICAgICAgPHBhdGggdHJhbnNmb3JtPSJzY2FsZSgwLjAxNTYyNSkiIGQ9Ik0gMjAzOCA0NzI1ICYjMTA7USAyODgxIDQ3MjUgMzMzNCAzOTQ0ICYjMTA7USAzNjk0IDMzMjUgMzY5NCAyMzQ0ICYjMTA7USAzNjk0IDEzNzIgMzMzNCA3NDEgJiMxMDtRIDI4ODggLTMxIDIwMTYgLTMxICYjMTA7USAxMTQ3IC0zMSA3MDAgNzQxICYjMTA7USAzNDEgMTM3MiAzNDEgMjM1MCAmIzEwO1EgMzQxIDM3MTMgMTAwMCA0MzM0ICYjMTA7USAxNDE5IDQ3MjUgMjAzOCA0NzI1ICYjMTA7eiYjMTA7TSAyMDE2IDQyNjYgJiMxMDtRIDE1MTYgNDI2NiAxMjI4IDM3NTkgJiMxMDtRIDkzNCAzMjQ3IDkzNCAyMzQ0ICYjMTA7USA5MzQgMTQ1NiAxMjIyIDk0NyAmIzEwO1EgMTUxMyA0NDcgMjAxNiA0NDcgJiMxMDtRIDI2MTkgNDQ3IDI5MDkgMTE1MyAmIzEwO1EgMzEwMCAxNjIyIDMxMDAgMjM3NSAmIzEwO1EgMzEwMCAzMjU2IDI4MDYgMzc1OSAmIzEwO1EgMjUwOSA0MjY2IDIwMTYgNDI2NiAmIzEwO3oiIGlkPSJJUEFleEdvdGhpYy0zMCIvPiYjeGE7ICAgICAgICA8cGF0aCB0cmFuc2Zvcm09InNjYWxlKDAuMDE1NjI1KSIgZD0iTSAxMTg0IDYzICYjMTA7TCA0OTQgNjMgJiMxMDtMIDQ5NCA3NTMgJiMxMDtMIDExODQgNzUzICYjMTA7TCAxMTg0IDYzICYjMTA7eiIgaWQ9IklQQWV4R290aGljLTJlIi8+JiN4YTsgICAgICAgPC9kZWZzPiYjeGE7ICAgICAgIDx1c2UgeGxpbms6aHJlZj0iI0lQQWV4R290aGljLTMwIi8+JiN4YTsgICAgICAgPHVzZSB4PSI2Mi45ODgyODEiIHhsaW5rOmhyZWY9IiNJUEFleEdvdGhpYy0yZSIvPiYjeGE7ICAgICAgIDx1c2UgeD0iODkuNDA0Mjk3IiB4bGluazpocmVmPSIjSVBBZXhHb3RoaWMtMzAiLz4mI3hhOyAgICAgIDwvZz4mI3hhOyAgICAgPC9nPiYjeGE7ICAgIDwvZz4mI3hhOyAgICA8ZyBpZD0ieXRpY2tfMiI+JiN4YTsgICAgIDxnIGlkPSJsaW5lMmRfMTAiPiYjeGE7ICAgICAgPGc+JiN4YTsgICAgICAgPHVzZSBzdHlsZT0ic3Ryb2tlOiAjMDAwMDAwIiB5PSIxNjIuMTczMjA3IiB4PSI2My4yMSIgeGxpbms6aHJlZj0iI21iYWNjYWYyZGZhIi8+JiN4YTsgICAgICA8L2c+JiN4YTsgICAgIDwvZz4mI3hhOyAgICAgPGcgaWQ9InRleHRfMTEiPiYjeGE7ICAgICAgJiN4YTsgICAgICA8ZyB0cmFuc2Zvcm09InRyYW5zbGF0ZSgzMi4yNzk2ODggMTY4LjkxNDc2OSkgc2NhbGUoMC4xOCAtMC4xOCkiPiYjeGE7ICAgICAgIDxkZWZzPiYjeGE7ICAgICAgICA8cGF0aCB0cmFuc2Zvcm09InNjYWxlKDAuMDE1NjI1KSIgZD0iTSAxMTc4IDI2MDMgJiMxMDtRIDE2MzQgMjk2MyAyMTcyIDI5NjMgJiMxMDtRIDI4MTYgMjk2MyAzMjQxIDI1MjggJiMxMDtRIDM2MzggMjExMyAzNjM4IDE0OTcgJiMxMDtRIDM2MzggOTM4IDMyOTcgNTEzICYjMTA7USAyODY5IC0zMSAyMDMxIC0zMSAmIzEwO1EgOTU5IC0zMSA0NjkgNzg0ICYjMTA7TCA5MzggMTAyOCAmIzEwO1EgMTMwOSA0MzQgMjAxMyA0MzQgJiMxMDtRIDI0NjYgNDM0IDI3NjkgNzE2ICYjMTA7USAzMDgxIDEwMTMgMzA4MSAxNTAzICYjMTA7USAzMDgxIDE5NjYgMjgwNiAyMjQxICYjMTA7USAyNTE5IDI1MjggMjA1NiAyNTI4ICYjMTA7USAxNDA2IDI1MjggMTA3MiAyMDI4ICYjMTA7TCA1OTEgMjA5MSAmIzEwO0wgODg0IDQ2MzQgJiMxMDtMIDM0MDYgNDYzNCAmIzEwO0wgMzQwNiA0MTUzICYjMTA7TCAxMzQxIDQxNTMgJiMxMDtMIDExMzQgMjYwMyAmIzEwO0wgMTE3OCAyNjAzICYjMTA7eiIgaWQ9IklQQWV4R290aGljLTM1Ii8+JiN4YTsgICAgICAgPC9kZWZzPiYjeGE7ICAgICAgIDx1c2UgeGxpbms6aHJlZj0iI0lQQWV4R290aGljLTMwIi8+JiN4YTsgICAgICAgPHVzZSB4PSI2Mi45ODgyODEiIHhsaW5rOmhyZWY9IiNJUEFleEdvdGhpYy0yZSIvPiYjeGE7ICAgICAgIDx1c2UgeD0iODkuNDA0Mjk3IiB4bGluazpocmVmPSIjSVBBZXhHb3RoaWMtMzUiLz4mI3hhOyAgICAgIDwvZz4mI3hhOyAgICAgPC9nPiYjeGE7ICAgIDwvZz4mI3hhOyAgICA8ZyBpZD0ieXRpY2tfMyI+JiN4YTsgICAgIDxnIGlkPSJsaW5lMmRfMTEiPiYjeGE7ICAgICAgPGc+JiN4YTsgICAgICAgPHVzZSBzdHlsZT0ic3Ryb2tlOiAjMDAwMDAwIiB5PSI0Ni42MjExNCIgeD0iNjMuMjEiIHhsaW5rOmhyZWY9IiNtYmFjY2FmMmRmYSIvPiYjeGE7ICAgICAgPC9nPiYjeGE7ICAgICA8L2c+JiN4YTsgICAgIDxnIGlkPSJ0ZXh0XzEyIj4mI3hhOyAgICAgICYjeGE7ICAgICAgPGcgdHJhbnNmb3JtPSJ0cmFuc2xhdGUoMzIuMjc5Njg4IDUzLjM2MjcwMykgc2NhbGUoMC4xOCAtMC4xOCkiPiYjeGE7ICAgICAgIDxkZWZzPiYjeGE7ICAgICAgICA8cGF0aCB0cmFuc2Zvcm09InNjYWxlKDAuMDE1NjI1KSIgZD0iTSAyNDYzIDYzICYjMTA7TCAxOTAwIDYzICYjMTA7TCAxOTAwIDQxMDMgJiMxMDtRIDEzNzIgMzkyMiA3ODggMzc5NyAmIzEwO0wgNjg0IDQyMzEgJiMxMDtRIDE1MTkgNDQ0MSAyMTA2IDQ3MzEgJiMxMDtMIDI0NjMgNDczMSAmIzEwO0wgMjQ2MyA2MyAmIzEwO3oiIGlkPSJJUEFleEdvdGhpYy0zMSIvPiYjeGE7ICAgICAgIDwvZGVmcz4mI3hhOyAgICAgICA8dXNlIHhsaW5rOmhyZWY9IiNJUEFleEdvdGhpYy0zMSIvPiYjeGE7ICAgICAgIDx1c2UgeD0iNjIuOTg4MjgxIiB4bGluazpocmVmPSIjSVBBZXhHb3RoaWMtMmUiLz4mI3hhOyAgICAgICA8dXNlIHg9Ijg5LjQwNDI5NyIgeGxpbms6aHJlZj0iI0lQQWV4R290aGljLTMwIi8+JiN4YTsgICAgICA8L2c+JiN4YTsgICAgIDwvZz4mI3hhOyAgICA8L2c+JiN4YTsgICAgPGcgaWQ9InRleHRfMTMiPiYjeGE7ICAgICAmI3hhOyAgICAgPGcgdHJhbnNmb3JtPSJ0cmFuc2xhdGUoMjQuODU5Njg4IDIxMy42MTgpIHJvdGF0ZSgtOTApIHNjYWxlKDAuMTggLTAuMTgpIj4mI3hhOyAgICAgIDxkZWZzPiYjeGE7ICAgICAgIDxwYXRoIHRyYW5zZm9ybT0ic2NhbGUoMC4wMTU2MjUpIiBkPSJNIDQzNTkgNDQ4MSAmIzEwO0wgNDcxNiA0MTQ3ICYjMTA7USA0MzI4IDMwNzIgMzY0NyAyMTUwICYjMTA7USA0NjU5IDE0MzQgNTY1OSA0NTMgJiMxMDtMIDUyMzQgMTkgJiMxMDtRIDQyNTYgMTA4OCAzMzUzIDE3NzggJiMxMDtRIDIzNzIgNTk3IDEwNDQgLTMxICYjMTA7TCA2NTMgNDAzICYjMTA7USAzMTI4IDE0NTMgNDA5NyA0MDAwICYjMTA7TCAxMjQxIDM5NjMgJiMxMDtMIDEyMjggNDQ1MyAmIzEwO0wgNDM1OSA0NDgxICYjMTA7eiIgaWQ9IklQQWV4R290aGljLTMwYjkiLz4mI3hhOyAgICAgICA8cGF0aCB0cmFuc2Zvcm09InNjYWxlKDAuMDE1NjI1KSIgZD0iTSA0MjggMTkzOCAmIzEwO1EgMTExOSAyNDk0IDIxMDAgMzYyOCAmIzEwO1EgMjM1NiAzOTIyIDI1NjYgMzkyMiAmIzEwO1EgMjc3MiAzOTIyIDMxODEgMzUzMSAmIzEwO1EgNDMyNSAyNDI1IDU5NTAgMTMwMyAmIzEwO0wgNTYwMCA4MTMgJiMxMDtRIDM5OTEgMjAyOCAyODE2IDMxODggJiMxMDtRIDI2NTMgMzM0MSAyNTg0IDMzNDEgJiMxMDtRIDI1MTMgMzM0MSAyMjkxIDMwNzIgJiMxMDtRIDE3MDMgMjMzMSA3NzUgMTQ3OCAmIzEwO0wgNDI4IDE5MzggJiMxMDt6JiMxMDtNIDQ3NTAgNDc1NiAmIzEwO1EgNTA1OSA0NzU2IDUyNjkgNDUyMiAmIzEwO1EgNTQ1MyA0MzE5IDU0NTMgNDA1MyAmIzEwO1EgNTQ1MyAzNzM4IDUyMTkgMzUyNSAmIzEwO1EgNTAxNiAzMzQxIDQ3NTAgMzM0MSAmIzEwO1EgNDQzNCAzMzQxIDQyMjIgMzU3NSAmIzEwO1EgNDAzOCAzNzc4IDQwMzggNDA1MyAmIzEwO1EgNDAzOCA0MzYzIDQyNzIgNDU3MiAmIzEwO1EgNDQ3OCA0NzU2IDQ3NTAgNDc1NiAmIzEwO3omIzEwO00gNDc1MCA0NDc1ICYjMTA7USA0NTU5IDQ0NzUgNDQyOCA0MzM0ICYjMTA7USA0MzE5IDQyMTMgNDMxOSA0MDUzICYjMTA7USA0MzE5IDM4NTkgNDQ1OSAzNzMxICYjMTA7USA0NTg0IDM2MjIgNDc1MCAzNjIyICYjMTA7USA0OTM0IDM2MjIgNTA2MyAzNzYzICYjMTA7USA1MTcyIDM4ODggNTE3MiA0MDUzICYjMTA7USA1MTcyIDQyMzggNTAzMSA0MzY2ICYjMTA7USA0OTA5IDQ0NzUgNDc1MCA0NDc1ICYjMTA7eiIgaWQ9IklQQWV4R290aGljLTMwZGEiLz4mI3hhOyAgICAgICA8cGF0aCB0cmFuc2Zvcm09InNjYWxlKDAuMDE1NjI1KSIgZD0iTSA0OTM0IDQxOTEgJiMxMDtMIDUyNzIgMzk0MSAmIzEwO1EgNDg5NCAyMzM0IDQwMzEgMTMwMCAmIzEwO1EgMzI3NSAzOTEgMjAyOCAtMjI1ICYjMTA7TCAxNjU2IDE4NCAmIzEwO1EgMjg3NSA2OTEgMzY0MSAxNjI1ICYjMTA7USA0NDAzIDI1NTMgNDY5MSAzNzMxICYjMTA7TCAyOTAzIDM3MzEgJiMxMDtRIDIxODggMjY1MyAxMzU2IDE5NTkgJiMxMDtMIDk3OCAyMzA5ICYjMTA7USAyMzI4IDM0MDAgMjkzMSA1MDIyICYjMTA7TCAzNDIyIDQ4ODEgJiMxMDtRIDMzNjMgNDY3MiAzMTQxIDQxOTEgJiMxMDtMIDQ5MzQgNDE5MSAmIzEwO3oiIGlkPSJJUEFleEdvdGhpYy0zMGFmIi8+JiN4YTsgICAgICAgPHBhdGggdHJhbnNmb3JtPSJzY2FsZSgwLjAxNTYyNSkiIGQ9Ik0gMjI4NCA0OTk3ICYjMTA7TCAyODAzIDQ5OTcgJiMxMDtMIDI4MDMgMzIwNiAmIzEwO1EgNDA4OCAyNjE5IDUyMTYgMTg4OCAmIzEwO0wgNDg3OCAxMzY5ICYjMTA7USAzODE5IDIxNzUgMjgwMyAyNjg4ICYjMTA7TCAyODAzIC0xODQgJiMxMDtMIDIyODQgLTE4NCAmIzEwO0wgMjI4NCA0OTk3ICYjMTA7eiIgaWQ9IklQQWV4R290aGljLTMwYzgiLz4mI3hhOyAgICAgICA8cGF0aCB0cmFuc2Zvcm09InNjYWxlKDAuMDE1NjI1KSIgZD0iTSAzNTMgMzMxICYjMTA7USAxMzEzIDk5NCAxNTQ0IDIwMjIgJiMxMDtRIDE2ODQgMjY1MCAxNjg0IDQzOTcgJiMxMDtMIDIyMDMgNDM5NyAmIzEwO0wgMjIwMyA0MTUzICYjMTA7TCAyMjAzIDQxMTYgJiMxMDtRIDIyMDMgMjI1OSAxOTM0IDE0OTEgJiMxMDtRIDE2MTkgNTg4IDc0NCAtMzggJiMxMDtMIDM1MyAzMzEgJiMxMDt6JiMxMDtNIDMxMjUgNDY2NiAmIzEwO0wgMzY1MCA0NjY2ICYjMTA7TCAzNjUwIDc2OSAmIzEwO1EgNDg3NSAxNDg4IDU2NzIgMjczNCAmIzEwO0wgNjAwMCAyMjc4ICYjMTA7USA1MDc1IDk2NiAzNTE2IDYzICYjMTA7TCAzMTI1IDM1OSAmIzEwO0wgMzEyNSA0NjY2ICYjMTA7eiIgaWQ9IklQQWV4R290aGljLTMwZWIiLz4mI3hhOyAgICAgICA8cGF0aCB0cmFuc2Zvcm09InNjYWxlKDAuMDE1NjI1KSIgZD0iTSAyMTQ0IDIyMjIgJiMxMDtRIDIwOTcgMzc1IDE5MjggLTE0MSAmIzEwO1EgMTgyMiAtNDY5IDEzNTYgLTQ2OSAmIzEwO1EgMTAyNSAtNDY5IDY4NCAtNDA5ICYjMTA7TCA2MjIgNTAgJiMxMDtRIDEwNTAgLTQxIDEyNTYgLTQxICYjMTA7USAxNDk3IC00MSAxNTQ0IDE1OSAmIzEwO1EgMTY1MyA1OTcgMTcwMyAxNzU5ICYjMTA7TCAxNzAzIDE4MzEgJiMxMDtMIDgxOSAxODMxICYjMTA7USA3OTEgMTYwMyA3NTYgMTM4NCAmIzEwO0wgMzUzIDE0NzggJiMxMDtRIDUyOCAyNjQ0IDU1NiAzNTk3ICYjMTA7TCAxNjk3IDM1OTcgJiMxMDtMIDE2OTcgNDU4OCAmIzEwO0wgMzc4IDQ1ODggJiMxMDtMIDM3OCA0OTc4ICYjMTA7TCAyMTA2IDQ5NzggJiMxMDtMIDIxMDYgMjg4OCAmIzEwO0wgMTY5NyAyODg4ICYjMTA7TCAxNjk3IDMyMTMgJiMxMDtMIDk0MSAzMjEzICYjMTA7USA5MzQgMjg2OSA4NzIgMjIyMiAmIzEwO0wgMjE0NCAyMjIyICYjMTA7eiYjMTA7TSAzOTMxIDMzOTQgJiMxMDtMIDMzNzUgMzM0NyAmIzEwO1EgMjYyOCAzMjk0IDI0NTkgMzI4NCAmIzEwO0wgMjMzMSAzNzAwICYjMTA7USAyNzcyIDM3MDkgMjk2MyAzNzE5ICYjMTA7USAzNDMxIDQ0NTAgMzc3OCA1MzI1ICYjMTA7TCA0MjMxIDUxNzIgJiMxMDtRIDM4MDkgNDI4MSAzNDMxIDM3MzggJiMxMDtMIDM2NjkgMzc1MCAmIzEwO1EgNDQzNCAzNzg0IDUxNDcgMzg1OSAmIzEwO1EgNDg4OCA0MjI1IDQ2NzUgNDQ1NiAmIzEwO0wgNTAwMCA0Njc4ICYjMTA7USA1NTQ3IDQxMDMgNTk1OSAzNDUwICYjMTA7TCA1NTg4IDMxODggJiMxMDtRIDU0MTkgMzQ1NiA1MzU5IDM1NDcgJiMxMDtRIDQ5MDAgMzQ3OCA0MzQ3IDM0MzEgJiMxMDtMIDQzNDcgMjc4NCAmIzEwO0wgNTY2NiAyNzg0ICYjMTA7TCA1NjY2IDEyMDkgJiMxMDtMIDQzNDcgMTIwOSAmIzEwO0wgNDM0NyAyMzEgJiMxMDtRIDQ4NzIgMjcyIDUyODggMzMxICYjMTA7USA1MTE5IDY0NCA0OTQ0IDg4MSAmIzEwO0wgNTMyMiAxMDU2ICYjMTA7USA1NzcyIDQ3NSA2MDk0IC0yMzggJiMxMDtMIDU2NzggLTUwMCAmIzEwO1EgNTU5NCAtMjc4IDU0NTYgMTMgJiMxMDtMIDU0MTYgNiAmIzEwO1EgNDI3NSAtMjI1IDI0MDYgLTM1OSAmIzEwO0wgMjI1OSA5NyAmIzEwO1EgMzAxOSAxMjIgMzg1MyAxODQgJiMxMDtMIDM5MzEgMTkxICYjMTA7TCAzOTMxIDEyMDkgJiMxMDtMIDMwNTMgMTIwOSAmIzEwO0wgMzA1MyA4NDQgJiMxMDtMIDI2MzggODQ0ICYjMTA7TCAyNjM4IDI3ODQgJiMxMDtMIDM5MzEgMjc4NCAmIzEwO0wgMzkzMSAzMzk0ICYjMTA7eiYjMTA7TSAzOTMxIDI0MTMgJiMxMDtMIDMwNTMgMjQxMyAmIzEwO0wgMzA1MyAxNTgxICYjMTA7TCAzOTMxIDE1ODEgJiMxMDtMIDM5MzEgMjQxMyAmIzEwO3omIzEwO00gNDM0NyAyNDEzICYjMTA7TCA0MzQ3IDE1ODEgJiMxMDtMIDUyNDQgMTU4MSAmIzEwO0wgNTI0NCAyNDEzICYjMTA7TCA0MzQ3IDI0MTMgJiMxMDt6IiBpZD0iSVBBZXhHb3RoaWMtNWYzNyIvPiYjeGE7ICAgICAgIDxwYXRoIHRyYW5zZm9ybT0ic2NhbGUoMC4wMTU2MjUpIiBkPSJNIDM1MTYgNDYyMiAmIzEwO0wgNTc5NCA0NjIyICYjMTA7TCA1Nzk0IDQyMzEgJiMxMDtMIDEyNzggNDIzMSAmIzEwO0wgMTI3OCAzNTQ3ICYjMTA7TCAyMzI4IDM1NDcgJiMxMDtMIDIzMjggNDA0MSAmIzEwO0wgMjc1OSA0MDQxICYjMTA7TCAyNzU5IDM1NDcgJiMxMDtMIDQwOTcgMzU0NyAmIzEwO0wgNDA5NyA0MDQxICYjMTA7TCA0NTI1IDQwNDEgJiMxMDtMIDQ1MjUgMzU0NyAmIzEwO0wgNTgyNSAzNTQ3ICYjMTA7TCA1ODI1IDMxNjMgJiMxMDtMIDQ1MjUgMzE2MyAmIzEwO0wgNDUyNSAyMjY2ICYjMTA7TCAyMzI4IDIyNjYgJiMxMDtMIDIzMjggMzE2MyAmIzEwO0wgMTI3OCAzMTYzICYjMTA7TCAxMjc4IDI3NDcgJiMxMDtRIDEyNzggMTQzNCAxMTMxIDc3NSAmIzEwO1EgMTAwNiAyMDMgNjA2IC00NDEgJiMxMDtMIDI2OSAtNTAgJiMxMDtRIDY1MyA1NDEgNzYzIDEzODEgJiMxMDtRIDgyNSAxODY5IDgyNSAyNzQ3ICYjMTA7TCA4MjUgNDYyMiAmIzEwO0wgMzAzNCA0NjIyICYjMTA7TCAzMDM0IDUzMTMgJiMxMDtMIDM1MTYgNTMxMyAmIzEwO0wgMzUxNiA0NjIyICYjMTA7eiYjMTA7TSAyNzU5IDMxNjMgJiMxMDtMIDI3NTkgMjYxOSAmIzEwO0wgNDA5NyAyNjE5ICYjMTA7TCA0MDk3IDMxNjMgJiMxMDtMIDI3NTkgMzE2MyAmIzEwO3omIzEwO00gMzYwOSAyNjMgJiMxMDtRIDI3ODQgLTIzMSAxNDcyIC00OTQgJiMxMDtMIDEyMjIgLTk3ICYjMTA7USAyNDQ0IDYzIDMyMTMgNDkxICYjMTA7USAyNTQ0IDkwOSAyMTE5IDE1MjIgJiMxMDtMIDE1NzUgMTUyMiAmIzEwO0wgMTU3NSAxOTAwICYjMTA7TCA0ODk3IDE5MDAgJiMxMDtMIDUxMjUgMTcwMCAmIzEwO1EgNDYyOCA5OTQgMzk5NCA1MTYgJiMxMDtRIDQ3NjkgMjAwIDU5MjUgNTYgJiMxMDtMIDU2MzggLTM5NyAmIzEwO1EgNDQzNCAtMTYzIDM2MDkgMjYzICYjMTA7eiYjMTA7TSAyNjA2IDE1MjIgJiMxMDtRIDI5ODQgMTA0NCAzNTc4IDcxNiAmIzEwO1EgNDE2MyAxMTE5IDQ0MjIgMTUyMiAmIzEwO0wgMjYwNiAxNTIyICYjMTA7eiIgaWQ9IklQQWV4R290aGljLTVlYTYiLz4mI3hhOyAgICAgIDwvZGVmcz4mI3hhOyAgICAgIDx1c2UgeGxpbms6aHJlZj0iI0lQQWV4R290aGljLTMwYjkiLz4mI3hhOyAgICAgIDx1c2UgeD0iMTAwIiB4bGluazpocmVmPSIjSVBBZXhHb3RoaWMtMzBkYSIvPiYjeGE7ICAgICAgPHVzZSB4PSIyMDAiIHhsaW5rOmhyZWY9IiNJUEFleEdvdGhpYy0zMGFmIi8+JiN4YTsgICAgICA8dXNlIHg9IjMwMCIgeGxpbms6aHJlZj0iI0lQQWV4R290aGljLTMwYzgiLz4mI3hhOyAgICAgIDx1c2UgeD0iNDAwIiB4bGluazpocmVmPSIjSVBBZXhHb3RoaWMtMzBlYiIvPiYjeGE7ICAgICAgPHVzZSB4PSI1MDAiIHhsaW5rOmhyZWY9IiNJUEFleEdvdGhpYy01ZjM3Ii8+JiN4YTsgICAgICA8dXNlIHg9IjYwMCIgeGxpbms6aHJlZj0iI0lQQWV4R290aGljLTVlYTYiLz4mI3hhOyAgICAgPC9nPiYjeGE7ICAgIDwvZz4mI3hhOyAgIDwvZz4mI3hhOyAgIDxnIGlkPSJMaW5lQ29sbGVjdGlvbl8xIj4mI3hhOyAgICA8cGF0aCBzdHlsZT0iZmlsbDogbm9uZTsgc3Ryb2tlLWRhc2hhcnJheTogMi41LDQuMTI1OyBzdHJva2UtZGFzaG9mZnNldDogMDsgc3Ryb2tlOiAjMDAwMDAwOyBzdHJva2Utd2lkdGg6IDIuNSIgY2xpcC1wYXRoPSJ1cmwoI3AzY2QwZDViZTA4KSIgZD0iTSAxNDQuNzIzNTk1IDI3Ny43MjUyNzMgJiMxMDtMIDE0NC43MjM1OTUgMjMuNTEwNzI3Ii8+JiN4YTsgICAgPHBhdGggc3R5bGU9ImZpbGw6IG5vbmU7IHN0cm9rZS1kYXNoYXJyYXk6IDIuNSw0LjEyNTsgc3Ryb2tlLWRhc2hvZmZzZXQ6IDA7IHN0cm9rZTogIzAwMDAwMDsgc3Ryb2tlLXdpZHRoOiAyLjUiIGNsaXAtcGF0aD0idXJsKCNwM2NkMGQ1YmUwOCkiIGQ9Ik0gMTc2LjY4OTcxMSAyNzcuNzI1MjczICYjMTA7TCAxNzYuNjg5NzExIDIzLjUxMDcyNyIvPiYjeGE7ICAgIDxwYXRoIHN0eWxlPSJmaWxsOiBub25lOyBzdHJva2UtZGFzaGFycmF5OiAyLjUsNC4xMjU7IHN0cm9rZS1kYXNob2Zmc2V0OiAwOyBzdHJva2U6ICMwMDAwMDA7IHN0cm9rZS13aWR0aDogMi41IiBjbGlwLXBhdGg9InVybCgjcDNjZDBkNWJlMDgpIiBkPSJNIDIwOC42NTU4MjYgMjc3LjcyNTI3MyAmIzEwO0wgMjA4LjY1NTgyNiAyMy41MTA3MjciLz4mI3hhOyAgICA8cGF0aCBzdHlsZT0iZmlsbDogbm9uZTsgc3Ryb2tlLWRhc2hhcnJheTogMi41LDQuMTI1OyBzdHJva2UtZGFzaG9mZnNldDogMDsgc3Ryb2tlOiAjMDAwMDAwOyBzdHJva2Utd2lkdGg6IDIuNSIgY2xpcC1wYXRoPSJ1cmwoI3AzY2QwZDViZTA4KSIgZD0iTSAyNDAuNjIxOTQyIDI3Ny43MjUyNzMgJiMxMDtMIDI0MC42MjE5NDIgMjMuNTEwNzI3Ii8+JiN4YTsgICAgPHBhdGggc3R5bGU9ImZpbGw6IG5vbmU7IHN0cm9rZS1kYXNoYXJyYXk6IDIuNSw0LjEyNTsgc3Ryb2tlLWRhc2hvZmZzZXQ6IDA7IHN0cm9rZTogIzAwMDAwMDsgc3Ryb2tlLXdpZHRoOiAyLjUiIGNsaXAtcGF0aD0idXJsKCNwM2NkMGQ1YmUwOCkiIGQ9Ik0gMjcyLjU4ODA1OCAyNzcuNzI1MjczICYjMTA7TCAyNzIuNTg4MDU4IDIzLjUxMDcyNyIvPiYjeGE7ICAgIDxwYXRoIHN0eWxlPSJmaWxsOiBub25lOyBzdHJva2UtZGFzaGFycmF5OiAyLjUsNC4xMjU7IHN0cm9rZS1kYXNob2Zmc2V0OiAwOyBzdHJva2U6ICMwMDAwMDA7IHN0cm9rZS13aWR0aDogMi41IiBjbGlwLXBhdGg9InVybCgjcDNjZDBkNWJlMDgpIiBkPSJNIDMwNC41NTQxNzQgMjc3LjcyNTI3MyAmIzEwO0wgMzA0LjU1NDE3NCAyMy41MTA3MjciLz4mI3hhOyAgICA8cGF0aCBzdHlsZT0iZmlsbDogbm9uZTsgc3Ryb2tlLWRhc2hhcnJheTogMi41LDQuMTI1OyBzdHJva2UtZGFzaG9mZnNldDogMDsgc3Ryb2tlOiAjMDAwMDAwOyBzdHJva2Utd2lkdGg6IDIuNSIgY2xpcC1wYXRoPSJ1cmwoI3AzY2QwZDViZTA4KSIgZD0iTSAzMzYuNTIwMjg5IDI3Ny43MjUyNzMgJiMxMDtMIDMzNi41MjAyODkgMjMuNTEwNzI3Ii8+JiN4YTsgICAgPHBhdGggc3R5bGU9ImZpbGw6IG5vbmU7IHN0cm9rZS1kYXNoYXJyYXk6IDIuNSw0LjEyNTsgc3Ryb2tlLWRhc2hvZmZzZXQ6IDA7IHN0cm9rZTogIzAwMDAwMDsgc3Ryb2tlLXdpZHRoOiAyLjUiIGNsaXAtcGF0aD0idXJsKCNwM2NkMGQ1YmUwOCkiIGQ9Ik0gMzY4LjQ4NjQwNSAyNzcuNzI1MjczICYjMTA7TCAzNjguNDg2NDA1IDIzLjUxMDcyNyIvPiYjeGE7ICAgPC9nPiYjeGE7ICAgPGcgaWQ9ImxpbmUyZF8xMiI+JiN4YTsgICAgPHBhdGggc3R5bGU9ImZpbGw6IG5vbmU7IHN0cm9rZTogIzFmNzdiNDsgc3Ryb2tlLXdpZHRoOiAzOyBzdHJva2UtbGluZWNhcDogc3F1YXJlIiBjbGlwLXBhdGg9InVybCgjcDNjZDBkNWJlMDgpIiBkPSJNIDgwLjc5MTM2NCAyNzcuNzI1MjczICYjMTA7TCA4Ni40MTc5NjMgMjczLjM0NjY2NyAmIzEwO0wgODguOTE0NzY2IDI3MS43MDExMjEgJiMxMDtMIDkxLjAyNDc0MSAyNzAuNTY3NjI4ICYjMTA7TCA5Mi45MjM3MTggMjY5Ljc5NTU5MiAmIzEwO0wgOTQuNjgyMDMgMjY5LjMxNzkxOCAmIzEwO0wgOTYuMzcwMDEgMjY5LjA5MDUyICYjMTA7TCA5Ny45ODc2NTcgMjY5LjA5Mzc0ICYjMTA7TCA5OS42MDUzMDQgMjY5LjMxNjAxICYjMTA7TCAxMDEuMjU4MTE4IDI2OS43NjYyMjQgJiMxMDtMIDEwMi45ODEyNjQgMjcwLjQ2NTg1NSAmIzEwO0wgMTA0Ljg0NTA3NCAyNzEuNDY3NTYgJiMxMDtMIDEwNi45MTk4ODMgMjcyLjg0NTg1MiAmIzEwO0wgMTA5LjM0NjM1NCAyNzQuNzM5ODUzICYjMTA7TCAxMTIuNjUxOTgxIDI3Ny42Mjk5NzQgJiMxMDtMIDExMi44Mjc4MTIgMjc3LjY2MTY5NiAmIzEwO0wgMTE4LjM0ODkxMiAyNzIuODE1NCAmIzEwO0wgMTIwLjgxMDU0OSAyNzAuOTcxMjkxICYjMTA7TCAxMjIuODUwMTkxIDI2OS43MTE4OTcgJiMxMDtMIDEyNC42Nzg4MzYgMjY4LjgzODU5NSAmIzEwO0wgMTI2LjM2NjgxNiAyNjguMjc2MTU1ICYjMTA7TCAxMjcuOTQ5Mjk3IDI2Ny45Nzg3MTYgJiMxMDtMIDEyOS40OTY2MTEgMjY3LjkxMzAzICYjMTA7TCAxMzEuMDA4NzYgMjY4LjA2ODIzOCAmIzEwO0wgMTMyLjU1NjA3NSAyNjguNDUwODY2ICYjMTA7TCAxMzQuMTczNzIyIDI2OS4wODY1MSAmIzEwO0wgMTM1Ljg2MTcwMiAyNjkuOTkyODYgJiMxMDtMIDEzNy42OTAzNDYgMjcxLjIzMDIgJiMxMDtMIDEzOS43NjUxNTUgMjcyLjkxMTEyNSAmIzEwO0wgMTQyLjI2MTk1OCAyNzUuMjM0OTk3ICYjMTA7TCAxNDQuNzIzNTk1IDI3Ny43MjUyNzMgJiMxMDtMIDE0NC44MjkwOTQgMjc3LjYxNjI2MyAmIzEwO0wgMTUwLjM4NTM2IDI3Mi4wMzA3NzkgJiMxMDtMIDE1Mi43NDE0OTkgMjY5Ljk5ODIwMSAmIzEwO0wgMTU0LjcxMDgwOCAyNjguNTgwNDkzICYjMTA7TCAxNTYuNDY5MTIxIDI2Ny41ODIxMjIgJiMxMDtMIDE1OC4wODY3NjggMjY2LjkxNzI4NCAmIzEwO0wgMTU5LjU5ODkxNiAyNjYuNTM0NTkxICYjMTA7TCAxNjEuMDQwNzMyIDI2Ni4zOTU4MTMgJiMxMDtMIDE2Mi40NDczODIgMjY2LjQ3ODkyMSAmIzEwO0wgMTYzLjg4OTE5OCAyNjYuNzg5NTEzICYjMTA7TCAxNjUuMzY2MTggMjY3LjM0MTEwNyAmIzEwO0wgMTY2LjkxMzQ5NSAyNjguMTYzNDA5ICYjMTA7TCAxNjguNTY2MzA4IDI2OS4zMDA5OTggJiMxMDtMIDE3MC4zOTQ5NTMgMjcwLjg0MTAyMSAmIzEwO0wgMTcyLjQ2OTc2MSAyNzIuODkxMzQ4ICYjMTA7TCAxNzUuMDM2ODk3IDI3NS43NTk0MTQgJiMxMDtMIDE3Ni42ODk3MTEgMjc3LjcyNTI3MyAmIzEwO0wgMTc2Ljc2MDA0MyAyNzcuNjQwNDk2ICYjMTA7TCAxODIuNDkyMTQxIDI3MC45MDAwMSAmIzEwO0wgMTg0Ljc3Nzk0NyAyNjguNTg4NTEzICYjMTA7TCAxODYuNjc2OTI0IDI2Ni45NzI2MzkgJiMxMDtMIDE4OC4zNjQ5MDQgMjY1LjgyMjc3ICYjMTA7TCAxODkuODc3MDUyIDI2NS4wNTM0MjYgJiMxMDtMIDE5MS4yODM3MDIgMjY0LjU3ODU0ICYjMTA7TCAxOTIuNjIwMDE5IDI2NC4zNTQ0MjIgJiMxMDtMIDE5My45MjExNyAyNjQuMzU1ODQxICYjMTA7TCAxOTUuMjIyMzIxIDI2NC41NzcyNDIgJiMxMDtMIDE5Ni41NTg2MzkgMjY1LjAzMzI2NSAmIzEwO0wgMTk3LjkzMDEyMiAyNjUuNzM3NzM1ICYjMTA7TCAxOTkuNDA3MTA0IDI2Ni43NTM5OCAmIzEwO0wgMjAwLjk4OTU4NSAyNjguMTIwNDY3ICYjMTA7TCAyMDIuNzQ3ODk3IDI2OS45NDI0NDUgJiMxMDtMIDIwNC43NTIzNzMgMjcyLjM0OTg1MiAmIzEwO0wgMjA3LjI0OTE3NyAyNzUuNzE1NTEzICYjMTA7TCAyMDguNjU1ODI2IDI3Ny43MjUyNzMgJiMxMDtMIDIwOC43MjYxNTkgMjc3LjYyMzUzMyAmIzEwO0wgMjE0LjcwNDQyIDI2OS4xNjEzOSAmIzEwO0wgMjE2Ljg4NDcyOCAyNjYuNTA0Mzc5ICYjMTA7TCAyMTguNzEzMzcyIDI2NC42MTI2NSAmIzEwO0wgMjIwLjI5NTg1MyAyNjMuMjgwNzI4ICYjMTA7TCAyMjEuNzM3NjY5IDI2Mi4zNDgxNDYgJiMxMDtMIDIyMy4wNzM5ODYgMjYxLjc0NDgwMiAmIzEwO0wgMjI0LjMwNDgwNSAyNjEuNDI0NjY3ICYjMTA7TCAyMjUuNTAwNDU3IDI2MS4zMzg0MTggJiMxMDtMIDIyNi42OTYxMSAyNjEuNDc4NjMgJiMxMDtMIDIyNy44OTE3NjIgMjYxLjg0NzIwNyAmIzEwO0wgMjI5LjEyMjU4IDI2Mi40NjM5MDIgJiMxMDtMIDIzMC40MjM3MzEgMjYzLjM3MjMxMSAmIzEwO0wgMjMxLjgzMDM4MSAyNjQuNjM5NTg3ICYjMTA7TCAyMzMuMzQyNTMgMjY2LjMxMjA2ICYjMTA7TCAyMzUuMDMwNTA5IDI2OC41MjI2NTcgJiMxMDtMIDIzNi45NjQ2NTMgMjcxLjQzNjMzMSAmIzEwO0wgMjM5LjM1NTk1NyAyNzUuNDY1Mzg3ICYjMTA7TCAyNDAuNjIxOTQyIDI3Ny43MjUyNzMgJiMxMDtMIDI0MC42OTIyNzUgMjc3LjU5ODA4NCAmIzEwO0wgMjQ3LjE5ODAzIDI2Ni4wNDkzNzggJiMxMDtMIDI0OS4yNzI4MzggMjYyLjkwMzQ5MiAmIzEwO0wgMjUwLjk5NTk4NCAyNjAuNjc1NDY1ICYjMTA7TCAyNTIuNTA4MTMzIDI1OS4wNzExOTUgJiMxMDtMIDI1My44NDQ0NSAyNTcuOTYzNzMgJiMxMDtMIDI1NS4wNzUyNjggMjU3LjIyNDcyOCAmIzEwO0wgMjU2LjIwMDU4OCAyNTYuNzk5NTg3ICYjMTA7TCAyNTcuMjkwNzQyIDI1Ni42MjU3NCAmIzEwO0wgMjU4LjM0NTcyOSAyNTYuNjg2ODM5ICYjMTA7TCAyNTkuNDAwNzE2IDI1Ni45NzcyNjggJiMxMDtMIDI2MC40NTU3MDQgMjU3LjQ5ODM5MSAmIzEwO0wgMjYxLjU4MTAyNCAyNTguMzA3MzMgJiMxMDtMIDI2Mi43NzY2NzYgMjU5LjQ0ODI3ICYjMTA7TCAyNjQuMDc3ODI3IDI2MS4wMDg4MzkgJiMxMDtMIDI2NS40ODQ0NzcgMjYzLjA1MDU1MiAmIzEwO0wgMjY3LjA2Njk1OCAyNjUuNzUyNjg4ICYjMTA7TCAyNjguODYwNDM2IDI2OS4yNzAzNjcgJiMxMDtMIDI3MS4wMDU1NzcgMjczLjk4ODY4OCAmIzEwO0wgMjcyLjU4ODA1OCAyNzcuNzI1MjczICYjMTA7TCAyNzIuNjU4MzkgMjc3LjU1NTY1NiAmIzEwO0wgMjgwLjI4OTQ2NSAyNTkuNDE3NDY5ICYjMTA7TCAyODIuMTg4NDQyIDI1NS42NjM5NDcgJiMxMDtMIDI4My43NzA5MjMgMjUyLjk5OTQzNSAmIzEwO0wgMjg1LjE0MjQwNyAyNTEuMDk3NDY3ICYjMTA7TCAyODYuMzczMjI1IDI0OS43NTMyODkgJiMxMDtMIDI4Ny40NjMzNzkgMjQ4Ljg3NDI5NyAmIzEwO0wgMjg4LjQ0ODAzNCAyNDguMzQ3NTggJiMxMDtMIDI4OS4zNjIzNTYgMjQ4LjA5NTc0ICYjMTA7TCAyOTAuMjQxNTEyIDI0OC4wNzYwNjQgJiMxMDtMIDI5MS4xMjA2NjggMjQ4LjI3OTY1OSAmIzEwO0wgMjkxLjk5OTgyNCAyNDguNzEwMTQ2ICYjMTA7TCAyOTIuOTQ5MzEzIDI0OS40MzIzMTUgJiMxMDtMIDI5My45NjkxMzQgMjUwLjUwNjEzNSAmIzEwO0wgMjk1LjA1OTI4OCAyNTEuOTkzMTU5ICYjMTA7TCAyOTYuMjU0OTQgMjU0LjAxOTcwNyAmIzEwO0wgMjk3LjU1NjA5MSAyNTYuNjc5NzM2ICYjMTA7TCAyOTguOTk3OTA3IDI2MC4xNTEwNjMgJiMxMDtMIDMwMC42MTU1NTQgMjY0LjY0NjQ1NiAmIzEwO0wgMzAyLjQ3OTM2NSAyNzAuNTExMTgxICYjMTA7TCAzMDQuNTU0MTc0IDI3Ny43MjUyNzMgJiMxMDtMIDMwNC42MjQ1MDYgMjc3LjQ3MDc1NSAmIzEwO0wgMzA3LjkzMDEzMyAyNjUuMDc2NSAmIzEwO0wgMzEyLjIyMDQxNSAyNDkuMTMyOTY2ICYjMTA7TCAzMTQuMzY1NTU2IDI0Mi4wMjYzMzIgJiMxMDtMIDMxNi4wNTM1MzUgMjM3LjE2MTM0OSAmIzEwO0wgMzE3LjQ5NTM1MSAyMzMuNjU0NTExICYjMTA7TCAzMTguNzI2MTcgMjMxLjIxNDk0NCAmIzEwO0wgMzE5Ljc4MTE1NyAyMjkuNTc3OTc4ICYjMTA7TCAzMjAuNzMwNjQ2IDIyOC40OTM3MjUgJiMxMDtMIDMyMS41NzQ2MzYgMjI3Ljg1OTI0NiAmIzEwO0wgMzIyLjMxMzEyNyAyMjcuNTcwOTQgJiMxMDtMIDMyMy4wMTY0NTIgMjI3LjUzNzAyMyAmIzEwO0wgMzIzLjY4NDYxIDIyNy43MjkyMTMgJiMxMDtMIDMyNC4zODc5MzUgMjI4LjE3NDI1ICYjMTA7TCAzMjUuMTI2NDI2IDIyOC45MTU5ODkgJiMxMDtMIDMyNS45MzUyNSAyMzAuMDU4MDM5ICYjMTA7TCAzMjYuODE0NDA2IDIzMS42OTc4MzYgJiMxMDtMIDMyNy43OTkwNjEgMjM0LjAzNTAyOSAmIzEwO0wgMzI4Ljg1NDA0OCAyMzcuMTMyODIzICYjMTA7TCAzMzAuMDE0NTM0IDI0MS4yNTM0MTcgJiMxMDtMIDMzMS4yODA1MTkgMjQ2LjU5Nzk5MSAmIzEwO0wgMzMyLjY1MjAwMiAyNTMuMzc0NDM0ICYjMTA7TCAzMzQuMTY0MTUxIDI2Mi4wMDE5MzkgJiMxMDtMIDMzNS44MTY5NjQgMjcyLjc1MzkwMyAmIzEwO0wgMzM2LjUyMDI4OSAyNzcuNzI1MjczICYjMTA7TCAzMzYuNTU1NDU2IDI3Ny40NzA3NTMgJiMxMDtMIDMzOC40ODk1OTkgMjYyLjY0NzY4MSAmIzEwO0wgMzQwLjcwNTA3MiAyNDMuODg2NTA5ICYjMTA7TCAzNDMuNDEyODczIDIxOC45NDQyNCAmIzEwO0wgMzQ3LjUyNzMyNCAxNzguNjgwNzMxICYjMTA7TCAzNTIuMzQ1MDk5IDEzMi4wNTk4MzggJiMxMDtMIDM1NC45NDc0MDEgMTA5LjAyNzE2ICYjMTA7TCAzNTcuMDU3Mzc2IDkyLjI0MTUxMyAmIzEwO0wgMzU4Ljg4NjAyIDc5LjQxNTc3NCAmIzEwO0wgMzYwLjQ2ODUwMSA2OS44MDYwMjkgJiMxMDtMIDM2MS44NzUxNTEgNjIuNTQyMjExICYjMTA7TCAzNjMuMTQxMTM2IDU3LjEwNDk5NyAmIzEwO0wgMzY0LjI2NjQ1NiA1My4xODk0NzQgJiMxMDtMIDM2NS4yODYyNzcgNTAuNDEyMjIyICYjMTA7TCAzNjYuMTY1NDMzIDQ4LjYyMDAxOSAmIzEwO0wgMzY2LjkzOTA5IDQ3LjUxMDgxNiAmIzEwO0wgMzY3LjYwNzI0OSA0Ni45MDg1OCAmIzEwO0wgMzY4LjIwNTA3NSA0Ni42NTA1ODQgJiMxMDtMIDM2OC43Njc3MzUgNDYuNjUwNTg0ICYjMTA7TCAzNjkuMzMwMzk1IDQ2Ljg4NjA1MiAmIzEwO0wgMzY5LjkyODIyMSA0Ny4zOTM3NSAmIzEwO0wgMzcwLjU5NjM4IDQ4LjI3Mzg1MiAmIzEwO0wgMzcxLjMzNDg3MSA0OS42Mjc4ODUgJiMxMDtMIDM3Mi4xNzg4NjEgNTEuNjYwMTcxICYjMTA7TCAzNzMuMTI4MzQ5IDU0LjU1NDQ3NyAmIzEwO0wgMzc0LjE4MzMzNiA1OC41MDc1MDIgJiMxMDtMIDM3NS4zNzg5ODkgNjMuODk0MjcyICYjMTA7TCAzNzYuNzE1MzA2IDcxLjAwMTg4NiAmIzEwO0wgMzc4LjE5MjI4OCA4MC4xMDc0NzIgJiMxMDtMIDM3OS44ODAyNjggOTEuOTc4ODMyICYjMTA7TCAzODEuODE0NDExIDEwNy4yNjM2MzMgJiMxMDtMIDM4NC4xMDAyMTcgMTI3LjIxOTY0OSAmIzEwO0wgMzg3LjAxOTAxNSAxNTQuODAyNDA5ICYjMTA7TCAzOTYuNDc4NzM1IDI0NS43NDU0MSAmIzEwO0wgMzk4LjgzNDg3MyAyNjUuNDU4Njg1ICYjMTA7TCA0MDAuNDUyNTIxIDI3Ny43MjUyNzMgJiMxMDtMIDQwMi4zMTYzMzIgMjY1LjA2NDAwNSAmIzEwO0wgNDA0LjAwNDMxMSAyNTUuMDgxMzMxICYjMTA7TCA0MDUuNTE2NDYgMjQ3LjQwOTg1OCAmIzEwO0wgNDA2LjkyMzExIDI0MS4zODk5NCAmIzEwO0wgNDA4LjE4OTA5NCAyMzYuOTA3MTEgJiMxMDtMIDQwOS4zNDk1OCAyMzMuNTc4NTc5ICYjMTA7TCA0MTAuNDA0NTY4IDIzMS4xOTY0NTYgJiMxMDtMIDQxMS4zNTQwNTYgMjI5LjU2OTY3MSAmIzEwO0wgNDEyLjE5ODA0NiAyMjguNTI3MzIxICYjMTA7TCA0MTIuOTcxNzAzIDIyNy44OTgzMDUgJiMxMDtMIDQxMy42NzUwMjggMjI3LjU5MDkzMiAmIzEwO0wgNDE0LjM0MzE4NyAyMjcuNTI2MTQzICYjMTA7TCA0MTUuMDExMzQ2IDIyNy42NzY0ODkgJiMxMDtMIDQxNS43MTQ2NzEgMjI4LjA1OTc3NyAmIzEwO0wgNDE2LjQ4ODMyOCAyMjguNzM4MDAzICYjMTA7TCA0MTcuMzY3NDg0IDIyOS44MjAwNDQgJiMxMDtMIDQxOC4zNTIxMzkgMjMxLjQwMjQwNCAmIzEwO0wgNDE5LjQ3NzQ1OSAyMzMuNjU0NTExICYjMTA7TCA0MjAuNzc4NjEgMjM2Ljc5MDk2OSAmIzEwO0wgNDIyLjI5MDc1OCAyNDEuMDU4OTExICYjMTA7TCA0MjQuMDg0MjM3IDI0Ni44Mjc1MjQgJiMxMDtMIDQyNi40MDUyMDkgMjU1LjEwMzQyOCAmIzEwO0wgNDMyLjQxODYzNiAyNzcuNzI1MjczICYjMTA7TCA0MzIuNDE4NjM2IDI3Ny43MjUyNzMiLz4mI3hhOyAgIDwvZz4mI3hhOyAgIDxnIGlkPSJsaW5lMmRfMTMiPiYjeGE7ICAgIDxwYXRoIHN0eWxlPSJmaWxsOiBub25lOyBzdHJva2U6ICNmZjdmMGU7IHN0cm9rZS13aWR0aDogMzsgc3Ryb2tlLWxpbmVjYXA6IHNxdWFyZSIgY2xpcC1wYXRoPSJ1cmwoI3AzY2QwZDViZTA4KSIgZD0iTSA4MC43OTEzNjQgMjc3LjcyNTI3MyAmIzEwO0wgODYuNDE3OTYzIDI3Mi43ODcwMjggJiMxMDtMIDg4Ljg0NDQzMyAyNzAuOTcxMjkxICYjMTA7TCA5MC44ODQwNzYgMjY5LjcxMTg5NyAmIzEwO0wgOTIuNzEyNzIgMjY4LjgzODU5NSAmIzEwO0wgOTQuNDAwNyAyNjguMjc2MTU1ICYjMTA7TCA5NS45ODMxODEgMjY3Ljk3ODcxNiAmIzEwO0wgOTcuNTMwNDk2IDI2Ny45MTMwMyAmIzEwO0wgOTkuMDQyNjQ0IDI2OC4wNjgyMzggJiMxMDtMIDEwMC41ODk5NTkgMjY4LjQ1MDg2NiAmIzEwO0wgMTAyLjIwNzYwNiAyNjkuMDg2NTEgJiMxMDtMIDEwMy44OTU1ODYgMjY5Ljk5Mjg2ICYjMTA7TCAxMDUuNzI0MjMxIDI3MS4yMzAyICYjMTA7TCAxMDcuNzk5MDM5IDI3Mi45MTExMjUgJiMxMDtMIDExMC4yOTU4NDIgMjc1LjIzNDk5NyAmIzEwO0wgMTEyLjc1NzQ3OSAyNzcuNzI1MjczICYjMTA7TCAxMTIuODYyOTc4IDI3Ny42MTYyNjMgJiMxMDtMIDExOC40MTkyNDUgMjcyLjAzMDc3OSAmIzEwO0wgMTIwLjc3NTM4MyAyNjkuOTk4MjAxICYjMTA7TCAxMjIuNzQ0NjkzIDI2OC41ODA0OTMgJiMxMDtMIDEyNC41MDMwMDUgMjY3LjU4MjEyMiAmIzEwO0wgMTI2LjEyMDY1MiAyNjYuOTE3Mjg0ICYjMTA7TCAxMjcuNjMyODAxIDI2Ni41MzQ1OTEgJiMxMDtMIDEyOS4wNzQ2MTcgMjY2LjM5NTgxMyAmIzEwO0wgMTMwLjQ4MTI2NiAyNjYuNDc4OTIxICYjMTA7TCAxMzEuOTIzMDgyIDI2Ni43ODk1MTMgJiMxMDtMIDEzMy40MDAwNjUgMjY3LjM0MTEwNyAmIzEwO0wgMTM0Ljk0NzM3OSAyNjguMTYzNDA5ICYjMTA7TCAxMzYuNjAwMTkzIDI2OS4zMDA5OTggJiMxMDtMIDEzOC40Mjg4MzcgMjcwLjg0MTAyMSAmIzEwO0wgMTQwLjUwMzY0NiAyNzIuODkxMzQ4ICYjMTA7TCAxNDMuMDcwNzgyIDI3NS43NTk0MTQgJiMxMDtMIDE0NC43MjM1OTUgMjc3LjcyNTI3MyAmIzEwO0wgMTQ0Ljc5MzkyOCAyNzcuNjQwNDk2ICYjMTA7TCAxNTAuNTI2MDI1IDI3MC45MDAwMSAmIzEwO0wgMTUyLjgxMTgzMSAyNjguNTg4NTEzICYjMTA7TCAxNTQuNzEwODA4IDI2Ni45NzI2MzkgJiMxMDtMIDE1Ni4zOTg3ODggMjY1LjgyMjc3ICYjMTA7TCAxNTcuOTEwOTM3IDI2NS4wNTM0MjYgJiMxMDtMIDE1OS4zMTc1ODYgMjY0LjU3ODU0ICYjMTA7TCAxNjAuNjUzOTA0IDI2NC4zNTQ0MjIgJiMxMDtMIDE2MS45NTUwNTUgMjY0LjM1NTg0MSAmIzEwO0wgMTYzLjI1NjIwNiAyNjQuNTc3MjQyICYjMTA7TCAxNjQuNTkyNTIzIDI2NS4wMzMyNjUgJiMxMDtMIDE2NS45NjQwMDYgMjY1LjczNzczNSAmIzEwO0wgMTY3LjQ0MDk4OSAyNjYuNzUzOTggJiMxMDtMIDE2OS4wMjM0NyAyNjguMTIwNDY3ICYjMTA7TCAxNzAuNzgxNzgyIDI2OS45NDI0NDUgJiMxMDtMIDE3Mi43ODYyNTggMjcyLjM0OTg1MiAmIzEwO0wgMTc1LjI4MzA2MSAyNzUuNzE1NTEzICYjMTA7TCAxNzYuNjg5NzExIDI3Ny43MjUyNzMgJiMxMDtMIDE3Ni43NjAwNDMgMjc3LjYyMzUzMyAmIzEwO0wgMTgyLjczODMwNSAyNjkuMTYxMzkgJiMxMDtMIDE4NC45MTg2MTIgMjY2LjUwNDM3OSAmIzEwO0wgMTg2Ljc0NzI1NiAyNjQuNjEyNjUgJiMxMDtMIDE4OC4zMjk3MzcgMjYzLjI4MDcyOCAmIzEwO0wgMTg5Ljc3MTU1MyAyNjIuMzQ4MTQ2ICYjMTA7TCAxOTEuMTA3ODcxIDI2MS43NDQ4MDIgJiMxMDtMIDE5Mi4zMzg2ODkgMjYxLjQyNDY2NyAmIzEwO0wgMTkzLjUzNDM0MiAyNjEuMzM4NDE4ICYjMTA7TCAxOTQuNzI5OTk0IDI2MS40Nzg2MyAmIzEwO0wgMTk1LjkyNTY0NiAyNjEuODQ3MjA3ICYjMTA7TCAxOTcuMTU2NDY1IDI2Mi40NjM5MDIgJiMxMDtMIDE5OC40NTc2MTYgMjYzLjM3MjMxMSAmIzEwO0wgMTk5Ljg2NDI2NSAyNjQuNjM5NTg3ICYjMTA7TCAyMDEuMzc2NDE0IDI2Ni4zMTIwNiAmIzEwO0wgMjAzLjA2NDM5NCAyNjguNTIyNjU3ICYjMTA7TCAyMDQuOTk4NTM3IDI3MS40MzYzMzEgJiMxMDtMIDIwNy4zODk4NDIgMjc1LjQ2NTM4NyAmIzEwO0wgMjA4LjY1NTgyNiAyNzcuNzI1MjczICYjMTA7TCAyMDguNzI2MTU5IDI3Ny41OTgwODQgJiMxMDtMIDIxNS4yMzE5MTQgMjY2LjA0OTM3OCAmIzEwO0wgMjE3LjMwNjcyMiAyNjIuOTAzNDkyICYjMTA7TCAyMTkuMDI5ODY4IDI2MC42NzU0NjUgJiMxMDtMIDIyMC41NDIwMTcgMjU5LjA3MTE5NSAmIzEwO0wgMjIxLjg3ODMzNCAyNTcuOTYzNzMgJiMxMDtMIDIyMy4xMDkxNTMgMjU3LjIyNDcyOCAmIzEwO0wgMjI0LjIzNDQ3MiAyNTYuNzk5NTg3ICYjMTA7TCAyMjUuMzI0NjI2IDI1Ni42MjU3NCAmIzEwO0wgMjI2LjM3OTYxMyAyNTYuNjg2ODM5ICYjMTA7TCAyMjcuNDM0NjAxIDI1Ni45NzcyNjggJiMxMDtMIDIyOC40ODk1ODggMjU3LjQ5ODM5MSAmIzEwO0wgMjI5LjYxNDkwOCAyNTguMzA3MzMgJiMxMDtMIDIzMC44MTA1NiAyNTkuNDQ4MjcgJiMxMDtMIDIzMi4xMTE3MTEgMjYxLjAwODgzOSAmIzEwO0wgMjMzLjUxODM2MSAyNjMuMDUwNTUyICYjMTA7TCAyMzUuMTAwODQyIDI2NS43NTI2ODggJiMxMDtMIDIzNi44OTQzMiAyNjkuMjcwMzY3ICYjMTA7TCAyMzkuMDM5NDYxIDI3My45ODg2ODggJiMxMDtMIDI0MC42MjE5NDIgMjc3LjcyNTI3MyAmIzEwO0wgMjQwLjY5MjI3NSAyNzcuNTU1NjU2ICYjMTA7TCAyNDguMzIzMzUgMjU5LjQxNzQ2OSAmIzEwO0wgMjUwLjIyMjMyNyAyNTUuNjYzOTQ3ICYjMTA7TCAyNTEuODA0ODA4IDI1Mi45OTk0MzUgJiMxMDtMIDI1My4xNzYyOTEgMjUxLjA5NzQ2NyAmIzEwO0wgMjU0LjQwNzExIDI0OS43NTMyODkgJiMxMDtMIDI1NS40OTcyNjMgMjQ4Ljg3NDI5NyAmIzEwO0wgMjU2LjQ4MTkxOCAyNDguMzQ3NTggJiMxMDtMIDI1Ny4zOTYyNCAyNDguMDk1NzQgJiMxMDtMIDI1OC4yNzUzOTcgMjQ4LjA3NjA2NCAmIzEwO0wgMjU5LjE1NDU1MyAyNDguMjc5NjU5ICYjMTA7TCAyNjAuMDMzNzA5IDI0OC43MTAxNDYgJiMxMDtMIDI2MC45ODMxOTcgMjQ5LjQzMjMxNSAmIzEwO0wgMjYyLjAwMzAxOCAyNTAuNTA2MTM1ICYjMTA7TCAyNjMuMDkzMTcyIDI1MS45OTMxNTkgJiMxMDtMIDI2NC4yODg4MjQgMjU0LjAxOTcwNyAmIzEwO0wgMjY1LjU4OTk3NSAyNTYuNjc5NzM2ICYjMTA7TCAyNjcuMDMxNzkxIDI2MC4xNTEwNjMgJiMxMDtMIDI2OC42NDk0MzkgMjY0LjY0NjQ1NiAmIzEwO0wgMjcwLjUxMzI0OSAyNzAuNTExMTgxICYjMTA7TCAyNzIuNTg4MDU4IDI3Ny43MjUyNzMgJiMxMDtMIDI3Mi42NTgzOSAyNzcuNDcwNzU1ICYjMTA7TCAyNzUuOTY0MDE3IDI2NS4wNzY1ICYjMTA7TCAyODAuMjU0Mjk5IDI0OS4xMzI5NjYgJiMxMDtMIDI4Mi4zOTk0NCAyNDIuMDI2MzMyICYjMTA7TCAyODQuMDg3NDIgMjM3LjE2MTM0OSAmIzEwO0wgMjg1LjUyOTIzNiAyMzMuNjU0NTExICYjMTA7TCAyODYuNzYwMDU0IDIzMS4yMTQ5NDQgJiMxMDtMIDI4Ny44MTUwNDEgMjI5LjU3Nzk3OCAmIzEwO0wgMjg4Ljc2NDUzIDIyOC40OTM3MjUgJiMxMDtMIDI4OS42MDg1MiAyMjcuODU5MjQ2ICYjMTA7TCAyOTAuMzQ3MDExIDIyNy41NzA5NCAmIzEwO0wgMjkxLjA1MDMzNiAyMjcuNTM3MDIzICYjMTA7TCAyOTEuNzE4NDk1IDIyNy43MjkyMTMgJiMxMDtMIDI5Mi40MjE4MTkgMjI4LjE3NDI1ICYjMTA7TCAyOTMuMTYwMzExIDIyOC45MTU5ODkgJiMxMDtMIDI5My45NjkxMzQgMjMwLjA1ODAzOSAmIzEwO0wgMjk0Ljg0ODI5IDIzMS42OTc4MzYgJiMxMDtMIDI5NS44MzI5NDUgMjM0LjAzNTAyOSAmIzEwO0wgMjk2Ljg4NzkzMiAyMzcuMTMyODIzICYjMTA7TCAyOTguMDQ4NDE4IDI0MS4yNTM0MTcgJiMxMDtMIDI5OS4zMTQ0MDMgMjQ2LjU5Nzk5MSAmIzEwO0wgMzAwLjY4NTg4NyAyNTMuMzc0NDM0ICYjMTA7TCAzMDIuMTk4MDM1IDI2Mi4wMDE5MzkgJiMxMDtMIDMwMy44NTA4NDkgMjcyLjc1MzkwMyAmIzEwO0wgMzA0LjU1NDE3NCAyNzcuNzI1MjczICYjMTA7TCAzMDQuNTg5MzQgMjc3LjQ3MDc1MyAmIzEwO0wgMzA2LjUyMzQ4MyAyNjIuNjQ3NjgxICYjMTA7TCAzMDguNzM4OTU3IDI0My44ODY1MDkgJiMxMDtMIDMxMS40NDY3NTcgMjE4Ljk0NDI0ICYjMTA7TCAzMTUuNTYxMjA4IDE3OC42ODA3MzEgJiMxMDtMIDMyMC4zNzg5ODMgMTMyLjA1OTgzOCAmIzEwO0wgMzIyLjk4MTI4NSAxMDkuMDI3MTYgJiMxMDtMIDMyNS4wOTEyNiA5Mi4yNDE1MTMgJiMxMDtMIDMyNi45MTk5MDUgNzkuNDE1Nzc0ICYjMTA7TCAzMjguNTAyMzg2IDY5LjgwNjAyOSAmIzEwO0wgMzI5LjkwOTAzNSA2Mi41NDIyMTEgJiMxMDtMIDMzMS4xNzUwMiA1Ny4xMDQ5OTcgJiMxMDtMIDMzMi4zMDAzNCA1My4xODk0NzQgJiMxMDtMIDMzMy4zMjAxNjEgNTAuNDEyMjIyICYjMTA7TCAzMzQuMTk5MzE3IDQ4LjYyMDAxOSAmIzEwO0wgMzM0Ljk3Mjk3NSA0Ny41MTA4MTYgJiMxMDtMIDMzNS42NDExMzMgNDYuOTA4NTggJiMxMDtMIDMzNi4yMzg5NTkgNDYuNjUwNTg0ICYjMTA7TCAzMzYuODAxNjE5IDQ2LjY1MDU4NCAmIzEwO0wgMzM3LjM2NDI3OSA0Ni44ODYwNTIgJiMxMDtMIDMzNy45NjIxMDUgNDcuMzkzNzUgJiMxMDtMIDMzOC42MzAyNjQgNDguMjczODUyICYjMTA7TCAzMzkuMzY4NzU1IDQ5LjYyNzg4NSAmIzEwO0wgMzQwLjIxMjc0NSA1MS42NjAxNzEgJiMxMDtMIDM0MS4xNjIyMzMgNTQuNTU0NDc3ICYjMTA7TCAzNDIuMjE3MjIxIDU4LjUwNzUwMiAmIzEwO0wgMzQzLjQxMjg3MyA2My44OTQyNzIgJiMxMDtMIDM0NC43NDkxOSA3MS4wMDE4ODYgJiMxMDtMIDM0Ni4yMjYxNzMgODAuMTA3NDcyICYjMTA7TCAzNDcuOTE0MTUyIDkxLjk3ODgzMiAmIzEwO0wgMzQ5Ljg0ODI5NiAxMDcuMjYzNjMzICYjMTA7TCAzNTIuMTM0MTAyIDEyNy4yMTk2NDkgJiMxMDtMIDM1NS4wNTI5IDE1NC44MDI0MDkgJiMxMDtMIDM2NC41MTI2MTkgMjQ1Ljc0NTQxICYjMTA7TCAzNjYuODY4NzU4IDI2NS40NTg2ODUgJiMxMDtMIDM2OC40ODY0MDUgMjc3LjcyNTI3MyAmIzEwO0wgMzcwLjM1MDIxNiAyNjUuMDY0MDA1ICYjMTA7TCAzNzIuMDM4MTk2IDI1NS4wODEzMzEgJiMxMDtMIDM3My41NTAzNDQgMjQ3LjQwOTg1OCAmIzEwO0wgMzc0Ljk1Njk5NCAyNDEuMzg5OTQgJiMxMDtMIDM3Ni4yMjI5NzkgMjM2LjkwNzExICYjMTA7TCAzNzcuMzgzNDY1IDIzMy41Nzg1NzkgJiMxMDtMIDM3OC40Mzg0NTIgMjMxLjE5NjQ1NiAmIzEwO0wgMzc5LjM4Nzk0MSAyMjkuNTY5NjcxICYjMTA7TCAzODAuMjMxOTMgMjI4LjUyNzMyMSAmIzEwO0wgMzgxLjAwNTU4OCAyMjcuODk4MzA1ICYjMTA7TCAzODEuNzA4OTEzIDIyNy41OTA5MzIgJiMxMDtMIDM4Mi4zNzcwNzEgMjI3LjUyNjE0MyAmIzEwO0wgMzgzLjA0NTIzIDIyNy42NzY0ODkgJiMxMDtMIDM4My43NDg1NTUgMjI4LjA1OTc3NyAmIzEwO0wgMzg0LjUyMjIxMiAyMjguNzM4MDAzICYjMTA7TCAzODUuNDAxMzY4IDIyOS44MjAwNDQgJiMxMDtMIDM4Ni4zODYwMjMgMjMxLjQwMjQwNCAmIzEwO0wgMzg3LjUxMTM0MyAyMzMuNjU0NTExICYjMTA7TCAzODguODEyNDk0IDIzNi43OTA5NjkgJiMxMDtMIDM5MC4zMjQ2NDIgMjQxLjA1ODkxMSAmIzEwO0wgMzkyLjExODEyMSAyNDYuODI3NTI0ICYjMTA7TCAzOTQuNDM5MDkzIDI1NS4xMDM0MjggJiMxMDtMIDQwMC40NTI1MjEgMjc3LjcyNTI3MyAmIzEwO0wgNDAwLjUyMjg1MyAyNzcuNDcxMzE0ICYjMTA7TCA0MDIuOTg0NDkgMjY5LjAxMTg4MyAmIzEwO0wgNDA0Ljk1MzggMjYzLjAxNTE2ICYjMTA7TCA0MDYuNjQxNzggMjU4LjU2MTczMyAmIzEwO0wgNDA4LjExODc2MiAyNTUuMjU1ODc2ICYjMTA7TCA0MDkuNDU1MDc5IDI1Mi43NzgxMDQgJiMxMDtMIDQxMC42ODU4OTggMjUwLjk0Nzc0MSAmIzEwO0wgNDExLjgxMTIxNyAyNDkuNjYzMjY4ICYjMTA7TCA0MTIuODMxMDM5IDI0OC44MjM2ODMgJiMxMDtMIDQxMy43ODA1MjcgMjQ4LjMxOTI4MiAmIzEwO0wgNDE0LjY5NDg0OSAyNDguMDg0MDc4ICYjMTA7TCA0MTUuNTc0MDA2IDI0OC4wODYwNiAmIzEwO0wgNDE2LjQ1MzE2MiAyNDguMzA2Njk3ICYjMTA7TCA0MTcuNDAyNjUgMjQ4Ljc4MzIxNSAmIzEwO0wgNDE4LjQyMjQ3MSAyNDkuNTU5NjYgJiMxMDtMIDQxOS41MTI2MjUgMjUwLjY3NjkwMSAmIzEwO0wgNDIwLjc0MzQ0MyAyNTIuMjcwMzE3ICYjMTA7TCA0MjIuMTE0OTI3IDI1NC40MjIwODIgJiMxMDtMIDQyMy42OTc0MDggMjU3LjMzNDE0MiAmIzEwO0wgNDI1LjU5NjM4NSAyNjEuMzIxOTA5ICYjMTA7TCA0MjguMDU4MDIyIDI2Ny4wNDk5OTcgJiMxMDtMIDQzMi40MTg2MzYgMjc3LjcyNTI3MyAmIzEwO0wgNDMyLjQxODYzNiAyNzcuNzI1MjczIi8+JiN4YTsgICA8L2c+JiN4YTsgICA8ZyBpZD0ibGluZTJkXzE0Ij4mI3hhOyAgICA8cGF0aCBzdHlsZT0iZmlsbDogbm9uZTsgc3Ryb2tlOiAjMmNhMDJjOyBzdHJva2Utd2lkdGg6IDM7IHN0cm9rZS1saW5lY2FwOiBzcXVhcmUiIGNsaXAtcGF0aD0idXJsKCNwM2NkMGQ1YmUwOCkiIGQ9Ik0gODAuNzkxMzY0IDI3Ny43MjUyNzMgJiMxMDtMIDg2LjQ4ODI5NSAyNzEuOTk4MjQ4ICYjMTA7TCA4OC44NDQ0MzMgMjY5Ljk3MDQxNSAmIzEwO0wgOTAuODEzNzQzIDI2OC41NTc5MTEgJiMxMDtMIDkyLjU3MjA1NSAyNjcuNTY0OTkxICYjMTA7TCA5NC4xODk3MDMgMjY2LjkwNTcwNCAmIzEwO0wgOTUuNzAxODUxIDI2Ni41Mjg1NDYgJiMxMDtMIDk3LjE0MzY2NyAyNjYuMzk1MjQ2ICYjMTA7TCA5OC41NTAzMTcgMjY2LjQ4Mzc4NCAmIzEwO0wgOTkuOTkyMTMzIDI2Ni43OTk5MjMgJiMxMDtMIDEwMS40NjkxMTUgMjY3LjM1NzA2MyAmIzEwO0wgMTAzLjAxNjQzIDI2OC4xODQ4OTggJiMxMDtMIDEwNC42NjkyNDMgMjY5LjMyNzk0MSAmIzEwO0wgMTA2LjQ5Nzg4OCAyNzAuODczMjY5ICYjMTA7TCAxMDguNTcyNjk2IDI3Mi45Mjg0NjMgJiMxMDtMIDExMS4xNzQ5OTggMjc1Ljg0MTY5MiAmIzEwO0wgMTEyLjc1NzQ3OSAyNzcuNzI1MjczICYjMTA7TCAxMTIuODI3ODEyIDI3Ny42NDA0OTYgJiMxMDtMIDExOC41NTk5MSAyNzAuOTAwMDEgJiMxMDtMIDEyMC44NDU3MTUgMjY4LjU4ODUxMyAmIzEwO0wgMTIyLjc0NDY5MyAyNjYuOTcyNjM5ICYjMTA7TCAxMjQuNDMyNjcyIDI2NS44MjI3NyAmIzEwO0wgMTI1Ljk0NDgyMSAyNjUuMDUzNDI2ICYjMTA7TCAxMjcuMzUxNDcxIDI2NC41Nzg1NCAmIzEwO0wgMTI4LjY4Nzc4OCAyNjQuMzU0NDIyICYjMTA7TCAxMjkuOTg4OTM5IDI2NC4zNTU4NDEgJiMxMDtMIDEzMS4yOTAwOSAyNjQuNTc3MjQyICYjMTA7TCAxMzIuNjI2NDA3IDI2NS4wMzMyNjUgJiMxMDtMIDEzMy45OTc4OTEgMjY1LjczNzczNSAmIzEwO0wgMTM1LjQ3NDg3MyAyNjYuNzUzOTggJiMxMDtMIDEzNy4wNTczNTQgMjY4LjEyMDQ2NyAmIzEwO0wgMTM4LjgxNTY2NiAyNjkuOTQyNDQ1ICYjMTA7TCAxNDAuODIwMTQyIDI3Mi4zNDk4NTIgJiMxMDtMIDE0My4zMTY5NDUgMjc1LjcxNTUxMyAmIzEwO0wgMTQ0LjcyMzU5NSAyNzcuNzI1MjczICYjMTA7TCAxNDQuNzkzOTI4IDI3Ny42MjM1MzMgJiMxMDtMIDE1MC43NzIxODkgMjY5LjE2MTM5ICYjMTA7TCAxNTIuOTUyNDk2IDI2Ni41MDQzNzkgJiMxMDtMIDE1NC43ODExNDEgMjY0LjYxMjY1ICYjMTA7TCAxNTYuMzYzNjIyIDI2My4yODA3MjggJiMxMDtMIDE1Ny44MDU0MzggMjYyLjM0ODE0NiAmIzEwO0wgMTU5LjE0MTc1NSAyNjEuNzQ0ODAyICYjMTA7TCAxNjAuMzcyNTc0IDI2MS40MjQ2NjcgJiMxMDtMIDE2MS41NjgyMjYgMjYxLjMzODQxOCAmIzEwO0wgMTYyLjc2Mzg3OCAyNjEuNDc4NjMgJiMxMDtMIDE2My45NTk1MyAyNjEuODQ3MjA3ICYjMTA7TCAxNjUuMTkwMzQ5IDI2Mi40NjM5MDIgJiMxMDtMIDE2Ni40OTE1IDI2My4zNzIzMTEgJiMxMDtMIDE2Ny44OTgxNSAyNjQuNjM5NTg3ICYjMTA7TCAxNjkuNDEwMjk4IDI2Ni4zMTIwNiAmIzEwO0wgMTcxLjA5ODI3OCAyNjguNTIyNjU3ICYjMTA7TCAxNzMuMDMyNDIxIDI3MS40MzYzMzEgJiMxMDtMIDE3NS40MjM3MjYgMjc1LjQ2NTM4NyAmIzEwO0wgMTc2LjY4OTcxMSAyNzcuNzI1MjczICYjMTA7TCAxNzYuNzYwMDQzIDI3Ny41OTgwODQgJiMxMDtMIDE4My4yNjU3OTggMjY2LjA0OTM3OCAmIzEwO0wgMTg1LjM0MDYwNyAyNjIuOTAzNDkyICYjMTA7TCAxODcuMDYzNzUzIDI2MC42NzU0NjUgJiMxMDtMIDE4OC41NzU5MDEgMjU5LjA3MTE5NSAmIzEwO0wgMTg5LjkxMjIxOCAyNTcuOTYzNzMgJiMxMDtMIDE5MS4xNDMwMzcgMjU3LjIyNDcyOCAmIzEwO0wgMTkyLjI2ODM1NyAyNTYuNzk5NTg3ICYjMTA7TCAxOTMuMzU4NTEgMjU2LjYyNTc0ICYjMTA7TCAxOTQuNDEzNDk4IDI1Ni42ODY4MzkgJiMxMDtMIDE5NS40Njg0ODUgMjU2Ljk3NzI2OCAmIzEwO0wgMTk2LjUyMzQ3MiAyNTcuNDk4MzkxICYjMTA7TCAxOTcuNjQ4NzkyIDI1OC4zMDczMyAmIzEwO0wgMTk4Ljg0NDQ0NCAyNTkuNDQ4MjcgJiMxMDtMIDIwMC4xNDU1OTUgMjYxLjAwODgzOSAmIzEwO0wgMjAxLjU1MjI0NSAyNjMuMDUwNTUyICYjMTA7TCAyMDMuMTM0NzI2IDI2NS43NTI2ODggJiMxMDtMIDIwNC45MjgyMDUgMjY5LjI3MDM2NyAmIzEwO0wgMjA3LjA3MzM0NSAyNzMuOTg4Njg4ICYjMTA7TCAyMDguNjU1ODI2IDI3Ny43MjUyNzMgJiMxMDtMIDIwOC43MjYxNTkgMjc3LjU1NTY1NiAmIzEwO0wgMjE2LjM1NzIzNCAyNTkuNDE3NDY5ICYjMTA7TCAyMTguMjU2MjExIDI1NS42NjM5NDcgJiMxMDtMIDIxOS44Mzg2OTIgMjUyLjk5OTQzNSAmIzEwO0wgMjIxLjIxMDE3NiAyNTEuMDk3NDY3ICYjMTA7TCAyMjIuNDQwOTk0IDI0OS43NTMyODkgJiMxMDtMIDIyMy41MzExNDggMjQ4Ljg3NDI5NyAmIzEwO0wgMjI0LjUxNTgwMiAyNDguMzQ3NTggJiMxMDtMIDIyNS40MzAxMjUgMjQ4LjA5NTc0ICYjMTA7TCAyMjYuMzA5MjgxIDI0OC4wNzYwNjQgJiMxMDtMIDIyNy4xODg0MzcgMjQ4LjI3OTY1OSAmIzEwO0wgMjI4LjA2NzU5MyAyNDguNzEwMTQ2ICYjMTA7TCAyMjkuMDE3MDgyIDI0OS40MzIzMTUgJiMxMDtMIDIzMC4wMzY5MDMgMjUwLjUwNjEzNSAmIzEwO0wgMjMxLjEyNzA1NiAyNTEuOTkzMTU5ICYjMTA7TCAyMzIuMzIyNzA5IDI1NC4wMTk3MDcgJiMxMDtMIDIzMy42MjM4NiAyNTYuNjc5NzM2ICYjMTA7TCAyMzUuMDY1Njc2IDI2MC4xNTEwNjMgJiMxMDtMIDIzNi42ODMzMjMgMjY0LjY0NjQ1NiAmIzEwO0wgMjM4LjU0NzEzNCAyNzAuNTExMTgxICYjMTA7TCAyNDAuNjIxOTQyIDI3Ny43MjUyNzMgJiMxMDtMIDI0MC42OTIyNzUgMjc3LjQ3MDc1NSAmIzEwO0wgMjQzLjk5NzkwMiAyNjUuMDc2NSAmIzEwO0wgMjQ4LjI4ODE4MyAyNDkuMTMyOTY2ICYjMTA7TCAyNTAuNDMzMzI0IDI0Mi4wMjYzMzIgJiMxMDtMIDI1Mi4xMjEzMDQgMjM3LjE2MTM0OSAmIzEwO0wgMjUzLjU2MzEyIDIzMy42NTQ1MTEgJiMxMDtMIDI1NC43OTM5MzggMjMxLjIxNDk0NCAmIzEwO0wgMjU1Ljg0ODkyNiAyMjkuNTc3OTc4ICYjMTA7TCAyNTYuNzk4NDE0IDIyOC40OTM3MjUgJiMxMDtMIDI1Ny42NDI0MDQgMjI3Ljg1OTI0NiAmIzEwO0wgMjU4LjM4MDg5NSAyMjcuNTcwOTQgJiMxMDtMIDI1OS4wODQyMiAyMjcuNTM3MDIzICYjMTA7TCAyNTkuNzUyMzc5IDIyNy43MjkyMTMgJiMxMDtMIDI2MC40NTU3MDQgMjI4LjE3NDI1ICYjMTA7TCAyNjEuMTk0MTk1IDIyOC45MTU5ODkgJiMxMDtMIDI2Mi4wMDMwMTggMjMwLjA1ODAzOSAmIzEwO0wgMjYyLjg4MjE3NSAyMzEuNjk3ODM2ICYjMTA7TCAyNjMuODY2ODI5IDIzNC4wMzUwMjkgJiMxMDtMIDI2NC45MjE4MTcgMjM3LjEzMjgyMyAmIzEwO0wgMjY2LjA4MjMwMyAyNDEuMjUzNDE3ICYjMTA7TCAyNjcuMzQ4Mjg4IDI0Ni41OTc5OTEgJiMxMDtMIDI2OC43MTk3NzEgMjUzLjM3NDQzNCAmIzEwO0wgMjcwLjIzMTkyIDI2Mi4wMDE5MzkgJiMxMDtMIDI3MS44ODQ3MzMgMjcyLjc1MzkwMyAmIzEwO0wgMjcyLjU4ODA1OCAyNzcuNzI1MjczICYjMTA7TCAyNzIuNjIzMjI0IDI3Ny40NzA3NTMgJiMxMDtMIDI3NC41NTczNjggMjYyLjY0NzY4MSAmIzEwO0wgMjc2Ljc3Mjg0MSAyNDMuODg2NTA5ICYjMTA7TCAyNzkuNDgwNjQyIDIxOC45NDQyNCAmIzEwO0wgMjgzLjU5NTA5MiAxNzguNjgwNzMxICYjMTA7TCAyODguNDEyODY4IDEzMi4wNTk4MzggJiMxMDtMIDI5MS4wMTUxNyAxMDkuMDI3MTYgJiMxMDtMIDI5My4xMjUxNDQgOTIuMjQxNTEzICYjMTA7TCAyOTQuOTUzNzg5IDc5LjQxNTc3NCAmIzEwO0wgMjk2LjUzNjI3IDY5LjgwNjAyOSAmIzEwO0wgMjk3Ljk0MjkyIDYyLjU0MjIxMSAmIzEwO0wgMjk5LjIwODkwNCA1Ny4xMDQ5OTcgJiMxMDtMIDMwMC4zMzQyMjQgNTMuMTg5NDc0ICYjMTA7TCAzMDEuMzU0MDQ1IDUwLjQxMjIyMiAmIzEwO0wgMzAyLjIzMzIwMSA0OC42MjAwMTkgJiMxMDtMIDMwMy4wMDY4NTkgNDcuNTEwODE2ICYjMTA7TCAzMDMuNjc1MDE3IDQ2LjkwODU4ICYjMTA7TCAzMDQuMjcyODQ0IDQ2LjY1MDU4NCAmIzEwO0wgMzA0LjgzNTUwNCA0Ni42NTA1ODQgJiMxMDtMIDMwNS4zOTgxNjMgNDYuODg2MDUyICYjMTA7TCAzMDUuOTk1OTkgNDcuMzkzNzUgJiMxMDtMIDMwNi42NjQxNDggNDguMjczODUyICYjMTA7TCAzMDcuNDAyNjM5IDQ5LjYyNzg4NSAmIzEwO0wgMzA4LjI0NjYyOSA1MS42NjAxNzEgJiMxMDtMIDMwOS4xOTYxMTggNTQuNTU0NDc3ICYjMTA7TCAzMTAuMjUxMTA1IDU4LjUwNzUwMiAmIzEwO0wgMzExLjQ0Njc1NyA2My44OTQyNzIgJiMxMDtMIDMxMi43ODMwNzUgNzEuMDAxODg2ICYjMTA7TCAzMTQuMjYwMDU3IDgwLjEwNzQ3MiAmIzEwO0wgMzE1Ljk0ODAzNyA5MS45Nzg4MzIgJiMxMDtMIDMxNy44ODIxOCAxMDcuMjYzNjMzICYjMTA7TCAzMjAuMTY3OTg2IDEyNy4yMTk2NDkgJiMxMDtMIDMyMy4wODY3ODQgMTU0LjgwMjQwOSAmIzEwO0wgMzMyLjU0NjUwNCAyNDUuNzQ1NDEgJiMxMDtMIDMzNC45MDI2NDIgMjY1LjQ1ODY4NSAmIzEwO0wgMzM2LjUyMDI4OSAyNzcuNzI1MjczICYjMTA7TCAzMzguMzg0MSAyNjUuMDY0MDA1ICYjMTA7TCAzNDAuMDcyMDggMjU1LjA4MTMzMSAmIzEwO0wgMzQxLjU4NDIyOCAyNDcuNDA5ODU4ICYjMTA7TCAzNDIuOTkwODc4IDI0MS4zODk5NCAmIzEwO0wgMzQ0LjI1Njg2MyAyMzYuOTA3MTEgJiMxMDtMIDM0NS40MTczNDkgMjMzLjU3ODU3OSAmIzEwO0wgMzQ2LjQ3MjMzNiAyMzEuMTk2NDU2ICYjMTA7TCAzNDcuNDIxODI1IDIyOS41Njk2NzEgJiMxMDtMIDM0OC4yNjU4MTUgMjI4LjUyNzMyMSAmIzEwO0wgMzQ5LjAzOTQ3MiAyMjcuODk4MzA1ICYjMTA7TCAzNDkuNzQyNzk3IDIyNy41OTA5MzIgJiMxMDtMIDM1MC40MTA5NTYgMjI3LjUyNjE0MyAmIzEwO0wgMzUxLjA3OTExNCAyMjcuNjc2NDg5ICYjMTA7TCAzNTEuNzgyNDM5IDIyOC4wNTk3NzcgJiMxMDtMIDM1Mi41NTYwOTYgMjI4LjczODAwMyAmIzEwO0wgMzUzLjQzNTI1MyAyMjkuODIwMDQ0ICYjMTA7TCAzNTQuNDE5OTA3IDIzMS40MDI0MDQgJiMxMDtMIDM1NS41NDUyMjcgMjMzLjY1NDUxMSAmIzEwO0wgMzU2Ljg0NjM3OCAyMzYuNzkwOTY5ICYjMTA7TCAzNTguMzU4NTI3IDI0MS4wNTg5MTEgJiMxMDtMIDM2MC4xNTIwMDUgMjQ2LjgyNzUyNCAmIzEwO0wgMzYyLjQ3Mjk3NyAyNTUuMTAzNDI4ICYjMTA7TCAzNjguNDg2NDA1IDI3Ny43MjUyNzMgJiMxMDtMIDM2OC41NTY3MzcgMjc3LjQ3MTMxNCAmIzEwO0wgMzcxLjAxODM3NSAyNjkuMDExODgzICYjMTA7TCAzNzIuOTg3Njg0IDI2My4wMTUxNiAmIzEwO0wgMzc0LjY3NTY2NCAyNTguNTYxNzMzICYjMTA7TCAzNzYuMTUyNjQ2IDI1NS4yNTU4NzYgJiMxMDtMIDM3Ny40ODg5NjMgMjUyLjc3ODEwNCAmIzEwO0wgMzc4LjcxOTc4MiAyNTAuOTQ3NzQxICYjMTA7TCAzNzkuODQ1MTAyIDI0OS42NjMyNjggJiMxMDtMIDM4MC44NjQ5MjMgMjQ4LjgyMzY4MyAmIzEwO0wgMzgxLjgxNDQxMSAyNDguMzE5MjgyICYjMTA7TCAzODIuNzI4NzM0IDI0OC4wODQwNzggJiMxMDtMIDM4My42MDc4OSAyNDguMDg2MDYgJiMxMDtMIDM4NC40ODcwNDYgMjQ4LjMwNjY5NyAmIzEwO0wgMzg1LjQzNjUzNSAyNDguNzgzMjE1ICYjMTA7TCAzODYuNDU2MzU2IDI0OS41NTk2NiAmIzEwO0wgMzg3LjU0NjUwOSAyNTAuNjc2OTAxICYjMTA7TCAzODguNzc3MzI4IDI1Mi4yNzAzMTcgJiMxMDtMIDM5MC4xNDg4MTEgMjU0LjQyMjA4MiAmIzEwO0wgMzkxLjczMTI5MiAyNTcuMzM0MTQyICYjMTA7TCAzOTMuNjMwMjY5IDI2MS4zMjE5MDkgJiMxMDtMIDM5Ni4wOTE5MDYgMjY3LjA0OTk5NyAmIzEwO0wgNDAwLjQ1MjUyMSAyNzcuNzI1MjczICYjMTA7TCA0MDAuNTIyODUzIDI3Ny41NTU5MDUgJiMxMDtMIDQwMy4zNzEzMTkgMjcwLjk5MjI5OCAmIzEwO0wgNDA1LjQ0NjEyNyAyNjYuNzQwNTI4ICYjMTA7TCA0MDcuMjA0NDM5IDI2My42MTU0NDcgJiMxMDtMIDQwOC43NTE3NTQgMjYxLjI5MjE4NyAmIzEwO0wgNDEwLjE1ODQwNCAyNTkuNTYyNTk4ICYjMTA7TCA0MTEuNDU5NTU1IDI1OC4zMDczMyAmIzEwO0wgNDEyLjY1NTIwNyAyNTcuNDU2NDggJiMxMDtMIDQxMy43ODA1MjcgMjU2LjkyNTIyMSAmIzEwO0wgNDE0LjgzNTUxNCAyNTYuNjY1NDk5ICYjMTA7TCA0MTUuODkwNTAyIDI1Ni42MzQ3NDkgJiMxMDtMIDQxNi45NDU0ODkgMjU2LjgyODk3MyAmIzEwO0wgNDE4LjAzNTY0MyAyNTcuMjU5Mzc1ICYjMTA7TCA0MTkuMTk2MTI5IDI1Ny45NjM3MyAmIzEwO0wgNDIwLjQ2MjExMyAyNTkuMDA1MzcyICYjMTA7TCA0MjEuODMzNTk3IDI2MC40MzA3MTQgJiMxMDtMIDQyMy4zODA5MTIgMjYyLjM2OTY4OSAmIzEwO0wgNDI1LjE3NDM5IDI2NC45ODg3NSAmIzEwO0wgNDI3LjM4OTg2MyAyNjguNjQ0NTc2ICYjMTA7TCA0MzAuNzMwNjU3IDI3NC42NDc3NCAmIzEwO0wgNDMyLjQxODYzNiAyNzcuNzI1MjczICYjMTA7TCA0MzIuNDE4NjM2IDI3Ny43MjUyNzMiLz4mI3hhOyAgIDwvZz4mI3hhOyAgIDxnIGlkPSJsaW5lMmRfMTUiPiYjeGE7ICAgIDxwYXRoIHN0eWxlPSJmaWxsOiBub25lOyBzdHJva2U6ICNkNjI3Mjg7IHN0cm9rZS13aWR0aDogMzsgc3Ryb2tlLWxpbmVjYXA6IHNxdWFyZSIgY2xpcC1wYXRoPSJ1cmwoI3AzY2QwZDViZTA4KSIgZD0iTSA4MC43OTEzNjQgMjc3LjcyNTI3MyAmIzEwO0wgODYuNjI4OTYgMjcwLjg2MTk3MiAmIzEwO0wgODguOTE0NzY2IDI2OC41NTU4MjkgJiMxMDtMIDkwLjgxMzc0MyAyNjYuOTQ1Nzc1ICYjMTA7TCA5Mi40NjY1NTcgMjY1LjgyMjc3ICYjMTA7TCA5My45Nzg3MDUgMjY1LjA1MzQyNiAmIzEwO0wgOTUuMzg1MzU1IDI2NC41Nzg1NCAmIzEwO0wgOTYuNzIxNjcyIDI2NC4zNTQ0MjIgJiMxMDtMIDk4LjAyMjgyMyAyNjQuMzU1ODQxICYjMTA7TCA5OS4zMjM5NzQgMjY0LjU3NzI0MiAmIzEwO0wgMTAwLjY2MDI5MSAyNjUuMDMzMjY1ICYjMTA7TCAxMDIuMDMxNzc1IDI2NS43Mzc3MzUgJiMxMDtMIDEwMy41MDg3NTcgMjY2Ljc1Mzk4ICYjMTA7TCAxMDUuMDkxMjM4IDI2OC4xMjA0NjcgJiMxMDtMIDEwNi44NDk1NSAyNjkuOTQyNDQ1ICYjMTA7TCAxMDguODU0MDI2IDI3Mi4zNDk4NTIgJiMxMDtMIDExMS4zNTA4MyAyNzUuNzE1NTEzICYjMTA7TCAxMTIuNzU3NDc5IDI3Ny43MjUyNzMgJiMxMDtMIDExMi44Mjc4MTIgMjc3LjYyMzUzMyAmIzEwO0wgMTE4LjgwNjA3MyAyNjkuMTYxMzkgJiMxMDtMIDEyMC45ODYzOCAyNjYuNTA0Mzc5ICYjMTA7TCAxMjIuODE1MDI1IDI2NC42MTI2NSAmIzEwO0wgMTI0LjM5NzUwNiAyNjMuMjgwNzI4ICYjMTA7TCAxMjUuODM5MzIyIDI2Mi4zNDgxNDYgJiMxMDtMIDEyNy4xNzU2MzkgMjYxLjc0NDgwMiAmIzEwO0wgMTI4LjQwNjQ1OCAyNjEuNDI0NjY3ICYjMTA7TCAxMjkuNjAyMTEgMjYxLjMzODQxOCAmIzEwO0wgMTMwLjc5Nzc2MiAyNjEuNDc4NjMgJiMxMDtMIDEzMS45OTM0MTUgMjYxLjg0NzIwNyAmIzEwO0wgMTMzLjIyNDIzMyAyNjIuNDYzOTAyICYjMTA7TCAxMzQuNTI1Mzg0IDI2My4zNzIzMTEgJiMxMDtMIDEzNS45MzIwMzQgMjY0LjYzOTU4NyAmIzEwO0wgMTM3LjQ0NDE4MyAyNjYuMzEyMDYgJiMxMDtMIDEzOS4xMzIxNjIgMjY4LjUyMjY1NyAmIzEwO0wgMTQxLjA2NjMwNiAyNzEuNDM2MzMxICYjMTA7TCAxNDMuNDU3NjEgMjc1LjQ2NTM4NyAmIzEwO0wgMTQ0LjcyMzU5NSAyNzcuNzI1MjczICYjMTA7TCAxNDQuNzkzOTI4IDI3Ny41OTgwODQgJiMxMDtMIDE1MS4yOTk2ODMgMjY2LjA0OTM3OCAmIzEwO0wgMTUzLjM3NDQ5MSAyNjIuOTAzNDkyICYjMTA7TCAxNTUuMDk3NjM3IDI2MC42NzU0NjUgJiMxMDtMIDE1Ni42MDk3ODUgMjU5LjA3MTE5NSAmIzEwO0wgMTU3Ljk0NjEwMyAyNTcuOTYzNzMgJiMxMDtMIDE1OS4xNzY5MjEgMjU3LjIyNDcyOCAmIzEwO0wgMTYwLjMwMjI0MSAyNTYuNzk5NTg3ICYjMTA7TCAxNjEuMzkyMzk1IDI1Ni42MjU3NCAmIzEwO0wgMTYyLjQ0NzM4MiAyNTYuNjg2ODM5ICYjMTA7TCAxNjMuNTAyMzY5IDI1Ni45NzcyNjggJiMxMDtMIDE2NC41NTczNTcgMjU3LjQ5ODM5MSAmIzEwO0wgMTY1LjY4MjY3NiAyNTguMzA3MzMgJiMxMDtMIDE2Ni44NzgzMjkgMjU5LjQ0ODI3ICYjMTA7TCAxNjguMTc5NDggMjYxLjAwODgzOSAmIzEwO0wgMTY5LjU4NjEyOSAyNjMuMDUwNTUyICYjMTA7TCAxNzEuMTY4NjEgMjY1Ljc1MjY4OCAmIzEwO0wgMTcyLjk2MjA4OSAyNjkuMjcwMzY3ICYjMTA7TCAxNzUuMTA3MjMgMjczLjk4ODY4OCAmIzEwO0wgMTc2LjY4OTcxMSAyNzcuNzI1MjczICYjMTA7TCAxNzYuNzYwMDQzIDI3Ny41NTU2NTYgJiMxMDtMIDE4NC4zOTExMTggMjU5LjQxNzQ2OSAmIzEwO0wgMTg2LjI5MDA5NSAyNTUuNjYzOTQ3ICYjMTA7TCAxODcuODcyNTc2IDI1Mi45OTk0MzUgJiMxMDtMIDE4OS4yNDQwNiAyNTEuMDk3NDY3ICYjMTA7TCAxOTAuNDc0ODc4IDI0OS43NTMyODkgJiMxMDtMIDE5MS41NjUwMzIgMjQ4Ljg3NDI5NyAmIzEwO0wgMTkyLjU0OTY4NyAyNDguMzQ3NTggJiMxMDtMIDE5My40NjQwMDkgMjQ4LjA5NTc0ICYjMTA7TCAxOTQuMzQzMTY1IDI0OC4wNzYwNjQgJiMxMDtMIDE5NS4yMjIzMjEgMjQ4LjI3OTY1OSAmIzEwO0wgMTk2LjEwMTQ3NyAyNDguNzEwMTQ2ICYjMTA7TCAxOTcuMDUwOTY2IDI0OS40MzIzMTUgJiMxMDtMIDE5OC4wNzA3ODcgMjUwLjUwNjEzNSAmIzEwO0wgMTk5LjE2MDk0MSAyNTEuOTkzMTU5ICYjMTA7TCAyMDAuMzU2NTkzIDI1NC4wMTk3MDcgJiMxMDtMIDIwMS42NTc3NDQgMjU2LjY3OTczNiAmIzEwO0wgMjAzLjA5OTU2IDI2MC4xNTEwNjMgJiMxMDtMIDIwNC43MTcyMDcgMjY0LjY0NjQ1NiAmIzEwO0wgMjA2LjU4MTAxOCAyNzAuNTExMTgxICYjMTA7TCAyMDguNjU1ODI2IDI3Ny43MjUyNzMgJiMxMDtMIDIwOC43MjYxNTkgMjc3LjQ3MDc1NSAmIzEwO0wgMjEyLjAzMTc4NiAyNjUuMDc2NSAmIzEwO0wgMjE2LjMyMjA2OCAyNDkuMTMyOTY2ICYjMTA7TCAyMTguNDY3MjA4IDI0Mi4wMjYzMzIgJiMxMDtMIDIyMC4xNTUxODggMjM3LjE2MTM0OSAmIzEwO0wgMjIxLjU5NzAwNCAyMzMuNjU0NTExICYjMTA7TCAyMjIuODI3ODIzIDIzMS4yMTQ5NDQgJiMxMDtMIDIyMy44ODI4MSAyMjkuNTc3OTc4ICYjMTA7TCAyMjQuODMyMjk5IDIyOC40OTM3MjUgJiMxMDtMIDIyNS42NzYyODggMjI3Ljg1OTI0NiAmIzEwO0wgMjI2LjQxNDc4IDIyNy41NzA5NCAmIzEwO0wgMjI3LjExODEwNCAyMjcuNTM3MDIzICYjMTA7TCAyMjcuNzg2MjYzIDIyNy43MjkyMTMgJiMxMDtMIDIyOC40ODk1ODggMjI4LjE3NDI1ICYjMTA7TCAyMjkuMjI4MDc5IDIyOC45MTU5ODkgJiMxMDtMIDIzMC4wMzY5MDMgMjMwLjA1ODAzOSAmIzEwO0wgMjMwLjkxNjA1OSAyMzEuNjk3ODM2ICYjMTA7TCAyMzEuOTAwNzE0IDIzNC4wMzUwMjkgJiMxMDtMIDIzMi45NTU3MDEgMjM3LjEzMjgyMyAmIzEwO0wgMjM0LjExNjE4NyAyNDEuMjUzNDE3ICYjMTA7TCAyMzUuMzgyMTcyIDI0Ni41OTc5OTEgJiMxMDtMIDIzNi43NTM2NTUgMjUzLjM3NDQzNCAmIzEwO0wgMjM4LjI2NTgwNCAyNjIuMDAxOTM5ICYjMTA7TCAyMzkuOTE4NjE3IDI3Mi43NTM5MDMgJiMxMDtMIDI0MC42MjE5NDIgMjc3LjcyNTI3MyAmIzEwO0wgMjQwLjY1NzEwOCAyNzcuNDcwNzUzICYjMTA7TCAyNDIuNTkxMjUyIDI2Mi42NDc2ODEgJiMxMDtMIDI0NC44MDY3MjUgMjQzLjg4NjUwOSAmIzEwO0wgMjQ3LjUxNDUyNiAyMTguOTQ0MjQgJiMxMDtMIDI1MS42Mjg5NzYgMTc4LjY4MDczMSAmIzEwO0wgMjU2LjQ0Njc1MiAxMzIuMDU5ODM4ICYjMTA7TCAyNTkuMDQ5MDU0IDEwOS4wMjcxNiAmIzEwO0wgMjYxLjE1OTAyOSA5Mi4yNDE1MTMgJiMxMDtMIDI2Mi45ODc2NzMgNzkuNDE1Nzc0ICYjMTA7TCAyNjQuNTcwMTU0IDY5LjgwNjAyOSAmIzEwO0wgMjY1Ljk3NjgwNCA2Mi41NDIyMTEgJiMxMDtMIDI2Ny4yNDI3ODkgNTcuMTA0OTk3ICYjMTA7TCAyNjguMzY4MTA5IDUzLjE4OTQ3NCAmIzEwO0wgMjY5LjM4NzkzIDUwLjQxMjIyMiAmIzEwO0wgMjcwLjI2NzA4NiA0OC42MjAwMTkgJiMxMDtMIDI3MS4wNDA3NDMgNDcuNTEwODE2ICYjMTA7TCAyNzEuNzA4OTAyIDQ2LjkwODU4ICYjMTA7TCAyNzIuMzA2NzI4IDQ2LjY1MDU4NCAmIzEwO0wgMjcyLjg2OTM4OCA0Ni42NTA1ODQgJiMxMDtMIDI3My40MzIwNDggNDYuODg2MDUyICYjMTA7TCAyNzQuMDI5ODc0IDQ3LjM5Mzc1ICYjMTA7TCAyNzQuNjk4MDMyIDQ4LjI3Mzg1MiAmIzEwO0wgMjc1LjQzNjUyNCA0OS42Mjc4ODUgJiMxMDtMIDI3Ni4yODA1MTMgNTEuNjYwMTcxICYjMTA7TCAyNzcuMjMwMDAyIDU0LjU1NDQ3NyAmIzEwO0wgMjc4LjI4NDk4OSA1OC41MDc1MDIgJiMxMDtMIDI3OS40ODA2NDIgNjMuODk0MjcyICYjMTA7TCAyODAuODE2OTU5IDcxLjAwMTg4NiAmIzEwO0wgMjgyLjI5Mzk0MSA4MC4xMDc0NzIgJiMxMDtMIDI4My45ODE5MjEgOTEuOTc4ODMyICYjMTA7TCAyODUuOTE2MDY0IDEwNy4yNjM2MzMgJiMxMDtMIDI4OC4yMDE4NyAxMjcuMjE5NjQ5ICYjMTA7TCAyOTEuMTIwNjY4IDE1NC44MDI0MDkgJiMxMDtMIDMwMC41ODAzODggMjQ1Ljc0NTQxICYjMTA7TCAzMDIuOTM2NTI2IDI2NS40NTg2ODUgJiMxMDtMIDMwNC41NTQxNzQgMjc3LjcyNTI3MyAmIzEwO0wgMzA2LjQxNzk4NCAyNjUuMDY0MDA1ICYjMTA7TCAzMDguMTA1OTY0IDI1NS4wODEzMzEgJiMxMDtMIDMwOS42MTgxMTMgMjQ3LjQwOTg1OCAmIzEwO0wgMzExLjAyNDc2MiAyNDEuMzg5OTQgJiMxMDtMIDMxMi4yOTA3NDcgMjM2LjkwNzExICYjMTA7TCAzMTMuNDUxMjMzIDIzMy41Nzg1NzkgJiMxMDtMIDMxNC41MDYyMjEgMjMxLjE5NjQ1NiAmIzEwO0wgMzE1LjQ1NTcwOSAyMjkuNTY5NjcxICYjMTA7TCAzMTYuMjk5Njk5IDIyOC41MjczMjEgJiMxMDtMIDMxNy4wNzMzNTYgMjI3Ljg5ODMwNSAmIzEwO0wgMzE3Ljc3NjY4MSAyMjcuNTkwOTMyICYjMTA7TCAzMTguNDQ0ODQgMjI3LjUyNjE0MyAmIzEwO0wgMzE5LjExMjk5OSAyMjcuNjc2NDg5ICYjMTA7TCAzMTkuODE2MzIzIDIyOC4wNTk3NzcgJiMxMDtMIDMyMC41ODk5ODEgMjI4LjczODAwMyAmIzEwO0wgMzIxLjQ2OTEzNyAyMjkuODIwMDQ0ICYjMTA7TCAzMjIuNDUzNzkyIDIzMS40MDI0MDQgJiMxMDtMIDMyMy41NzkxMTIgMjMzLjY1NDUxMSAmIzEwO0wgMzI0Ljg4MDI2MyAyMzYuNzkwOTY5ICYjMTA7TCAzMjYuMzkyNDExIDI0MS4wNTg5MTEgJiMxMDtMIDMyOC4xODU4ODkgMjQ2LjgyNzUyNCAmIzEwO0wgMzMwLjUwNjg2MiAyNTUuMTAzNDI4ICYjMTA7TCAzMzYuNTIwMjg5IDI3Ny43MjUyNzMgJiMxMDtMIDMzNi41OTA2MjIgMjc3LjQ3MTMxNCAmIzEwO0wgMzM5LjA1MjI1OSAyNjkuMDExODgzICYjMTA7TCAzNDEuMDIxNTY4IDI2My4wMTUxNiAmIzEwO0wgMzQyLjcwOTU0OCAyNTguNTYxNzMzICYjMTA7TCAzNDQuMTg2NTMgMjU1LjI1NTg3NiAmIzEwO0wgMzQ1LjUyMjg0OCAyNTIuNzc4MTA0ICYjMTA7TCAzNDYuNzUzNjY2IDI1MC45NDc3NDEgJiMxMDtMIDM0Ny44Nzg5ODYgMjQ5LjY2MzI2OCAmIzEwO0wgMzQ4Ljg5ODgwNyAyNDguODIzNjgzICYjMTA7TCAzNDkuODQ4Mjk2IDI0OC4zMTkyODIgJiMxMDtMIDM1MC43NjI2MTggMjQ4LjA4NDA3OCAmIzEwO0wgMzUxLjY0MTc3NCAyNDguMDg2MDYgJiMxMDtMIDM1Mi41MjA5MyAyNDguMzA2Njk3ICYjMTA7TCAzNTMuNDcwNDE5IDI0OC43ODMyMTUgJiMxMDtMIDM1NC40OTAyNCAyNDkuNTU5NjYgJiMxMDtMIDM1NS41ODAzOTMgMjUwLjY3NjkwMSAmIzEwO0wgMzU2LjgxMTIxMiAyNTIuMjcwMzE3ICYjMTA7TCAzNTguMTgyNjk1IDI1NC40MjIwODIgJiMxMDtMIDM1OS43NjUxNzYgMjU3LjMzNDE0MiAmIzEwO0wgMzYxLjY2NDE1NCAyNjEuMzIxOTA5ICYjMTA7TCAzNjQuMTI1NzkxIDI2Ny4wNDk5OTcgJiMxMDtMIDM2OC40ODY0MDUgMjc3LjcyNTI3MyAmIzEwO0wgMzY4LjU1NjczNyAyNzcuNTU1OTA1ICYjMTA7TCAzNzEuNDA1MjAzIDI3MC45OTIyOTggJiMxMDtMIDM3My40ODAwMTIgMjY2Ljc0MDUyOCAmIzEwO0wgMzc1LjIzODMyNCAyNjMuNjE1NDQ3ICYjMTA7TCAzNzYuNzg1NjM5IDI2MS4yOTIxODcgJiMxMDtMIDM3OC4xOTIyODggMjU5LjU2MjU5OCAmIzEwO0wgMzc5LjQ5MzQzOSAyNTguMzA3MzMgJiMxMDtMIDM4MC42ODkwOTIgMjU3LjQ1NjQ4ICYjMTA7TCAzODEuODE0NDExIDI1Ni45MjUyMjEgJiMxMDtMIDM4Mi44NjkzOTkgMjU2LjY2NTQ5OSAmIzEwO0wgMzgzLjkyNDM4NiAyNTYuNjM0NzQ5ICYjMTA7TCAzODQuOTc5MzczIDI1Ni44Mjg5NzMgJiMxMDtMIDM4Ni4wNjk1MjcgMjU3LjI1OTM3NSAmIzEwO0wgMzg3LjIzMDAxMyAyNTcuOTYzNzMgJiMxMDtMIDM4OC40OTU5OTggMjU5LjAwNTM3MiAmIzEwO0wgMzg5Ljg2NzQ4MSAyNjAuNDMwNzE0ICYjMTA7TCAzOTEuNDE0Nzk2IDI2Mi4zNjk2ODkgJiMxMDtMIDM5My4yMDgyNzQgMjY0Ljk4ODc1ICYjMTA7TCAzOTUuNDIzNzQ4IDI2OC42NDQ1NzYgJiMxMDtMIDM5OC43NjQ1NDEgMjc0LjY0Nzc0ICYjMTA7TCA0MDAuNDUyNTIxIDI3Ny43MjUyNzMgJiMxMDtMIDQwMC40ODc2ODcgMjc3LjY2MTczICYjMTA7TCA0MDMuNjUyNjQ5IDI3Mi4xNzUxMDIgJiMxMDtMIDQwNS44MzI5NTYgMjY4LjgyMjEyNiAmIzEwO0wgNDA3LjY2MTYwMSAyNjYuMzk3MjIxICYjMTA7TCA0MDkuMjc5MjQ4IDI2NC42MDQ0MjIgJiMxMDtMIDQxMC43NTYyMyAyNjMuMjg5MDM4ICYjMTA7TCA0MTIuMTI3NzE0IDI2Mi4zNjEyMDUgJiMxMDtMIDQxMy4zOTM2OTggMjYxLjc2NTU4MSAmIzEwO0wgNDE0LjYyNDUxNyAyNjEuNDMxMTEyICYjMTA7TCA0MTUuODIwMTY5IDI2MS4zMzc3ODEgJiMxMDtMIDQxNy4wMTU4MjIgMjYxLjQ3MDE0MSAmIzEwO0wgNDE4LjI0NjY0IDI2MS44MzYzMDMgJiMxMDtMIDQxOS41MTI2MjUgMjYyLjQ0NjYzMyAmIzEwO0wgNDIwLjg4NDEwOCAyNjMuMzU5ODQyICYjMTA7TCA0MjIuMzk2MjU3IDI2NC42NDU2NDMgJiMxMDtMIDQyNC4wODQyMzcgMjY2LjM4NjA1NyAmIzEwO0wgNDI2LjA1MzU0NiAyNjguNzUzMDkgJiMxMDtMIDQyOC41NTAzNSAyNzIuMTMwMzQ1ICYjMTA7TCA0MzIuNDE4NjM2IDI3Ny43MjUyNzMgJiMxMDtMIDQzMi40MTg2MzYgMjc3LjcyNTI3MyIvPiYjeGE7ICAgPC9nPiYjeGE7ICAgPGcgaWQ9ImxpbmUyZF8xNiI+JiN4YTsgICAgPHBhdGggc3R5bGU9ImZpbGw6IG5vbmU7IHN0cm9rZTogIzk0NjdiZDsgc3Ryb2tlLXdpZHRoOiAzOyBzdHJva2UtbGluZWNhcDogc3F1YXJlIiBjbGlwLXBhdGg9InVybCgjcDNjZDBkNWJlMDgpIiBkPSJNIDgwLjc5MTM2NCAyNzcuNzI1MjczICYjMTA7TCA4Ni45MTAyOSAyNjkuMDcwMDcyICYjMTA7TCA4OS4wOTA1OTcgMjY2LjQyNTM4MSAmIzEwO0wgOTAuOTE5MjQyIDI2NC41NDcwODggJiMxMDtMIDkyLjUwMTcyMyAyNjMuMjI4Nzg2ICYjMTA7TCA5My45NDM1MzkgMjYyLjMwOTk3MSAmIzEwO0wgOTUuMjc5ODU2IDI2MS43MjAzMTkgJiMxMDtMIDk2LjUxMDY3NSAyNjEuNDEzMzk5ICYjMTA7TCA5Ny43MDYzMjcgMjYxLjM0MDM2NCAmIzEwO0wgOTguOTAxOTc5IDI2MS40OTM5ODYgJiMxMDtMIDEwMC4wOTc2MzIgMjYxLjg3NTk5ICYjMTA7TCAxMDEuMzI4NDUgMjYyLjUwNjMzMyAmIzEwO0wgMTAyLjYyOTYwMSAyNjMuNDI4NzU1ICYjMTA7TCAxMDQuMDM2MjUxIDI2NC43MTA0MzkgJiMxMDtMIDEwNS41NDgzOTkgMjY2LjM5NzIyMSAmIzEwO0wgMTA3LjIzNjM3OSAyNjguNjIxOTQxICYjMTA7TCAxMDkuMjA1Njg5IDI3MS42MDUyODggJiMxMDtMIDExMS42MzIxNiAyNzUuNzEzMjA1ICYjMTA7TCAxMTIuNzU3NDc5IDI3Ny43MjUyNzMgJiMxMDtMIDExMi43OTI2NDYgMjc3LjY2MTY5NSAmIzEwO0wgMTE5LjM2ODczMyAyNjUuOTkyNTU0ICYjMTA7TCAxMjEuNDQzNTQyIDI2Mi44NTQyMTIgJiMxMDtMIDEyMy4xNjY2ODggMjYwLjYzNDIyMyAmIzEwO0wgMTI0LjY3ODgzNiAyNTkuMDM4MTgyICYjMTA7TCAxMjYuMDE1MTUzIDI1Ny45Mzg3ODEgJiMxMDtMIDEyNy4yNDU5NzIgMjU3LjIwNzc1NiAmIzEwO0wgMTI4LjM3MTI5MiAyNTYuNzkwMjggJiMxMDtMIDEyOS40MjYyNzkgMjU2LjYyNTc0ICYjMTA7TCAxMzAuNDgxMjY2IDI1Ni42ODY4MzkgJiMxMDtMIDEzMS41MzYyNTQgMjU2Ljk3NzI2OCAmIzEwO0wgMTMyLjU5MTI0MSAyNTcuNDk4MzkxICYjMTA7TCAxMzMuNzE2NTYxIDI1OC4zMDczMyAmIzEwO0wgMTM0LjkxMjIxMyAyNTkuNDQ4MjcgJiMxMDtMIDEzNi4yMTMzNjQgMjYxLjAwODgzOSAmIzEwO0wgMTM3LjYyMDAxNCAyNjMuMDUwNTUyICYjMTA7TCAxMzkuMjAyNDk1IDI2NS43NTI2ODggJiMxMDtMIDE0MC45OTU5NzMgMjY5LjI3MDM2NyAmIzEwO0wgMTQzLjE0MTExNCAyNzMuOTg4Njg4ICYjMTA7TCAxNDQuNzIzNTk1IDI3Ny43MjUyNzMgJiMxMDtMIDE0NC43OTM5MjggMjc3LjU1NTY1NiAmIzEwO0wgMTUyLjQyNTAwMiAyNTkuNDE3NDY5ICYjMTA7TCAxNTQuMzIzOTggMjU1LjY2Mzk0NyAmIzEwO0wgMTU1LjkwNjQ2MSAyNTIuOTk5NDM1ICYjMTA7TCAxNTcuMjc3OTQ0IDI1MS4wOTc0NjcgJiMxMDtMIDE1OC41MDg3NjMgMjQ5Ljc1MzI4OSAmIzEwO0wgMTU5LjU5ODkxNiAyNDguODc0Mjk3ICYjMTA7TCAxNjAuNTgzNTcxIDI0OC4zNDc1OCAmIzEwO0wgMTYxLjQ5Nzg5MyAyNDguMDk1NzQgJiMxMDtMIDE2Mi4zNzcwNDkgMjQ4LjA3NjA2NCAmIzEwO0wgMTYzLjI1NjIwNiAyNDguMjc5NjU5ICYjMTA7TCAxNjQuMTM1MzYyIDI0OC43MTAxNDYgJiMxMDtMIDE2NS4wODQ4NSAyNDkuNDMyMzE1ICYjMTA7TCAxNjYuMTA0NjcxIDI1MC41MDYxMzUgJiMxMDtMIDE2Ny4xOTQ4MjUgMjUxLjk5MzE1OSAmIzEwO0wgMTY4LjM5MDQ3NyAyNTQuMDE5NzA3ICYjMTA7TCAxNjkuNjkxNjI4IDI1Ni42Nzk3MzYgJiMxMDtMIDE3MS4xMzM0NDQgMjYwLjE1MTA2MyAmIzEwO0wgMTcyLjc1MTA5MSAyNjQuNjQ2NDU2ICYjMTA7TCAxNzQuNjE0OTAyIDI3MC41MTExODEgJiMxMDtMIDE3Ni42ODk3MTEgMjc3LjcyNTI3MyAmIzEwO0wgMTc2Ljc2MDA0MyAyNzcuNDcwNzU1ICYjMTA7TCAxODAuMDY1NjcgMjY1LjA3NjUgJiMxMDtMIDE4NC4zNTU5NTIgMjQ5LjEzMjk2NiAmIzEwO0wgMTg2LjUwMTA5MyAyNDIuMDI2MzMyICYjMTA7TCAxODguMTg5MDcyIDIzNy4xNjEzNDkgJiMxMDtMIDE4OS42MzA4ODggMjMzLjY1NDUxMSAmIzEwO0wgMTkwLjg2MTcwNyAyMzEuMjE0OTQ0ICYjMTA7TCAxOTEuOTE2Njk0IDIyOS41Nzc5NzggJiMxMDtMIDE5Mi44NjYxODMgMjI4LjQ5MzcyNSAmIzEwO0wgMTkzLjcxMDE3MyAyMjcuODU5MjQ2ICYjMTA7TCAxOTQuNDQ4NjY0IDIyNy41NzA5NCAmIzEwO0wgMTk1LjE1MTk4OSAyMjcuNTM3MDIzICYjMTA7TCAxOTUuODIwMTQ3IDIyNy43MjkyMTMgJiMxMDtMIDE5Ni41MjM0NzIgMjI4LjE3NDI1ICYjMTA7TCAxOTcuMjYxOTYzIDIyOC45MTU5ODkgJiMxMDtMIDE5OC4wNzA3ODcgMjMwLjA1ODAzOSAmIzEwO0wgMTk4Ljk0OTk0MyAyMzEuNjk3ODM2ICYjMTA7TCAxOTkuOTM0NTk4IDIzNC4wMzUwMjkgJiMxMDtMIDIwMC45ODk1ODUgMjM3LjEzMjgyMyAmIzEwO0wgMjAyLjE1MDA3MSAyNDEuMjUzNDE3ICYjMTA7TCAyMDMuNDE2MDU2IDI0Ni41OTc5OTEgJiMxMDtMIDIwNC43ODc1NCAyNTMuMzc0NDM0ICYjMTA7TCAyMDYuMjk5Njg4IDI2Mi4wMDE5MzkgJiMxMDtMIDIwNy45NTI1MDIgMjcyLjc1MzkwMyAmIzEwO0wgMjA4LjY1NTgyNiAyNzcuNzI1MjczICYjMTA7TCAyMDguNjkwOTkzIDI3Ny40NzA3NTMgJiMxMDtMIDIxMC42MjUxMzYgMjYyLjY0NzY4MSAmIzEwO0wgMjEyLjg0MDYwOSAyNDMuODg2NTA5ICYjMTA7TCAyMTUuNTQ4NDEgMjE4Ljk0NDI0ICYjMTA7TCAyMTkuNjYyODYxIDE3OC42ODA3MzEgJiMxMDtMIDIyNC40ODA2MzYgMTMyLjA1OTgzOCAmIzEwO0wgMjI3LjA4MjkzOCAxMDkuMDI3MTYgJiMxMDtMIDIyOS4xOTI5MTMgOTIuMjQxNTEzICYjMTA7TCAyMzEuMDIxNTU4IDc5LjQxNTc3NCAmIzEwO0wgMjMyLjYwNDAzOSA2OS44MDYwMjkgJiMxMDtMIDIzNC4wMTA2ODggNjIuNTQyMjExICYjMTA7TCAyMzUuMjc2NjczIDU3LjEwNDk5NyAmIzEwO0wgMjM2LjQwMTk5MyA1My4xODk0NzQgJiMxMDtMIDIzNy40MjE4MTQgNTAuNDEyMjIyICYjMTA7TCAyMzguMzAwOTcgNDguNjIwMDE5ICYjMTA7TCAyMzkuMDc0NjI3IDQ3LjUxMDgxNiAmIzEwO0wgMjM5Ljc0Mjc4NiA0Ni45MDg1OCAmIzEwO0wgMjQwLjM0MDYxMiA0Ni42NTA1ODQgJiMxMDtMIDI0MC45MDMyNzIgNDYuNjUwNTg0ICYjMTA7TCAyNDEuNDY1OTMyIDQ2Ljg4NjA1MiAmIzEwO0wgMjQyLjA2Mzc1OCA0Ny4zOTM3NSAmIzEwO0wgMjQyLjczMTkxNyA0OC4yNzM4NTIgJiMxMDtMIDI0My40NzA0MDggNDkuNjI3ODg1ICYjMTA7TCAyNDQuMzE0Mzk4IDUxLjY2MDE3MSAmIzEwO0wgMjQ1LjI2Mzg4NiA1NC41NTQ0NzcgJiMxMDtMIDI0Ni4zMTg4NzQgNTguNTA3NTAyICYjMTA7TCAyNDcuNTE0NTI2IDYzLjg5NDI3MiAmIzEwO0wgMjQ4Ljg1MDg0MyA3MS4wMDE4ODYgJiMxMDtMIDI1MC4zMjc4MjUgODAuMTA3NDcyICYjMTA7TCAyNTIuMDE1ODA1IDkxLjk3ODgzMiAmIzEwO0wgMjUzLjk0OTk0OSAxMDcuMjYzNjMzICYjMTA7TCAyNTYuMjM1NzU0IDEyNy4yMTk2NDkgJiMxMDtMIDI1OS4xNTQ1NTMgMTU0LjgwMjQwOSAmIzEwO0wgMjY4LjYxNDI3MiAyNDUuNzQ1NDEgJiMxMDtMIDI3MC45NzA0MTEgMjY1LjQ1ODY4NSAmIzEwO0wgMjcyLjU4ODA1OCAyNzcuNzI1MjczICYjMTA7TCAyNzQuNDUxODY5IDI2NS4wNjQwMDUgJiMxMDtMIDI3Ni4xMzk4NDggMjU1LjA4MTMzMSAmIzEwO0wgMjc3LjY1MTk5NyAyNDcuNDA5ODU4ICYjMTA7TCAyNzkuMDU4NjQ3IDI0MS4zODk5NCAmIzEwO0wgMjgwLjMyNDYzMiAyMzYuOTA3MTEgJiMxMDtMIDI4MS40ODUxMTggMjMzLjU3ODU3OSAmIzEwO0wgMjgyLjU0MDEwNSAyMzEuMTk2NDU2ICYjMTA7TCAyODMuNDg5NTkzIDIyOS41Njk2NzEgJiMxMDtMIDI4NC4zMzM1ODMgMjI4LjUyNzMyMSAmIzEwO0wgMjg1LjEwNzI0MSAyMjcuODk4MzA1ICYjMTA7TCAyODUuODEwNTY2IDIyNy41OTA5MzIgJiMxMDtMIDI4Ni40Nzg3MjQgMjI3LjUyNjE0MyAmIzEwO0wgMjg3LjE0Njg4MyAyMjcuNjc2NDg5ICYjMTA7TCAyODcuODUwMjA4IDIyOC4wNTk3NzcgJiMxMDtMIDI4OC42MjM4NjUgMjI4LjczODAwMyAmIzEwO0wgMjg5LjUwMzAyMSAyMjkuODIwMDQ0ICYjMTA7TCAyOTAuNDg3Njc2IDIzMS40MDI0MDQgJiMxMDtMIDI5MS42MTI5OTYgMjMzLjY1NDUxMSAmIzEwO0wgMjkyLjkxNDE0NyAyMzYuNzkwOTY5ICYjMTA7TCAyOTQuNDI2Mjk1IDI0MS4wNTg5MTEgJiMxMDtMIDI5Ni4yMTk3NzQgMjQ2LjgyNzUyNCAmIzEwO0wgMjk4LjU0MDc0NiAyNTUuMTAzNDI4ICYjMTA7TCAzMDQuNTU0MTc0IDI3Ny43MjUyNzMgJiMxMDtMIDMwNC42MjQ1MDYgMjc3LjQ3MTMxNCAmIzEwO0wgMzA3LjA4NjE0MyAyNjkuMDExODgzICYjMTA7TCAzMDkuMDU1NDUzIDI2My4wMTUxNiAmIzEwO0wgMzEwLjc0MzQzMiAyNTguNTYxNzMzICYjMTA7TCAzMTIuMjIwNDE1IDI1NS4yNTU4NzYgJiMxMDtMIDMxMy41NTY3MzIgMjUyLjc3ODEwNCAmIzEwO0wgMzE0Ljc4NzU1MSAyNTAuOTQ3NzQxICYjMTA7TCAzMTUuOTEyODcgMjQ5LjY2MzI2OCAmIzEwO0wgMzE2LjkzMjY5MSAyNDguODIzNjgzICYjMTA7TCAzMTcuODgyMTggMjQ4LjMxOTI4MiAmIzEwO0wgMzE4Ljc5NjUwMiAyNDguMDg0MDc4ICYjMTA7TCAzMTkuNjc1NjU4IDI0OC4wODYwNiAmIzEwO0wgMzIwLjU1NDgxNSAyNDguMzA2Njk3ICYjMTA7TCAzMjEuNTA0MzAzIDI0OC43ODMyMTUgJiMxMDtMIDMyMi41MjQxMjQgMjQ5LjU1OTY2ICYjMTA7TCAzMjMuNjE0Mjc4IDI1MC42NzY5MDEgJiMxMDtMIDMyNC44NDUwOTYgMjUyLjI3MDMxNyAmIzEwO0wgMzI2LjIxNjU4IDI1NC40MjIwODIgJiMxMDtMIDMyNy43OTkwNjEgMjU3LjMzNDE0MiAmIzEwO0wgMzI5LjY5ODAzOCAyNjEuMzIxOTA5ICYjMTA7TCAzMzIuMTU5Njc1IDI2Ny4wNDk5OTcgJiMxMDtMIDMzNi41MjAyODkgMjc3LjcyNTI3MyAmIzEwO0wgMzM2LjU5MDYyMiAyNzcuNTU1OTA1ICYjMTA7TCAzMzkuNDM5MDg3IDI3MC45OTIyOTggJiMxMDtMIDM0MS41MTM4OTYgMjY2Ljc0MDUyOCAmIzEwO0wgMzQzLjI3MjIwOCAyNjMuNjE1NDQ3ICYjMTA7TCAzNDQuODE5NTIzIDI2MS4yOTIxODcgJiMxMDtMIDM0Ni4yMjYxNzMgMjU5LjU2MjU5OCAmIzEwO0wgMzQ3LjUyNzMyNCAyNTguMzA3MzMgJiMxMDtMIDM0OC43MjI5NzYgMjU3LjQ1NjQ4ICYjMTA7TCAzNDkuODQ4Mjk2IDI1Ni45MjUyMjEgJiMxMDtMIDM1MC45MDMyODMgMjU2LjY2NTQ5OSAmIzEwO0wgMzUxLjk1ODI3IDI1Ni42MzQ3NDkgJiMxMDtMIDM1My4wMTMyNTggMjU2LjgyODk3MyAmIzEwO0wgMzU0LjEwMzQxMSAyNTcuMjU5Mzc1ICYjMTA7TCAzNTUuMjYzODk3IDI1Ny45NjM3MyAmIzEwO0wgMzU2LjUyOTg4MiAyNTkuMDA1MzcyICYjMTA7TCAzNTcuOTAxMzY2IDI2MC40MzA3MTQgJiMxMDtMIDM1OS40NDg2OCAyNjIuMzY5Njg5ICYjMTA7TCAzNjEuMjQyMTU5IDI2NC45ODg3NSAmIzEwO0wgMzYzLjQ1NzYzMiAyNjguNjQ0NTc2ICYjMTA7TCAzNjYuNzk4NDI1IDI3NC42NDc3NCAmIzEwO0wgMzY4LjQ4NjQwNSAyNzcuNzI1MjczICYjMTA7TCAzNjguNTIxNTcxIDI3Ny42NjE3MyAmIzEwO0wgMzcxLjY4NjUzMyAyNzIuMTc1MTAyICYjMTA7TCAzNzMuODY2ODQgMjY4LjgyMjEyNiAmIzEwO0wgMzc1LjY5NTQ4NSAyNjYuMzk3MjIxICYjMTA7TCAzNzcuMzEzMTMyIDI2NC42MDQ0MjIgJiMxMDtMIDM3OC43OTAxMTQgMjYzLjI4OTAzOCAmIzEwO0wgMzgwLjE2MTU5OCAyNjIuMzYxMjA1ICYjMTA7TCAzODEuNDI3NTgzIDI2MS43NjU1ODEgJiMxMDtMIDM4Mi42NTg0MDEgMjYxLjQzMTExMiAmIzEwO0wgMzgzLjg1NDA1NCAyNjEuMzM3NzgxICYjMTA7TCAzODUuMDQ5NzA2IDI2MS40NzAxNDEgJiMxMDtMIDM4Ni4yODA1MjQgMjYxLjgzNjMwMyAmIzEwO0wgMzg3LjU0NjUwOSAyNjIuNDQ2NjMzICYjMTA7TCAzODguOTE3OTkzIDI2My4zNTk4NDIgJiMxMDtMIDM5MC40MzAxNDEgMjY0LjY0NTY0MyAmIzEwO0wgMzkyLjExODEyMSAyNjYuMzg2MDU3ICYjMTA7TCAzOTQuMDg3NDMxIDI2OC43NTMwOSAmIzEwO0wgMzk2LjU4NDIzNCAyNzIuMTMwMzQ1ICYjMTA7TCA0MDAuNDUyNTIxIDI3Ny43MjUyNzMgJiMxMDtMIDQwMC41NTgwMTkgMjc3LjU3MjgzMiAmIzEwO0wgNDAzLjkzMzk3OSAyNzIuODk0MTk5ICYjMTA7TCA0MDYuMTg0NjE4IDI3MC4xNDA1NDggJiMxMDtMIDQwOC4wODM1OTYgMjY4LjE1MzkwMyAmIzEwO0wgNDA5Ljc3MTU3NSAyNjYuNjk5NzQ4ICYjMTA7TCA0MTEuMzE4ODkgMjY1LjY1NDY4MSAmIzEwO0wgNDEyLjc2MDcwNiAyNjQuOTQ1OTg0ICYjMTA7TCA0MTQuMTMyMTkgMjY0LjUxODQ0OCAmIzEwO0wgNDE1LjQ2ODUwNyAyNjQuMzM2OTUxICYjMTA7TCA0MTYuNzY5NjU4IDI2NC4zODI3OTMgJiMxMDtMIDQxOC4xMDU5NzUgMjY0LjY1NDI0MyAmIzEwO0wgNDE5LjQ3NzQ1OSAyNjUuMTYwODYgJiMxMDtMIDQyMC45NTQ0NDEgMjY1Ljk1MDMzNiAmIzEwO0wgNDIyLjUzNjkyMiAyNjcuMDUzOTM1ICYjMTA7TCA0MjQuMzMwNCAyNjguNTg4NTEzICYjMTA7TCA0MjYuNDA1MjA5IDI3MC42NzI4MDcgJiMxMDtMIDQyOS4wNDI2NzcgMjczLjY2MDEwMiAmIzEwO0wgNDMyLjQxODYzNiAyNzcuNzI1MjczICYjMTA7TCA0MzIuNDE4NjM2IDI3Ny43MjUyNzMiLz4mI3hhOyAgIDwvZz4mI3hhOyAgIDxnIGlkPSJsaW5lMmRfMTciPiYjeGE7ICAgIDxwYXRoIHN0eWxlPSJmaWxsOiBub25lOyBzdHJva2U6ICM4YzU2NGI7IHN0cm9rZS13aWR0aDogMzsgc3Ryb2tlLWxpbmVjYXA6IHNxdWFyZSIgY2xpcC1wYXRoPSJ1cmwoI3AzY2QwZDViZTA4KSIgZD0iTSA4MC43OTEzNjQgMjc3LjcyNTI3MyAmIzEwO0wgODcuNDM3Nzg0IDI2NS45MzU4MzYgJiMxMDtMIDg5LjUxMjU5MiAyNjIuODA1MDggJiMxMDtMIDkxLjIzNTczOCAyNjAuNTkzMTYgJiMxMDtMIDkyLjc0Nzg4NyAyNTkuMDA1MzcyICYjMTA7TCA5NC4wODQyMDQgMjU3LjkxNDA1MyAmIzEwO0wgOTUuMzE1MDIyIDI1Ny4xOTEwMTggJiMxMDtMIDk2LjQ0MDM0MiAyNTYuNzgxMjE3ICYjMTA7TCA5Ny40OTUzMjkgMjU2LjYyNDExNSAmIzEwO0wgOTguNTUwMzE3IDI1Ni42OTI4MTEgJiMxMDtMIDk5LjYwNTMwNCAyNTYuOTkwOTIxICYjMTA7TCAxMDAuNjk1NDU4IDI1Ny41NDEzMjMgJiMxMDtMIDEwMS44MjA3NzcgMjU4LjM2NjQ4MyAmIzEwO0wgMTAzLjAxNjQzIDI1OS41MjQyNDYgJiMxMDtMIDEwNC4zMTc1ODEgMjYxLjEwMjM2OCAmIzEwO0wgMTA1Ljc1OTM5NyAyNjMuMjE3ODA2ICYjMTA7TCAxMDcuMzQxODc4IDI2NS45NDY5NDUgJiMxMDtMIDEwOS4xNzA1MjIgMjY5LjU2NDI5MyAmIzEwO0wgMTExLjM1MDgzIDI3NC4zOTUwNDIgJiMxMDtMIDExMi43NTc0NzkgMjc3LjcyNTI3MyAmIzEwO0wgMTEyLjgyNzgxMiAyNzcuNTU1NjU2ICYjMTA7TCAxMjAuNDU4ODg3IDI1OS40MTc0NjkgJiMxMDtMIDEyMi4zNTc4NjQgMjU1LjY2Mzk0NyAmIzEwO0wgMTIzLjk0MDM0NSAyNTIuOTk5NDM1ICYjMTA7TCAxMjUuMzExODI4IDI1MS4wOTc0NjcgJiMxMDtMIDEyNi41NDI2NDcgMjQ5Ljc1MzI4OSAmIzEwO0wgMTI3LjYzMjgwMSAyNDguODc0Mjk3ICYjMTA7TCAxMjguNjE3NDU1IDI0OC4zNDc1OCAmIzEwO0wgMTI5LjUzMTc3OCAyNDguMDk1NzQgJiMxMDtMIDEzMC40MTA5MzQgMjQ4LjA3NjA2NCAmIzEwO0wgMTMxLjI5MDA5IDI0OC4yNzk2NTkgJiMxMDtMIDEzMi4xNjkyNDYgMjQ4LjcxMDE0NiAmIzEwO0wgMTMzLjExODczNSAyNDkuNDMyMzE1ICYjMTA7TCAxMzQuMTM4NTU2IDI1MC41MDYxMzUgJiMxMDtMIDEzNS4yMjg3MDkgMjUxLjk5MzE1OSAmIzEwO0wgMTM2LjQyNDM2MSAyNTQuMDE5NzA3ICYjMTA7TCAxMzcuNzI1NTEzIDI1Ni42Nzk3MzYgJiMxMDtMIDEzOS4xNjczMjkgMjYwLjE1MTA2MyAmIzEwO0wgMTQwLjc4NDk3NiAyNjQuNjQ2NDU2ICYjMTA7TCAxNDIuNjQ4Nzg3IDI3MC41MTExODEgJiMxMDtMIDE0NC43MjM1OTUgMjc3LjcyNTI3MyAmIzEwO0wgMTQ0Ljc5MzkyOCAyNzcuNDcwNzU1ICYjMTA7TCAxNDguMDk5NTU0IDI2NS4wNzY1ICYjMTA7TCAxNTIuMzg5ODM2IDI0OS4xMzI5NjYgJiMxMDtMIDE1NC41MzQ5NzcgMjQyLjAyNjMzMiAmIzEwO0wgMTU2LjIyMjk1NyAyMzcuMTYxMzQ5ICYjMTA7TCAxNTcuNjY0NzczIDIzMy42NTQ1MTEgJiMxMDtMIDE1OC44OTU1OTEgMjMxLjIxNDk0NCAmIzEwO0wgMTU5Ljk1MDU3OSAyMjkuNTc3OTc4ICYjMTA7TCAxNjAuOTAwMDY3IDIyOC40OTM3MjUgJiMxMDtMIDE2MS43NDQwNTcgMjI3Ljg1OTI0NiAmIzEwO0wgMTYyLjQ4MjU0OCAyMjcuNTcwOTQgJiMxMDtMIDE2My4xODU4NzMgMjI3LjUzNzAyMyAmIzEwO0wgMTYzLjg1NDAzMiAyMjcuNzI5MjEzICYjMTA7TCAxNjQuNTU3MzU3IDIyOC4xNzQyNSAmIzEwO0wgMTY1LjI5NTg0OCAyMjguOTE1OTg5ICYjMTA7TCAxNjYuMTA0NjcxIDIzMC4wNTgwMzkgJiMxMDtMIDE2Ni45ODM4MjcgMjMxLjY5NzgzNiAmIzEwO0wgMTY3Ljk2ODQ4MiAyMzQuMDM1MDI5ICYjMTA7TCAxNjkuMDIzNDcgMjM3LjEzMjgyMyAmIzEwO0wgMTcwLjE4Mzk1NiAyNDEuMjUzNDE3ICYjMTA7TCAxNzEuNDQ5OTQgMjQ2LjU5Nzk5MSAmIzEwO0wgMTcyLjgyMTQyNCAyNTMuMzc0NDM0ICYjMTA7TCAxNzQuMzMzNTcyIDI2Mi4wMDE5MzkgJiMxMDtMIDE3NS45ODYzODYgMjcyLjc1MzkwMyAmIzEwO0wgMTc2LjY4OTcxMSAyNzcuNzI1MjczICYjMTA7TCAxNzYuNzI0ODc3IDI3Ny40NzA3NTMgJiMxMDtMIDE3OC42NTkwMiAyNjIuNjQ3NjgxICYjMTA7TCAxODAuODc0NDk0IDI0My44ODY1MDkgJiMxMDtMIDE4My41ODIyOTUgMjE4Ljk0NDI0ICYjMTA7TCAxODcuNjk2NzQ1IDE3OC42ODA3MzEgJiMxMDtMIDE5Mi41MTQ1MiAxMzIuMDU5ODM4ICYjMTA7TCAxOTUuMTE2ODIzIDEwOS4wMjcxNiAmIzEwO0wgMTk3LjIyNjc5NyA5Mi4yNDE1MTMgJiMxMDtMIDE5OS4wNTU0NDIgNzkuNDE1Nzc0ICYjMTA7TCAyMDAuNjM3OTIzIDY5LjgwNjAyOSAmIzEwO0wgMjAyLjA0NDU3MyA2Mi41NDIyMTEgJiMxMDtMIDIwMy4zMTA1NTcgNTcuMTA0OTk3ICYjMTA7TCAyMDQuNDM1ODc3IDUzLjE4OTQ3NCAmIzEwO0wgMjA1LjQ1NTY5OCA1MC40MTIyMjIgJiMxMDtMIDIwNi4zMzQ4NTQgNDguNjIwMDE5ICYjMTA7TCAyMDcuMTA4NTEyIDQ3LjUxMDgxNiAmIzEwO0wgMjA3Ljc3NjY3IDQ2LjkwODU4ICYjMTA7TCAyMDguMzc0NDk2IDQ2LjY1MDU4NCAmIzEwO0wgMjA4LjkzNzE1NiA0Ni42NTA1ODQgJiMxMDtMIDIwOS40OTk4MTYgNDYuODg2MDUyICYjMTA7TCAyMTAuMDk3NjQyIDQ3LjM5Mzc1ICYjMTA7TCAyMTAuNzY1ODAxIDQ4LjI3Mzg1MiAmIzEwO0wgMjExLjUwNDI5MiA0OS42Mjc4ODUgJiMxMDtMIDIxMi4zNDgyODIgNTEuNjYwMTcxICYjMTA7TCAyMTMuMjk3NzcxIDU0LjU1NDQ3NyAmIzEwO0wgMjE0LjM1Mjc1OCA1OC41MDc1MDIgJiMxMDtMIDIxNS41NDg0MSA2My44OTQyNzIgJiMxMDtMIDIxNi44ODQ3MjggNzEuMDAxODg2ICYjMTA7TCAyMTguMzYxNzEgODAuMTA3NDcyICYjMTA7TCAyMjAuMDQ5Njg5IDkxLjk3ODgzMiAmIzEwO0wgMjIxLjk4MzgzMyAxMDcuMjYzNjMzICYjMTA7TCAyMjQuMjY5NjM5IDEyNy4yMTk2NDkgJiMxMDtMIDIyNy4xODg0MzcgMTU0LjgwMjQwOSAmIzEwO0wgMjM2LjY0ODE1NyAyNDUuNzQ1NDEgJiMxMDtMIDIzOS4wMDQyOTUgMjY1LjQ1ODY4NSAmIzEwO0wgMjQwLjYyMTk0MiAyNzcuNzI1MjczICYjMTA7TCAyNDIuNDg1NzUzIDI2NS4wNjQwMDUgJiMxMDtMIDI0NC4xNzM3MzMgMjU1LjA4MTMzMSAmIzEwO0wgMjQ1LjY4NTg4MSAyNDcuNDA5ODU4ICYjMTA7TCAyNDcuMDkyNTMxIDI0MS4zODk5NCAmIzEwO0wgMjQ4LjM1ODUxNiAyMzYuOTA3MTEgJiMxMDtMIDI0OS41MTkwMDIgMjMzLjU3ODU3OSAmIzEwO0wgMjUwLjU3Mzk4OSAyMzEuMTk2NDU2ICYjMTA7TCAyNTEuNTIzNDc4IDIyOS41Njk2NzEgJiMxMDtMIDI1Mi4zNjc0NjggMjI4LjUyNzMyMSAmIzEwO0wgMjUzLjE0MTEyNSAyMjcuODk4MzA1ICYjMTA7TCAyNTMuODQ0NDUgMjI3LjU5MDkzMiAmIzEwO0wgMjU0LjUxMjYwOCAyMjcuNTI2MTQzICYjMTA7TCAyNTUuMTgwNzY3IDIyNy42NzY0ODkgJiMxMDtMIDI1NS44ODQwOTIgMjI4LjA1OTc3NyAmIzEwO0wgMjU2LjY1Nzc0OSAyMjguNzM4MDAzICYjMTA7TCAyNTcuNTM2OTA1IDIyOS44MjAwNDQgJiMxMDtMIDI1OC41MjE1NiAyMzEuNDAyNDA0ICYjMTA7TCAyNTkuNjQ2ODggMjMzLjY1NDUxMSAmIzEwO0wgMjYwLjk0ODAzMSAyMzYuNzkwOTY5ICYjMTA7TCAyNjIuNDYwMTggMjQxLjA1ODkxMSAmIzEwO0wgMjY0LjI1MzY1OCAyNDYuODI3NTI0ICYjMTA7TCAyNjYuNTc0NjMgMjU1LjEwMzQyOCAmIzEwO0wgMjcyLjU4ODA1OCAyNzcuNzI1MjczICYjMTA7TCAyNzIuNjU4MzkgMjc3LjQ3MTMxNCAmIzEwO0wgMjc1LjEyMDAyNyAyNjkuMDExODgzICYjMTA7TCAyNzcuMDg5MzM3IDI2My4wMTUxNiAmIzEwO0wgMjc4Ljc3NzMxNyAyNTguNTYxNzMzICYjMTA7TCAyODAuMjU0Mjk5IDI1NS4yNTU4NzYgJiMxMDtMIDI4MS41OTA2MTYgMjUyLjc3ODEwNCAmIzEwO0wgMjgyLjgyMTQzNSAyNTAuOTQ3NzQxICYjMTA7TCAyODMuOTQ2NzU1IDI0OS42NjMyNjggJiMxMDtMIDI4NC45NjY1NzYgMjQ4LjgyMzY4MyAmIzEwO0wgMjg1LjkxNjA2NCAyNDguMzE5MjgyICYjMTA7TCAyODYuODMwMzg3IDI0OC4wODQwNzggJiMxMDtMIDI4Ny43MDk1NDMgMjQ4LjA4NjA2ICYjMTA7TCAyODguNTg4Njk5IDI0OC4zMDY2OTcgJiMxMDtMIDI4OS41MzgxODcgMjQ4Ljc4MzIxNSAmIzEwO0wgMjkwLjU1ODAwOCAyNDkuNTU5NjYgJiMxMDtMIDI5MS42NDgxNjIgMjUwLjY3NjkwMSAmIzEwO0wgMjkyLjg3ODk4MSAyNTIuMjcwMzE3ICYjMTA7TCAyOTQuMjUwNDY0IDI1NC40MjIwODIgJiMxMDtMIDI5NS44MzI5NDUgMjU3LjMzNDE0MiAmIzEwO0wgMjk3LjczMTkyMiAyNjEuMzIxOTA5ICYjMTA7TCAzMDAuMTkzNTU5IDI2Ny4wNDk5OTcgJiMxMDtMIDMwNC41NTQxNzQgMjc3LjcyNTI3MyAmIzEwO0wgMzA0LjYyNDUwNiAyNzcuNTU1OTA1ICYjMTA7TCAzMDcuNDcyOTcyIDI3MC45OTIyOTggJiMxMDtMIDMwOS41NDc3OCAyNjYuNzQwNTI4ICYjMTA7TCAzMTEuMzA2MDkyIDI2My42MTU0NDcgJiMxMDtMIDMxMi44NTM0MDcgMjYxLjI5MjE4NyAmIzEwO0wgMzE0LjI2MDA1NyAyNTkuNTYyNTk4ICYjMTA7TCAzMTUuNTYxMjA4IDI1OC4zMDczMyAmIzEwO0wgMzE2Ljc1Njg2IDI1Ny40NTY0OCAmIzEwO0wgMzE3Ljg4MjE4IDI1Ni45MjUyMjEgJiMxMDtMIDMxOC45MzcxNjcgMjU2LjY2NTQ5OSAmIzEwO0wgMzE5Ljk5MjE1NSAyNTYuNjM0NzQ5ICYjMTA7TCAzMjEuMDQ3MTQyIDI1Ni44Mjg5NzMgJiMxMDtMIDMyMi4xMzcyOTYgMjU3LjI1OTM3NSAmIzEwO0wgMzIzLjI5Nzc4MiAyNTcuOTYzNzMgJiMxMDtMIDMyNC41NjM3NjYgMjU5LjAwNTM3MiAmIzEwO0wgMzI1LjkzNTI1IDI2MC40MzA3MTQgJiMxMDtMIDMyNy40ODI1NjUgMjYyLjM2OTY4OSAmIzEwO0wgMzI5LjI3NjA0MyAyNjQuOTg4NzUgJiMxMDtMIDMzMS40OTE1MTYgMjY4LjY0NDU3NiAmIzEwO0wgMzM0LjgzMjMxIDI3NC42NDc3NCAmIzEwO0wgMzM2LjUyMDI4OSAyNzcuNzI1MjczICYjMTA7TCAzMzYuNTU1NDU2IDI3Ny42NjE3MyAmIzEwO0wgMzM5LjcyMDQxNyAyNzIuMTc1MTAyICYjMTA7TCAzNDEuOTAwNzI1IDI2OC44MjIxMjYgJiMxMDtMIDM0My43MjkzNjkgMjY2LjM5NzIyMSAmIzEwO0wgMzQ1LjM0NzAxNiAyNjQuNjA0NDIyICYjMTA7TCAzNDYuODIzOTk5IDI2My4yODkwMzggJiMxMDtMIDM0OC4xOTU0ODIgMjYyLjM2MTIwNSAmIzEwO0wgMzQ5LjQ2MTQ2NyAyNjEuNzY1NTgxICYjMTA7TCAzNTAuNjkyMjg2IDI2MS40MzExMTIgJiMxMDtMIDM1MS44ODc5MzggMjYxLjMzNzc4MSAmIzEwO0wgMzUzLjA4MzU5IDI2MS40NzAxNDEgJiMxMDtMIDM1NC4zMTQ0MDkgMjYxLjgzNjMwMyAmIzEwO0wgMzU1LjU4MDM5MyAyNjIuNDQ2NjMzICYjMTA7TCAzNTYuOTUxODc3IDI2My4zNTk4NDIgJiMxMDtMIDM1OC40NjQwMjUgMjY0LjY0NTY0MyAmIzEwO0wgMzYwLjE1MjAwNSAyNjYuMzg2MDU3ICYjMTA7TCAzNjIuMTIxMzE1IDI2OC43NTMwOSAmIzEwO0wgMzY0LjYxODExOCAyNzIuMTMwMzQ1ICYjMTA7TCAzNjguNDg2NDA1IDI3Ny43MjUyNzMgJiMxMDtMIDM2OC41OTE5MDQgMjc3LjU3MjgzMiAmIzEwO0wgMzcxLjk2Nzg2MyAyNzIuODk0MTk5ICYjMTA7TCAzNzQuMjE4NTAzIDI3MC4xNDA1NDggJiMxMDtMIDM3Ni4xMTc0OCAyNjguMTUzOTAzICYjMTA7TCAzNzcuODA1NDYgMjY2LjY5OTc0OCAmIzEwO0wgMzc5LjM1Mjc3NCAyNjUuNjU0NjgxICYjMTA7TCAzODAuNzk0NTkgMjY0Ljk0NTk4NCAmIzEwO0wgMzgyLjE2NjA3NCAyNjQuNTE4NDQ4ICYjMTA7TCAzODMuNTAyMzkxIDI2NC4zMzY5NTEgJiMxMDtMIDM4NC44MDM1NDIgMjY0LjM4Mjc5MyAmIzEwO0wgMzg2LjEzOTg1OSAyNjQuNjU0MjQzICYjMTA7TCAzODcuNTExMzQzIDI2NS4xNjA4NiAmIzEwO0wgMzg4Ljk4ODMyNSAyNjUuOTUwMzM2ICYjMTA7TCAzOTAuNTcwODA2IDI2Ny4wNTM5MzUgJiMxMDtMIDM5Mi4zNjQyODUgMjY4LjU4ODUxMyAmIzEwO0wgMzk0LjQzOTA5MyAyNzAuNjcyODA3ICYjMTA7TCAzOTcuMDc2NTYxIDI3My42NjAxMDIgJiMxMDtMIDQwMC40NTI1MjEgMjc3LjcyNTI3MyAmIzEwO0wgNDAwLjUyMjg1MyAyNzcuNjQwNTU4ICYjMTA7TCA0MDQuMTA5ODEgMjczLjQ5MzQxOSAmIzEwO0wgNDA2LjQ2NTk0OCAyNzEuMTAxNTk3ICYjMTA7TCA0MDguNDM1MjU4IDI2OS40MDk0MjggJiMxMDtMIDQxMC4xOTM1NyAyNjguMTg0ODk4ICYjMTA7TCA0MTEuODExMjE3IDI2Ny4zMjUyODEgJiMxMDtMIDQxMy4zMjMzNjYgMjY2Ljc2OTA5NiAmIzEwO0wgNDE0Ljc2NTE4MiAyNjYuNDY5NjAxICYjMTA7TCA0MTYuMjA2OTk4IDI2Ni4zOTgzMjQgJiMxMDtMIDQxNy42NDg4MTQgMjY2LjU1MzUxNyAmIzEwO0wgNDE5LjEyNTc5NiAyNjYuOTQwODE5ICYjMTA7TCA0MjAuNjczMTExIDI2Ny41ODIxMjIgJiMxMDtMIDQyMi4zMjU5MjQgMjY4LjUxMzA1NiAmIzEwO0wgNDI0LjE1NDU2OSAyNjkuODA1NDcxICYjMTA7TCA0MjYuMjY0NTQ0IDI3MS41ODA3NjQgJiMxMDtMIDQyOC45MDIwMTIgMjc0LjEwODMwMyAmIzEwO0wgNDMyLjQxODYzNiAyNzcuNzI1MjczICYjMTA7TCA0MzIuNDE4NjM2IDI3Ny43MjUyNzMiLz4mI3hhOyAgIDwvZz4mI3hhOyAgIDxnIGlkPSJsaW5lMmRfMTgiPiYjeGE7ICAgIDxwYXRoIHN0eWxlPSJmaWxsOiBub25lOyBzdHJva2U6ICNlMzc3YzI7IHN0cm9rZS13aWR0aDogMzsgc3Ryb2tlLWxpbmVjYXA6IHNxdWFyZSIgY2xpcC1wYXRoPSJ1cmwoI3AzY2QwZDViZTA4KSIgZD0iTSA4MC43OTEzNjQgMjc3LjcyNTI3MyAmIzEwO0wgODguNTYzMTA0IDI1OS4yNjkyMTIgJiMxMDtMIDkwLjQ2MjA4MSAyNTUuNTM1ODQgJiMxMDtMIDkyLjA0NDU2MiAyNTIuODkyMjE1ICYjMTA7TCA5My40MTYwNDUgMjUxLjAxMTA3OSAmIzEwO0wgOTQuNjQ2ODY0IDI0OS42ODc1MTcgJiMxMDtMIDk1LjczNzAxNyAyNDguODI4MTA1ICYjMTA7TCA5Ni43MjE2NzIgMjQ4LjMxOTk4NiAmIzEwO0wgOTcuNjM1OTk0IDI0OC4wODYwNiAmIzEwO0wgOTguNTE1MTUxIDI0OC4wODQwNzggJiMxMDtMIDk5LjM5NDMwNyAyNDguMzA1NzExICYjMTA7TCAxMDAuMzA4NjI5IDI0OC43NzcxNjggJiMxMDtMIDEwMS4yNTgxMTggMjQ5LjUyOTA5MSAmIzEwO0wgMTAyLjI3NzkzOSAyNTAuNjM0NzkgJiMxMDtMIDEwMy4zNjgwOTIgMjUyLjE1NTQ3ICYjMTA7TCAxMDQuNTYzNzQ1IDI1NC4yMTc5OTYgJiMxMDtMIDEwNS44NjQ4OTYgMjU2LjkxNTUwMyAmIzEwO0wgMTA3LjMwNjcxMiAyNjAuNDI1NTc5ICYjMTA7TCAxMDguOTU5NTI1IDI2NS4wNjQ5ODggJiMxMDtMIDExMC44NTg1MDIgMjcxLjA5NzQzOSAmIzEwO0wgMTEyLjc1NzQ3OSAyNzcuNzI1MjczICYjMTA7TCAxMTIuODI3ODEyIDI3Ny40NzA3NTUgJiMxMDtMIDExNi4xMzM0MzkgMjY1LjA3NjUgJiMxMDtMIDEyMC40MjM3MjEgMjQ5LjEzMjk2NiAmIzEwO0wgMTIyLjU2ODg2MSAyNDIuMDI2MzMyICYjMTA7TCAxMjQuMjU2ODQxIDIzNy4xNjEzNDkgJiMxMDtMIDEyNS42OTg2NTcgMjMzLjY1NDUxMSAmIzEwO0wgMTI2LjkyOTQ3NiAyMzEuMjE0OTQ0ICYjMTA7TCAxMjcuOTg0NDYzIDIyOS41Nzc5NzggJiMxMDtMIDEyOC45MzM5NTIgMjI4LjQ5MzcyNSAmIzEwO0wgMTI5Ljc3Nzk0MSAyMjcuODU5MjQ2ICYjMTA7TCAxMzAuNTE2NDMzIDIyNy41NzA5NCAmIzEwO0wgMTMxLjIxOTc1NyAyMjcuNTM3MDIzICYjMTA7TCAxMzEuODg3OTE2IDIyNy43MjkyMTMgJiMxMDtMIDEzMi41OTEyNDEgMjI4LjE3NDI1ICYjMTA7TCAxMzMuMzI5NzMyIDIyOC45MTU5ODkgJiMxMDtMIDEzNC4xMzg1NTYgMjMwLjA1ODAzOSAmIzEwO0wgMTM1LjAxNzcxMiAyMzEuNjk3ODM2ICYjMTA7TCAxMzYuMDAyMzY3IDIzNC4wMzUwMjkgJiMxMDtMIDEzNy4wNTczNTQgMjM3LjEzMjgyMyAmIzEwO0wgMTM4LjIxNzg0IDI0MS4yNTM0MTcgJiMxMDtMIDEzOS40ODM4MjUgMjQ2LjU5Nzk5MSAmIzEwO0wgMTQwLjg1NTMwOCAyNTMuMzc0NDM0ICYjMTA7TCAxNDIuMzY3NDU3IDI2Mi4wMDE5MzkgJiMxMDtMIDE0NC4wMjAyNyAyNzIuNzUzOTAzICYjMTA7TCAxNDQuNzIzNTk1IDI3Ny43MjUyNzMgJiMxMDtMIDE0NC43NTg3NjEgMjc3LjQ3MDc1MyAmIzEwO0wgMTQ2LjY5MjkwNSAyNjIuNjQ3NjgxICYjMTA7TCAxNDguOTA4Mzc4IDI0My44ODY1MDkgJiMxMDtMIDE1MS42MTYxNzkgMjE4Ljk0NDI0ICYjMTA7TCAxNTUuNzMwNjI5IDE3OC42ODA3MzEgJiMxMDtMIDE2MC41NDg0MDUgMTMyLjA1OTgzOCAmIzEwO0wgMTYzLjE1MDcwNyAxMDkuMDI3MTYgJiMxMDtMIDE2NS4yNjA2ODEgOTIuMjQxNTEzICYjMTA7TCAxNjcuMDg5MzI2IDc5LjQxNTc3NCAmIzEwO0wgMTY4LjY3MTgwNyA2OS44MDYwMjkgJiMxMDtMIDE3MC4wNzg0NTcgNjIuNTQyMjExICYjMTA7TCAxNzEuMzQ0NDQyIDU3LjEwNDk5NyAmIzEwO0wgMTcyLjQ2OTc2MSA1My4xODk0NzQgJiMxMDtMIDE3My40ODk1ODMgNTAuNDEyMjIyICYjMTA7TCAxNzQuMzY4NzM5IDQ4LjYyMDAxOSAmIzEwO0wgMTc1LjE0MjM5NiA0Ny41MTA4MTYgJiMxMDtMIDE3NS44MTA1NTUgNDYuOTA4NTggJiMxMDtMIDE3Ni40MDgzODEgNDYuNjUwNTg0ICYjMTA7TCAxNzYuOTcxMDQxIDQ2LjY1MDU4NCAmIzEwO0wgMTc3LjUzMzcwMSA0Ni44ODYwNTIgJiMxMDtMIDE3OC4xMzE1MjcgNDcuMzkzNzUgJiMxMDtMIDE3OC43OTk2ODUgNDguMjczODUyICYjMTA7TCAxNzkuNTM4MTc2IDQ5LjYyNzg4NSAmIzEwO0wgMTgwLjM4MjE2NiA1MS42NjAxNzEgJiMxMDtMIDE4MS4zMzE2NTUgNTQuNTU0NDc3ICYjMTA7TCAxODIuMzg2NjQyIDU4LjUwNzUwMiAmIzEwO0wgMTgzLjU4MjI5NSA2My44OTQyNzIgJiMxMDtMIDE4NC45MTg2MTIgNzEuMDAxODg2ICYjMTA7TCAxODYuMzk1NTk0IDgwLjEwNzQ3MiAmIzEwO0wgMTg4LjA4MzU3NCA5MS45Nzg4MzIgJiMxMDtMIDE5MC4wMTc3MTcgMTA3LjI2MzYzMyAmIzEwO0wgMTkyLjMwMzUyMyAxMjcuMjE5NjQ5ICYjMTA7TCAxOTUuMjIyMzIxIDE1NC44MDI0MDkgJiMxMDtMIDIwNC42ODIwNDEgMjQ1Ljc0NTQxICYjMTA7TCAyMDcuMDM4MTc5IDI2NS40NTg2ODUgJiMxMDtMIDIwOC42NTU4MjYgMjc3LjcyNTI3MyAmIzEwO0wgMjEwLjUxOTYzNyAyNjUuMDY0MDA1ICYjMTA7TCAyMTIuMjA3NjE3IDI1NS4wODEzMzEgJiMxMDtMIDIxMy43MTk3NjYgMjQ3LjQwOTg1OCAmIzEwO0wgMjE1LjEyNjQxNSAyNDEuMzg5OTQgJiMxMDtMIDIxNi4zOTI0IDIzNi45MDcxMSAmIzEwO0wgMjE3LjU1Mjg4NiAyMzMuNTc4NTc5ICYjMTA7TCAyMTguNjA3ODczIDIzMS4xOTY0NTYgJiMxMDtMIDIxOS41NTczNjIgMjI5LjU2OTY3MSAmIzEwO0wgMjIwLjQwMTM1MiAyMjguNTI3MzIxICYjMTA7TCAyMjEuMTc1MDA5IDIyNy44OTgzMDUgJiMxMDtMIDIyMS44NzgzMzQgMjI3LjU5MDkzMiAmIzEwO0wgMjIyLjU0NjQ5MyAyMjcuNTI2MTQzICYjMTA7TCAyMjMuMjE0NjUxIDIyNy42NzY0ODkgJiMxMDtMIDIyMy45MTc5NzYgMjI4LjA1OTc3NyAmIzEwO0wgMjI0LjY5MTYzNCAyMjguNzM4MDAzICYjMTA7TCAyMjUuNTcwNzkgMjI5LjgyMDA0NCAmIzEwO0wgMjI2LjU1NTQ0NSAyMzEuNDAyNDA0ICYjMTA7TCAyMjcuNjgwNzY0IDIzMy42NTQ1MTEgJiMxMDtMIDIyOC45ODE5MTUgMjM2Ljc5MDk2OSAmIzEwO0wgMjMwLjQ5NDA2NCAyNDEuMDU4OTExICYjMTA7TCAyMzIuMjg3NTQyIDI0Ni44Mjc1MjQgJiMxMDtMIDIzNC42MDg1MTQgMjU1LjEwMzQyOCAmIzEwO0wgMjQwLjYyMTk0MiAyNzcuNzI1MjczICYjMTA7TCAyNDAuNjkyMjc1IDI3Ny40NzEzMTQgJiMxMDtMIDI0My4xNTM5MTIgMjY5LjAxMTg4MyAmIzEwO0wgMjQ1LjEyMzIyMSAyNjMuMDE1MTYgJiMxMDtMIDI0Ni44MTEyMDEgMjU4LjU2MTczMyAmIzEwO0wgMjQ4LjI4ODE4MyAyNTUuMjU1ODc2ICYjMTA7TCAyNDkuNjI0NTAxIDI1Mi43NzgxMDQgJiMxMDtMIDI1MC44NTUzMTkgMjUwLjk0Nzc0MSAmIzEwO0wgMjUxLjk4MDYzOSAyNDkuNjYzMjY4ICYjMTA7TCAyNTMuMDAwNDYgMjQ4LjgyMzY4MyAmIzEwO0wgMjUzLjk0OTk0OSAyNDguMzE5MjgyICYjMTA7TCAyNTQuODY0MjcxIDI0OC4wODQwNzggJiMxMDtMIDI1NS43NDM0MjcgMjQ4LjA4NjA2ICYjMTA7TCAyNTYuNjIyNTgzIDI0OC4zMDY2OTcgJiMxMDtMIDI1Ny41NzIwNzIgMjQ4Ljc4MzIxNSAmIzEwO0wgMjU4LjU5MTg5MyAyNDkuNTU5NjYgJiMxMDtMIDI1OS42ODIwNDYgMjUwLjY3NjkwMSAmIzEwO0wgMjYwLjkxMjg2NSAyNTIuMjcwMzE3ICYjMTA7TCAyNjIuMjg0MzQ4IDI1NC40MjIwODIgJiMxMDtMIDI2My44NjY4MjkgMjU3LjMzNDE0MiAmIzEwO0wgMjY1Ljc2NTgwNyAyNjEuMzIxOTA5ICYjMTA7TCAyNjguMjI3NDQ0IDI2Ny4wNDk5OTcgJiMxMDtMIDI3Mi41ODgwNTggMjc3LjcyNTI3MyAmIzEwO0wgMjcyLjY1ODM5IDI3Ny41NTU5MDUgJiMxMDtMIDI3NS41MDY4NTYgMjcwLjk5MjI5OCAmIzEwO0wgMjc3LjU4MTY2NCAyNjYuNzQwNTI4ICYjMTA7TCAyNzkuMzM5OTc3IDI2My42MTU0NDcgJiMxMDtMIDI4MC44ODcyOTEgMjYxLjI5MjE4NyAmIzEwO0wgMjgyLjI5Mzk0MSAyNTkuNTYyNTk4ICYjMTA7TCAyODMuNTk1MDkyIDI1OC4zMDczMyAmIzEwO0wgMjg0Ljc5MDc0NCAyNTcuNDU2NDggJiMxMDtMIDI4NS45MTYwNjQgMjU2LjkyNTIyMSAmIzEwO0wgMjg2Ljk3MTA1MiAyNTYuNjY1NDk5ICYjMTA7TCAyODguMDI2MDM5IDI1Ni42MzQ3NDkgJiMxMDtMIDI4OS4wODEwMjYgMjU2LjgyODk3MyAmIzEwO0wgMjkwLjE3MTE4IDI1Ny4yNTkzNzUgJiMxMDtMIDI5MS4zMzE2NjYgMjU3Ljk2MzczICYjMTA7TCAyOTIuNTk3NjUxIDI1OS4wMDUzNzIgJiMxMDtMIDI5My45NjkxMzQgMjYwLjQzMDcxNCAmIzEwO0wgMjk1LjUxNjQ0OSAyNjIuMzY5Njg5ICYjMTA7TCAyOTcuMzA5OTI3IDI2NC45ODg3NSAmIzEwO0wgMjk5LjUyNTQwMSAyNjguNjQ0NTc2ICYjMTA7TCAzMDIuODY2MTk0IDI3NC42NDc3NCAmIzEwO0wgMzA0LjU1NDE3NCAyNzcuNzI1MjczICYjMTA7TCAzMDQuNTg5MzQgMjc3LjY2MTczICYjMTA7TCAzMDcuNzU0MzAyIDI3Mi4xNzUxMDIgJiMxMDtMIDMwOS45MzQ2MDkgMjY4LjgyMjEyNiAmIzEwO0wgMzExLjc2MzI1NCAyNjYuMzk3MjIxICYjMTA7TCAzMTMuMzgwOTAxIDI2NC42MDQ0MjIgJiMxMDtMIDMxNC44NTc4ODMgMjYzLjI4OTAzOCAmIzEwO0wgMzE2LjIyOTM2NyAyNjIuMzYxMjA1ICYjMTA7TCAzMTcuNDk1MzUxIDI2MS43NjU1ODEgJiMxMDtMIDMxOC43MjYxNyAyNjEuNDMxMTEyICYjMTA7TCAzMTkuOTIxODIyIDI2MS4zMzc3ODEgJiMxMDtMIDMyMS4xMTc0NzQgMjYxLjQ3MDE0MSAmIzEwO0wgMzIyLjM0ODI5MyAyNjEuODM2MzAzICYjMTA7TCAzMjMuNjE0Mjc4IDI2Mi40NDY2MzMgJiMxMDtMIDMyNC45ODU3NjEgMjYzLjM1OTg0MiAmIzEwO0wgMzI2LjQ5NzkxIDI2NC42NDU2NDMgJiMxMDtMIDMyOC4xODU4ODkgMjY2LjM4NjA1NyAmIzEwO0wgMzMwLjE1NTE5OSAyNjguNzUzMDkgJiMxMDtMIDMzMi42NTIwMDIgMjcyLjEzMDM0NSAmIzEwO0wgMzM2LjUyMDI4OSAyNzcuNzI1MjczICYjMTA7TCAzMzYuNjI1Nzg4IDI3Ny41NzI4MzIgJiMxMDtMIDM0MC4wMDE3NDcgMjcyLjg5NDE5OSAmIzEwO0wgMzQyLjI1MjM4NyAyNzAuMTQwNTQ4ICYjMTA7TCAzNDQuMTUxMzY0IDI2OC4xNTM5MDMgJiMxMDtMIDM0NS44MzkzNDQgMjY2LjY5OTc0OCAmIzEwO0wgMzQ3LjM4NjY1OSAyNjUuNjU0NjgxICYjMTA7TCAzNDguODI4NDc1IDI2NC45NDU5ODQgJiMxMDtMIDM1MC4xOTk5NTggMjY0LjUxODQ0OCAmIzEwO0wgMzUxLjUzNjI3NSAyNjQuMzM2OTUxICYjMTA7TCAzNTIuODM3NDI2IDI2NC4zODI3OTMgJiMxMDtMIDM1NC4xNzM3NDQgMjY0LjY1NDI0MyAmIzEwO0wgMzU1LjU0NTIyNyAyNjUuMTYwODYgJiMxMDtMIDM1Ny4wMjIyMDkgMjY1Ljk1MDMzNiAmIzEwO0wgMzU4LjYwNDY5IDI2Ny4wNTM5MzUgJiMxMDtMIDM2MC4zOTgxNjkgMjY4LjU4ODUxMyAmIzEwO0wgMzYyLjQ3Mjk3NyAyNzAuNjcyODA3ICYjMTA7TCAzNjUuMTEwNDQ2IDI3My42NjAxMDIgJiMxMDtMIDM2OC40ODY0MDUgMjc3LjcyNTI3MyAmIzEwO0wgMzY4LjU1NjczNyAyNzcuNjQwNTU4ICYjMTA7TCAzNzIuMTQzNjk0IDI3My40OTM0MTkgJiMxMDtMIDM3NC40OTk4MzMgMjcxLjEwMTU5NyAmIzEwO0wgMzc2LjQ2OTE0MiAyNjkuNDA5NDI4ICYjMTA7TCAzNzguMjI3NDU1IDI2OC4xODQ4OTggJiMxMDtMIDM3OS44NDUxMDIgMjY3LjMyNTI4MSAmIzEwO0wgMzgxLjM1NzI1IDI2Ni43NjkwOTYgJiMxMDtMIDM4Mi43OTkwNjYgMjY2LjQ2OTYwMSAmIzEwO0wgMzg0LjI0MDg4MiAyNjYuMzk4MzI0ICYjMTA7TCAzODUuNjgyNjk4IDI2Ni41NTM1MTcgJiMxMDtMIDM4Ny4xNTk2OCAyNjYuOTQwODE5ICYjMTA7TCAzODguNzA2OTk1IDI2Ny41ODIxMjIgJiMxMDtMIDM5MC4zNTk4MDkgMjY4LjUxMzA1NiAmIzEwO0wgMzkyLjE4ODQ1MyAyNjkuODA1NDcxICYjMTA7TCAzOTQuMjk4NDI4IDI3MS41ODA3NjQgJiMxMDtMIDM5Ni45MzU4OTYgMjc0LjEwODMwMyAmIzEwO0wgNDAwLjQ1MjUyMSAyNzcuNzI1MjczICYjMTA7TCA0MDAuNTU4MDE5IDI3Ny42MTYzNjYgJiMxMDtMIDQwNC4zMjA4MDcgMjczLjg5MTg4NyAmIzEwO0wgNDA2Ljc0NzI3OCAyNzEuNzk3NTc2ICYjMTA7TCA0MDguNzg2OTIgMjcwLjMyMzg1NyAmIzEwO0wgNDEwLjYxNTU2NSAyNjkuMjcyOTMzICYjMTA7TCA0MTIuMzAzNTQ1IDI2OC41NTY1ODIgJiMxMDtMIDQxMy44ODYwMjYgMjY4LjEyMTA3ICYjMTA7TCA0MTUuNDMzMzQxIDI2Ny45MjM0NzUgJiMxMDtMIDQxNi45ODA2NTUgMjY3Ljk1MzE5NiAmIzEwO0wgNDE4LjUyNzk3IDI2OC4yMDY2MzYgJiMxMDtMIDQyMC4xNDU2MTcgMjY4LjcwMTM1NSAmIzEwO0wgNDIxLjg2ODc2MyAyNjkuNDY5MzgxICYjMTA7TCA0MjMuNzMyNTc0IDI3MC41NTExNzcgJiMxMDtMIDQyNS44NDI1NDkgMjcyLjA0MTQxMSAmIzEwO0wgNDI4LjQ0NDg1MSAyNzQuMTY5NDczICYjMTA7TCA0MzIuNDE4NjM2IDI3Ny43MjUyNzMgJiMxMDtMIDQzMi40MTg2MzYgMjc3LjcyNTI3MyIvPiYjeGE7ICAgPC9nPiYjeGE7ICAgPGcgaWQ9ImxpbmUyZF8xOSI+JiN4YTsgICAgPHBhdGggc3R5bGU9ImZpbGw6IG5vbmU7IHN0cm9rZTogIzdmN2Y3Zjsgc3Ryb2tlLXdpZHRoOiAzOyBzdHJva2UtbGluZWNhcDogc3F1YXJlIiBjbGlwLXBhdGg9InVybCgjcDNjZDBkNWJlMDgpIiBkPSJNIDgwLjc5MTM2NCAyNzcuNzI1MjczICYjMTA7TCA4NC4wMjY2NTggMjY1LjYxMzM3NyAmIzEwO0wgODguNDU3NjA1IDI0OS4xMzI5NjYgJiMxMDtMIDkwLjYwMjc0NiAyNDIuMDI2MzMyICYjMTA7TCA5Mi4yOTA3MjUgMjM3LjE2MTM0OSAmIzEwO0wgOTMuNzMyNTQxIDIzMy42NTQ1MTEgJiMxMDtMIDk0Ljk2MzM2IDIzMS4yMTQ5NDQgJiMxMDtMIDk2LjAxODM0NyAyMjkuNTc3OTc4ICYjMTA7TCA5Ni45Njc4MzYgMjI4LjQ5MzcyNSAmIzEwO0wgOTcuODExODI2IDIyNy44NTkyNDYgJiMxMDtMIDk4LjU1MDMxNyAyMjcuNTcwOTQgJiMxMDtMIDk5LjI1MzY0MiAyMjcuNTM3MDIzICYjMTA7TCA5OS45MjE4IDIyNy43MjkyMTMgJiMxMDtMIDEwMC42MjUxMjUgMjI4LjE3NDI1ICYjMTA7TCAxMDEuMzYzNjE2IDIyOC45MTU5ODkgJiMxMDtMIDEwMi4xNzI0NCAyMzAuMDU4MDM5ICYjMTA7TCAxMDMuMDUxNTk2IDIzMS42OTc4MzYgJiMxMDtMIDEwNC4wMzYyNTEgMjM0LjAzNTAyOSAmIzEwO0wgMTA1LjA5MTIzOCAyMzcuMTMyODIzICYjMTA7TCAxMDYuMjUxNzI0IDI0MS4yNTM0MTcgJiMxMDtMIDEwNy41MTc3MDkgMjQ2LjU5Nzk5MSAmIzEwO0wgMTA4Ljg4OTE5MyAyNTMuMzc0NDM0ICYjMTA7TCAxMTAuNDAxMzQxIDI2Mi4wMDE5MzkgJiMxMDtMIDExMi4wNTQxNTQgMjcyLjc1MzkwMyAmIzEwO0wgMTEyLjc1NzQ3OSAyNzcuNzI1MjczICYjMTA7TCAxMTIuNzkyNjQ2IDI3Ny40NzA3NTMgJiMxMDtMIDExNC43MjY3ODkgMjYyLjY0NzY4MSAmIzEwO0wgMTE2Ljk0MjI2MiAyNDMuODg2NTA5ICYjMTA7TCAxMTkuNjUwMDYzIDIxOC45NDQyNCAmIzEwO0wgMTIzLjc2NDUxNCAxNzguNjgwNzMxICYjMTA7TCAxMjguNTgyMjg5IDEzMi4wNTk4MzggJiMxMDtMIDEzMS4xODQ1OTEgMTA5LjAyNzE2ICYjMTA7TCAxMzMuMjk0NTY2IDkyLjI0MTUxMyAmIzEwO0wgMTM1LjEyMzIxIDc5LjQxNTc3NCAmIzEwO0wgMTM2LjcwNTY5MSA2OS44MDYwMjkgJiMxMDtMIDEzOC4xMTIzNDEgNjIuNTQyMjExICYjMTA7TCAxMzkuMzc4MzI2IDU3LjEwNDk5NyAmIzEwO0wgMTQwLjUwMzY0NiA1My4xODk0NzQgJiMxMDtMIDE0MS41MjM0NjcgNTAuNDEyMjIyICYjMTA7TCAxNDIuNDAyNjIzIDQ4LjYyMDAxOSAmIzEwO0wgMTQzLjE3NjI4IDQ3LjUxMDgxNiAmIzEwO0wgMTQzLjg0NDQzOSA0Ni45MDg1OCAmIzEwO0wgMTQ0LjQ0MjI2NSA0Ni42NTA1ODQgJiMxMDtMIDE0NS4wMDQ5MjUgNDYuNjUwNTg0ICYjMTA7TCAxNDUuNTY3NTg1IDQ2Ljg4NjA1MiAmIzEwO0wgMTQ2LjE2NTQxMSA0Ny4zOTM3NSAmIzEwO0wgMTQ2LjgzMzU3IDQ4LjI3Mzg1MiAmIzEwO0wgMTQ3LjU3MjA2MSA0OS42Mjc4ODUgJiMxMDtMIDE0OC40MTYwNTEgNTEuNjYwMTcxICYjMTA7TCAxNDkuMzY1NTM5IDU0LjU1NDQ3NyAmIzEwO0wgMTUwLjQyMDUyNyA1OC41MDc1MDIgJiMxMDtMIDE1MS42MTYxNzkgNjMuODk0MjcyICYjMTA7TCAxNTIuOTUyNDk2IDcxLjAwMTg4NiAmIzEwO0wgMTU0LjQyOTQ3OCA4MC4xMDc0NzIgJiMxMDtMIDE1Ni4xMTc0NTggOTEuOTc4ODMyICYjMTA7TCAxNTguMDUxNjAxIDEwNy4yNjM2MzMgJiMxMDtMIDE2MC4zMzc0MDcgMTI3LjIxOTY0OSAmIzEwO0wgMTYzLjI1NjIwNiAxNTQuODAyNDA5ICYjMTA7TCAxNzIuNzE1OTI1IDI0NS43NDU0MSAmIzEwO0wgMTc1LjA3MjA2NCAyNjUuNDU4Njg1ICYjMTA7TCAxNzYuNjg5NzExIDI3Ny43MjUyNzMgJiMxMDtMIDE3OC41NTM1MjIgMjY1LjA2NDAwNSAmIzEwO0wgMTgwLjI0MTUwMSAyNTUuMDgxMzMxICYjMTA7TCAxODEuNzUzNjUgMjQ3LjQwOTg1OCAmIzEwO0wgMTgzLjE2MDMgMjQxLjM4OTk0ICYjMTA7TCAxODQuNDI2Mjg0IDIzNi45MDcxMSAmIzEwO0wgMTg1LjU4Njc3IDIzMy41Nzg1NzkgJiMxMDtMIDE4Ni42NDE3NTggMjMxLjE5NjQ1NiAmIzEwO0wgMTg3LjU5MTI0NiAyMjkuNTY5NjcxICYjMTA7TCAxODguNDM1MjM2IDIyOC41MjczMjEgJiMxMDtMIDE4OS4yMDg4OTQgMjI3Ljg5ODMwNSAmIzEwO0wgMTg5LjkxMjIxOCAyMjcuNTkwOTMyICYjMTA7TCAxOTAuNTgwMzc3IDIyNy41MjYxNDMgJiMxMDtMIDE5MS4yNDg1MzYgMjI3LjY3NjQ4OSAmIzEwO0wgMTkxLjk1MTg2MSAyMjguMDU5Nzc3ICYjMTA7TCAxOTIuNzI1NTE4IDIyOC43MzgwMDMgJiMxMDtMIDE5My42MDQ2NzQgMjI5LjgyMDA0NCAmIzEwO0wgMTk0LjU4OTMyOSAyMzEuNDAyNDA0ICYjMTA7TCAxOTUuNzE0NjQ5IDIzMy42NTQ1MTEgJiMxMDtMIDE5Ny4wMTU4IDIzNi43OTA5NjkgJiMxMDtMIDE5OC41Mjc5NDggMjQxLjA1ODkxMSAmIzEwO0wgMjAwLjMyMTQyNyAyNDYuODI3NTI0ICYjMTA7TCAyMDIuNjQyMzk5IDI1NS4xMDM0MjggJiMxMDtMIDIwOC42NTU4MjYgMjc3LjcyNTI3MyAmIzEwO0wgMjA4LjcyNjE1OSAyNzcuNDcxMzE0ICYjMTA7TCAyMTEuMTg3Nzk2IDI2OS4wMTE4ODMgJiMxMDtMIDIxMy4xNTcxMDYgMjYzLjAxNTE2ICYjMTA7TCAyMTQuODQ1MDg1IDI1OC41NjE3MzMgJiMxMDtMIDIxNi4zMjIwNjggMjU1LjI1NTg3NiAmIzEwO0wgMjE3LjY1ODM4NSAyNTIuNzc4MTA0ICYjMTA7TCAyMTguODg5MjAzIDI1MC45NDc3NDEgJiMxMDtMIDIyMC4wMTQ1MjMgMjQ5LjY2MzI2OCAmIzEwO0wgMjIxLjAzNDM0NCAyNDguODIzNjgzICYjMTA7TCAyMjEuOTgzODMzIDI0OC4zMTkyODIgJiMxMDtMIDIyMi44OTgxNTUgMjQ4LjA4NDA3OCAmIzEwO0wgMjIzLjc3NzMxMSAyNDguMDg2MDYgJiMxMDtMIDIyNC42NTY0NjcgMjQ4LjMwNjY5NyAmIzEwO0wgMjI1LjYwNTk1NiAyNDguNzgzMjE1ICYjMTA7TCAyMjYuNjI1Nzc3IDI0OS41NTk2NiAmIzEwO0wgMjI3LjcxNTkzMSAyNTAuNjc2OTAxICYjMTA7TCAyMjguOTQ2NzQ5IDI1Mi4yNzAzMTcgJiMxMDtMIDIzMC4zMTgyMzMgMjU0LjQyMjA4MiAmIzEwO0wgMjMxLjkwMDcxNCAyNTcuMzM0MTQyICYjMTA7TCAyMzMuNzk5NjkxIDI2MS4zMjE5MDkgJiMxMDtMIDIzNi4yNjEzMjggMjY3LjA0OTk5NyAmIzEwO0wgMjQwLjYyMTk0MiAyNzcuNzI1MjczICYjMTA7TCAyNDAuNjkyMjc1IDI3Ny41NTU5MDUgJiMxMDtMIDI0My41NDA3NCAyNzAuOTkyMjk4ICYjMTA7TCAyNDUuNjE1NTQ5IDI2Ni43NDA1MjggJiMxMDtMIDI0Ny4zNzM4NjEgMjYzLjYxNTQ0NyAmIzEwO0wgMjQ4LjkyMTE3NiAyNjEuMjkyMTg3ICYjMTA7TCAyNTAuMzI3ODI1IDI1OS41NjI1OTggJiMxMDtMIDI1MS42Mjg5NzYgMjU4LjMwNzMzICYjMTA7TCAyNTIuODI0NjI5IDI1Ny40NTY0OCAmIzEwO0wgMjUzLjk0OTk0OSAyNTYuOTI1MjIxICYjMTA7TCAyNTUuMDA0OTM2IDI1Ni42NjU0OTkgJiMxMDtMIDI1Ni4wNTk5MjMgMjU2LjYzNDc0OSAmIzEwO0wgMjU3LjExNDkxMSAyNTYuODI4OTczICYjMTA7TCAyNTguMjA1MDY0IDI1Ny4yNTkzNzUgJiMxMDtMIDI1OS4zNjU1NSAyNTcuOTYzNzMgJiMxMDtMIDI2MC42MzE1MzUgMjU5LjAwNTM3MiAmIzEwO0wgMjYyLjAwMzAxOCAyNjAuNDMwNzE0ICYjMTA7TCAyNjMuNTUwMzMzIDI2Mi4zNjk2ODkgJiMxMDtMIDI2NS4zNDM4MTIgMjY0Ljk4ODc1ICYjMTA7TCAyNjcuNTU5Mjg1IDI2OC42NDQ1NzYgJiMxMDtMIDI3MC45MDAwNzggMjc0LjY0Nzc0ICYjMTA7TCAyNzIuNTg4MDU4IDI3Ny43MjUyNzMgJiMxMDtMIDI3Mi42MjMyMjQgMjc3LjY2MTczICYjMTA7TCAyNzUuNzg4MTg2IDI3Mi4xNzUxMDIgJiMxMDtMIDI3Ny45Njg0OTMgMjY4LjgyMjEyNiAmIzEwO0wgMjc5Ljc5NzEzOCAyNjYuMzk3MjIxICYjMTA7TCAyODEuNDE0Nzg1IDI2NC42MDQ0MjIgJiMxMDtMIDI4Mi44OTE3NjcgMjYzLjI4OTAzOCAmIzEwO0wgMjg0LjI2MzI1MSAyNjIuMzYxMjA1ICYjMTA7TCAyODUuNTI5MjM2IDI2MS43NjU1ODEgJiMxMDtMIDI4Ni43NjAwNTQgMjYxLjQzMTExMiAmIzEwO0wgMjg3Ljk1NTcwNiAyNjEuMzM3NzgxICYjMTA7TCAyODkuMTUxMzU5IDI2MS40NzAxNDEgJiMxMDtMIDI5MC4zODIxNzcgMjYxLjgzNjMwMyAmIzEwO0wgMjkxLjY0ODE2MiAyNjIuNDQ2NjMzICYjMTA7TCAyOTMuMDE5NjQ2IDI2My4zNTk4NDIgJiMxMDtMIDI5NC41MzE3OTQgMjY0LjY0NTY0MyAmIzEwO0wgMjk2LjIxOTc3NCAyNjYuMzg2MDU3ICYjMTA7TCAyOTguMTg5MDgzIDI2OC43NTMwOSAmIzEwO0wgMzAwLjY4NTg4NyAyNzIuMTMwMzQ1ICYjMTA7TCAzMDQuNTU0MTc0IDI3Ny43MjUyNzMgJiMxMDtMIDMwNC42NTk2NzIgMjc3LjU3MjgzMiAmIzEwO0wgMzA4LjAzNTYzMiAyNzIuODk0MTk5ICYjMTA7TCAzMTAuMjg2MjcxIDI3MC4xNDA1NDggJiMxMDtMIDMxMi4xODUyNDggMjY4LjE1MzkwMyAmIzEwO0wgMzEzLjg3MzIyOCAyNjYuNjk5NzQ4ICYjMTA7TCAzMTUuNDIwNTQzIDI2NS42NTQ2ODEgJiMxMDtMIDMxNi44NjIzNTkgMjY0Ljk0NTk4NCAmIzEwO0wgMzE4LjIzMzg0MiAyNjQuNTE4NDQ4ICYjMTA7TCAzMTkuNTcwMTYgMjY0LjMzNjk1MSAmIzEwO0wgMzIwLjg3MTMxMSAyNjQuMzgyNzkzICYjMTA7TCAzMjIuMjA3NjI4IDI2NC42NTQyNDMgJiMxMDtMIDMyMy41NzkxMTIgMjY1LjE2MDg2ICYjMTA7TCAzMjUuMDU2MDk0IDI2NS45NTAzMzYgJiMxMDtMIDMyNi42Mzg1NzUgMjY3LjA1MzkzNSAmIzEwO0wgMzI4LjQzMjA1MyAyNjguNTg4NTEzICYjMTA7TCAzMzAuNTA2ODYyIDI3MC42NzI4MDcgJiMxMDtMIDMzMy4xNDQzMyAyNzMuNjYwMTAyICYjMTA7TCAzMzYuNTIwMjg5IDI3Ny43MjUyNzMgJiMxMDtMIDMzNi41OTA2MjIgMjc3LjY0MDU1OCAmIzEwO0wgMzQwLjE3NzU3OSAyNzMuNDkzNDE5ICYjMTA7TCAzNDIuNTMzNzE3IDI3MS4xMDE1OTcgJiMxMDtMIDM0NC41MDMwMjcgMjY5LjQwOTQyOCAmIzEwO0wgMzQ2LjI2MTMzOSAyNjguMTg0ODk4ICYjMTA7TCAzNDcuODc4OTg2IDI2Ny4zMjUyODEgJiMxMDtMIDM0OS4zOTExMzUgMjY2Ljc2OTA5NiAmIzEwO0wgMzUwLjgzMjk1MSAyNjYuNDY5NjAxICYjMTA7TCAzNTIuMjc0NzY3IDI2Ni4zOTgzMjQgJiMxMDtMIDM1My43MTY1ODMgMjY2LjU1MzUxNyAmIzEwO0wgMzU1LjE5MzU2NSAyNjYuOTQwODE5ICYjMTA7TCAzNTYuNzQwODc5IDI2Ny41ODIxMjIgJiMxMDtMIDM1OC4zOTM2OTMgMjY4LjUxMzA1NiAmIzEwO0wgMzYwLjIyMjMzOCAyNjkuODA1NDcxICYjMTA7TCAzNjIuMzMyMzEyIDI3MS41ODA3NjQgJiMxMDtMIDM2NC45Njk3ODEgMjc0LjEwODMwMyAmIzEwO0wgMzY4LjQ4NjQwNSAyNzcuNzI1MjczICYjMTA7TCAzNjguNTkxOTA0IDI3Ny42MTYzNjYgJiMxMDtMIDM3Mi4zNTQ2OTIgMjczLjg5MTg4NyAmIzEwO0wgMzc0Ljc4MTE2MyAyNzEuNzk3NTc2ICYjMTA7TCAzNzYuODIwODA1IDI3MC4zMjM4NTcgJiMxMDtMIDM3OC42NDk0NDkgMjY5LjI3MjkzMyAmIzEwO0wgMzgwLjMzNzQyOSAyNjguNTU2NTgyICYjMTA7TCAzODEuOTE5OTEgMjY4LjEyMTA3ICYjMTA7TCAzODMuNDY3MjI1IDI2Ny45MjM0NzUgJiMxMDtMIDM4NS4wMTQ1NCAyNjcuOTUzMTk2ICYjMTA7TCAzODYuNTYxODU0IDI2OC4yMDY2MzYgJiMxMDtMIDM4OC4xNzk1MDIgMjY4LjcwMTM1NSAmIzEwO0wgMzg5LjkwMjY0NyAyNjkuNDY5MzgxICYjMTA7TCAzOTEuNzY2NDU4IDI3MC41NTExNzcgJiMxMDtMIDM5My44NzY0MzMgMjcyLjA0MTQxMSAmIzEwO0wgMzk2LjQ3ODczNSAyNzQuMTY5NDczICYjMTA7TCA0MDAuNTkzMTg2IDI3Ny41OTgyMjcgJiMxMDtMIDQwNC41MzE4MDUgMjc0LjE5MzA5OSAmIzEwO0wgNDA3LjAyODYwOCAyNzIuMzI2NDA0ICYjMTA7TCA0MDkuMTAzNDE3IDI3MS4wNDE4NjggJiMxMDtMIDQxMS4wMDIzOTQgMjcwLjEyMzU3MiAmIzEwO0wgNDEyLjc2MDcwNiAyNjkuNTE4MTU5ICYjMTA7TCA0MTQuNDQ4Njg2IDI2OS4xNzI3NjggJiMxMDtMIDQxNi4xMDE0OTkgMjY5LjA2NDg1ICYjMTA7TCA0MTcuNzU0MzEzIDI2OS4xODQ4NjcgJiMxMDtMIDQxOS40NDIyOTIgMjY5LjUzNjU1MiAmIzEwO0wgNDIxLjIwMDYwNSAyNzAuMTM1NzAxICYjMTA7TCA0MjMuMDk5NTgyIDI3MS4wMjU4MzIgJiMxMDtMIDQyNS4yMDk1NTYgMjcyLjI3MDAyNiAmIzEwO0wgNDI3LjcwNjM2IDI3NC4wMTI5ODUgJiMxMDtMIDQzMS4yOTMzMTcgMjc2LjgxOTYwOCAmIzEwO0wgNDMyLjQxODYzNiAyNzcuNzI1MjczICYjMTA7TCA0MzIuNDE4NjM2IDI3Ny43MjUyNzMiLz4mI3hhOyAgIDwvZz4mI3hhOyAgIDxnIGlkPSJwYXRjaF8zIj4mI3hhOyAgICA8cGF0aCBzdHlsZT0iZmlsbDogbm9uZTsgc3Ryb2tlOiAjMDAwMDAwOyBzdHJva2Utd2lkdGg6IDAuODsgc3Ryb2tlLWxpbmVqb2luOiBtaXRlcjsgc3Ryb2tlLWxpbmVjYXA6IHNxdWFyZSIgZD0iTSA2My4yMSAyOTAuNDM2ICYjMTA7TCA2My4yMSAxMC44Ii8+JiN4YTsgICA8L2c+JiN4YTsgICA8ZyBpZD0icGF0Y2hfNCI+JiN4YTsgICAgPHBhdGggc3R5bGU9ImZpbGw6IG5vbmU7IHN0cm9rZTogIzAwMDAwMDsgc3Ryb2tlLXdpZHRoOiAwLjg7IHN0cm9rZS1saW5lam9pbjogbWl0ZXI7IHN0cm9rZS1saW5lY2FwOiBzcXVhcmUiIGQ9Ik0gNDUwIDI5MC40MzYgJiMxMDtMIDQ1MCAxMC44Ii8+JiN4YTsgICA8L2c+JiN4YTsgICA8ZyBpZD0icGF0Y2hfNSI+JiN4YTsgICAgPHBhdGggc3R5bGU9ImZpbGw6IG5vbmU7IHN0cm9rZTogIzAwMDAwMDsgc3Ryb2tlLXdpZHRoOiAwLjg7IHN0cm9rZS1saW5lam9pbjogbWl0ZXI7IHN0cm9rZS1saW5lY2FwOiBzcXVhcmUiIGQ9Ik0gNjMuMjEgMjkwLjQzNiAmIzEwO0wgNDUwIDI5MC40MzYiLz4mI3hhOyAgIDwvZz4mI3hhOyAgIDxnIGlkPSJwYXRjaF82Ij4mI3hhOyAgICA8cGF0aCBzdHlsZT0iZmlsbDogbm9uZTsgc3Ryb2tlOiAjMDAwMDAwOyBzdHJva2Utd2lkdGg6IDAuODsgc3Ryb2tlLWxpbmVqb2luOiBtaXRlcjsgc3Ryb2tlLWxpbmVjYXA6IHNxdWFyZSIgZD0iTSA2My4yMSAxMC44ICYjMTA7TCA0NTAgMTAuOCIvPiYjeGE7ICAgPC9nPiYjeGE7ICA8L2c+JiN4YTsgPC9nPiYjeGE7IDxkZWZzPiYjeGE7ICA8Y2xpcFBhdGggaWQ9InAzY2QwZDViZTA4Ij4mI3hhOyAgIDxyZWN0IGhlaWdodD0iMjc5LjYzNiIgd2lkdGg9IjM4Ni43OSIgeT0iMTAuOCIgeD0iNjMuMjEiLz4mI3hhOyAgPC9jbGlwUGF0aD4mI3hhOyA8L2RlZnM+JiN4YTs8L3N2Zz4=;" vertex="1" parent="1">
          <mxGeometry x="153" y="137" width="480.98" height="361" as="geometry" />
        </mxCell>
        <mxCell id="L3o_oNwe4OhQNrBdj4DS-3" value="" style="endArrow=none;html=1;rounded=0;strokeWidth=3;" parent="1" edge="1">
          <mxGeometry width="50" height="50" relative="1" as="geometry">
            <mxPoint x="296" y="182" as="sourcePoint" />
            <mxPoint x="269" y="427" as="targetPoint" />
          </mxGeometry>
        </mxCell>
        <mxCell id="L3o_oNwe4OhQNrBdj4DS-4" value="" style="endArrow=none;html=1;rounded=0;strokeWidth=3;" parent="1" edge="1">
          <mxGeometry width="50" height="50" relative="1" as="geometry">
            <mxPoint x="572" y="425" as="sourcePoint" />
            <mxPoint x="546" y="182" as="targetPoint" />
          </mxGeometry>
        </mxCell>
        <mxCell id="L3o_oNwe4OhQNrBdj4DS-5" value="" style="endArrow=none;html=1;rounded=0;strokeWidth=3;" parent="1" edge="1">
          <mxGeometry width="50" height="50" relative="1" as="geometry">
            <mxPoint x="297" y="183" as="sourcePoint" />
            <mxPoint x="546" y="183" as="targetPoint" />
          </mxGeometry>
        </mxCell>
      </root>
    </mxGraphModel>
  </diagram>
</mxfile>
